<svg width="1180" height="395" viewBox="0 0 1180 395" fill="none" xmlns="http://www.w3.org/2000/svg">
<path fill-rule="evenodd" clip-rule="evenodd" d="M143.956 0L257.039 2.91838L122.037 244.587L235.525 245.21L248.774 137.394L328.389 138.541L330.375 244.095L386.085 244.423L387.382 319.579H331.793L333.089 389.391L233.418 390.047L231.919 319.678L1.70171 319.809L0 257.408L143.956 0ZM544.294 382.145C521.32 373.357 501.629 360.568 485.342 343.747C468.973 326.892 456.372 306.267 447.458 281.903C438.545 257.474 433.845 229.798 433.318 198.975C432.832 168.086 436.681 140.378 444.825 115.916C453.009 91.4538 465.083 70.8284 481.006 54.0723C496.929 37.3161 516.418 24.6917 539.391 16.166C562.283 7.67322 588.011 3.8367 616.535 4.59089C645.059 5.34507 670.868 10.526 693.234 20.0682C715.518 29.5775 734.439 42.8906 750.079 59.9746C765.637 77.0258 777.549 97.5529 785.774 121.589C793.999 145.559 798.213 172.513 798.415 202.451C798.618 232.323 794.769 259.081 786.909 282.756C779.048 306.431 767.501 326.499 752.307 343.025C737.073 359.584 718.516 372.307 696.596 381.226C674.596 390.178 649.394 394.769 620.911 394.966C592.428 395.163 567.105 390.9 544.213 382.145H544.294ZM553.45 288.1C569.211 309.021 591.455 319.448 620.101 319.448C648.219 319.448 669.734 309.054 684.725 288.396C699.716 267.737 706.969 238.849 706.645 201.631C706.321 164.348 698.46 135.164 683.064 114.047C667.627 92.8638 645.748 81.9445 617.427 81.387C588.579 80.7968 566.456 90.9292 551.141 111.784C535.826 132.672 528.411 162.052 528.938 199.926C529.464 237.701 537.649 267.114 553.41 288.133L553.45 288.1ZM1072.06 23.9377L973.85 21.4128L844.318 261.245L844.642 319.351L1044.55 319.219V384.834L1131.26 384.276L1131.38 319.154H1179.8L1180 249.014L1131.5 248.719L1131.7 150.281L1062.46 149.264L1048.97 249.768L950.391 249.211L1072.06 23.9377Z" fill="#F2F2F2"/>
</svg>
