<svg width="518" height="379" viewBox="0 0 518 379" fill="none" xmlns="http://www.w3.org/2000/svg">
<g clip-path="url(#clip0_1562_1218)">
<path fill-rule="evenodd" clip-rule="evenodd" d="M359.017 5.13259C414.343 -7.25226 465.6 7.44173 493.15 49.4123C520.699 91.3828 513.492 157.982 507.525 187.379C501.557 216.776 486.418 243.702 467.629 267.077C432.73 310.495 385.569 343.72 332.846 361.655C280.124 379.59 222.882 383.267 167.939 374.194C137.117 369.104 40.7066 344.17 19.8951 268.924C-0.916485 193.677 -14.0876 129.365 30.9801 103.241C76.0478 77.1169 107.265 96.7654 129.576 106.428C233.809 151.569 303.691 17.5174 359.017 5.13259Z" fill="#00B140"/>
<path fill-rule="evenodd" clip-rule="evenodd" d="M436.924 75.612C445.799 74.9266 455.365 75.37 462.598 80.5593C469.83 85.7486 473.116 97.1438 467.177 103.775C473.891 101.15 481.782 105.602 485.145 111.978C488.509 118.355 488.333 125.994 487.321 133.132C484.815 150.809 477.609 167.797 466.641 181.885C466.137 183.37 465.633 184.855 465.129 186.34C478.093 189.682 528.715 209.342 515.037 257.807C501.359 306.272 441.625 324.718 435.511 330.519C424.853 340.629 408.587 341.32 393.905 340.854C357.804 339.709 321.813 335.121 286.579 327.173C283.584 326.497 279.79 326.086 278.063 328.625C265.564 347.001 239.428 348.644 217.262 347.044C188.79 344.989 160.481 340.671 132.691 334.144C116.928 330.441 100.189 325.285 90.3688 312.411C78.9207 297.402 80.2428 276.592 82.1003 257.807C74.5759 261.99 62.0961 264.256 44.6609 264.604C34.3955 262.51 27.9922 258.789 25.451 253.441C13.8304 228.982 9.84543 197.465 24.3163 173.357C26.0547 170.461 28.0603 167.607 30.8909 165.764C33.8919 163.81 37.5504 163.168 41.1174 162.852C55.1864 161.606 69.6214 164.89 81.7667 172.1C81.6583 132.626 81.5498 93.1513 81.4413 53.6771C81.4351 51.4166 81.4666 49.0179 82.6718 47.1054C84.4149 44.3392 87.9857 43.4818 91.1998 42.8818C120.437 37.4239 150.006 33.743 179.689 31.8661C189.387 31.2528 202.66 33.952 202.704 43.6699C202.873 80.8859 203.042 118.102 203.212 155.318C203.252 164.176 203.821 163.435 207.971 160.868C205.362 161.139 205.944 156.714 207.921 154.99C215.302 148.556 226.057 148.32 235.847 148.42C257.746 148.644 279.646 148.868 301.545 149.092C322.764 149.31 348.21 152 357.816 170.921C357.537 165.298 362.634 159.991 368.264 160.043C374.403 160.099 379.538 154.773 381.331 148.901C383.123 143.028 382.332 136.718 381.526 130.631C371.626 121.045 369.034 104.749 375.472 92.5649C381.909 80.3804 396.831 73.3379 410.329 76.1136C419.048 77.9065 428.049 76.2974 436.924 75.612ZM182.813 258.166C182.522 266.002 182.213 273.942 179.907 281.436L182.813 258.166ZM173.74 162.005C175.778 162.601 178.3 164.409 177.23 166.243C186.084 167.128 183.441 166.718 183.839 156.284C184.243 145.696 184.277 133.989 177.345 125.976C171.212 118.885 161.209 116.667 151.867 115.869C140.964 114.938 129.944 115.386 119.151 117.197C113.886 118.081 108.182 119.604 105.126 123.982C103.416 126.433 102.787 129.459 102.284 132.405C100.308 143.992 99.6906 155.811 100.449 167.541C123.15 156.979 149.71 154.973 173.74 162.005ZM370.748 239.795C371.303 239.234 372.144 239.098 372.925 238.991C376.045 238.561 379.165 238.132 382.284 237.703C375.125 234.47 370.785 226.789 369.489 219.041C368.193 211.293 369.459 203.371 370.737 195.62C366.158 200.716 366.488 208.406 367.088 215.231C368.401 230.17 370.194 240.355 370.748 239.795ZM311.848 313.378C312.461 311.382 314.55 310.311 316.079 308.889C318.832 306.331 319.854 302.463 320.752 298.814C323.855 286.204 326.978 273.439 326.938 260.453C326.93 257.701 326.79 254.875 327.701 252.279C328.612 249.682 330.895 247.335 333.646 247.321C336.547 247.307 337.24 243.283 336.981 240.393C336.087 230.43 335.192 220.467 334.298 210.503C334.012 207.321 333.721 204.109 332.755 201.064C329.185 189.804 315.426 182.995 304.308 186.987C302.947 187.476 302.584 189.195 302.429 190.633C300.718 206.57 299.007 222.507 297.296 238.443C296.992 241.275 300.648 243.082 303.408 242.381C306.168 241.679 308.275 239.523 310.662 237.969C313.048 236.415 316.413 235.521 318.604 237.34C321.081 239.395 324.747 237.112 326.899 234.718C329.05 232.324 331.852 229.438 334.912 230.437C331.323 233.87 327.733 237.303 324.144 240.737C322.954 241.875 321.904 244.15 323.408 244.822C327.532 243.359 331.26 240.796 334.103 237.469C335.417 237.427 335.479 239.491 334.746 240.582C331.982 244.695 325.478 245.61 323.804 250.273C319.895 261.157 307.706 268.386 296.281 266.596C293.937 266.229 292.769 269.312 292.487 271.667C291.362 281.058 290.237 290.449 289.113 299.841C288.854 302.001 288.613 304.286 289.502 306.272C290.986 309.585 294.956 310.839 298.475 311.731C303.127 312.909 307.833 314.094 312.588 314.608C314.59 314.825 314.582 314.091 311.848 313.378ZM126.514 296.16C133.161 298.386 140.196 299.14 147.167 299.881C150.123 300.195 153.271 300.476 155.923 299.133C159.044 297.552 160.708 294.125 162.05 290.894C169.537 272.873 173.812 253.523 174.613 234.025C174.727 231.255 171.18 230.032 168.413 229.846C146.327 228.364 125.204 238.072 105.201 247.554C104.242 248.008 103.216 248.527 102.742 249.476C102.389 250.184 102.408 251.012 102.434 251.803C102.792 262.575 103.244 273.732 108.062 283.373C109.363 285.977 111.018 288.482 113.361 290.209C114.78 291.255 116.404 291.981 118.015 292.699C120.81 293.943 123.612 295.188 126.514 296.16ZM269.394 256.295C272.338 240.462 274.413 224.468 275.606 208.408C276.015 202.914 276.314 197.328 275.126 191.949C273.938 186.569 271.073 181.339 266.388 178.44C263.502 176.653 260.123 175.852 256.781 175.255C250.682 174.167 244.478 173.674 238.284 173.784C232.818 173.881 227.081 174.547 222.619 177.705C221.144 178.75 219.804 180.117 219.265 181.842C218.726 183.568 219.18 185.688 220.676 186.701C224.46 189.263 226.002 194.057 226.711 198.571C227.419 203.084 227.59 207.811 229.647 211.891C230.707 213.995 232.228 215.83 233.823 217.564C242.472 226.967 253.752 233.924 266.037 237.429C268.197 238.046 270.945 239.38 270.488 241.579C277.282 245.865 269.281 256.902 269.394 256.295ZM250.67 302.992C253.172 301.472 254.868 298.943 256.361 296.425C262.697 285.743 266.851 273.774 268.495 261.464C245.707 261.361 223.055 252.763 205.938 237.719C205.352 240.07 205.464 242.531 205.544 244.953C206.043 260.072 205.146 275.237 202.868 290.192C202.324 293.757 204.454 297.321 207.382 299.426C210.31 301.532 213.916 302.436 217.457 303.118C225.44 304.656 233.597 305.286 241.721 304.994C244.811 304.882 248.028 304.597 250.67 302.992ZM394.47 172.579C393.142 169.378 392.145 165.769 389.389 163.667C386.633 161.565 381.444 162.594 381.283 166.055C384.01 165.553 386.095 168.92 385.63 171.654C385.165 174.388 383.178 176.562 381.598 178.841C379.416 181.991 377.924 185.557 376.448 189.093C372.936 197.506 371.568 206.805 372.511 215.873C373.065 221.211 374.528 226.695 378.138 230.668C381.748 234.64 387.936 236.626 392.693 234.14C396.779 232.004 398.817 227.297 399.754 222.783C400.691 218.269 400.857 213.544 402.628 209.288C405.893 201.435 413.946 196.691 421.913 193.712C409.937 192.085 399.102 183.741 394.47 172.579ZM361.355 181.074C361.887 183.132 362.624 185.138 363.552 187.051C364.109 184.355 365.003 181.729 366.207 179.253C364.989 179.114 363.763 179.048 362.537 179.055C362.24 179.057 361.925 179.068 361.674 179.227C361.108 179.586 361.187 180.424 361.355 181.074ZM217.008 178.955C216.254 179.562 215.812 180.868 216.608 181.418C217.827 180.197 219.046 178.977 220.265 177.756C220.013 177.444 219.647 177.226 219.252 177.153C218.768 177.992 217.762 178.348 217.008 178.955Z" fill="white"/>
<path d="M428.107 170.21C430.712 170.21 432.823 168.099 432.823 165.495C432.823 162.89 430.712 160.779 428.107 160.779C425.503 160.779 423.392 162.89 423.392 165.495C423.392 168.099 425.503 170.21 428.107 170.21Z" fill="#00B140"/>
<path d="M401.101 165.495C402.522 165.495 403.673 164.343 403.673 162.923C403.673 161.502 402.522 160.351 401.101 160.351C399.681 160.351 398.529 161.502 398.529 162.923C398.529 164.343 399.681 165.495 401.101 165.495Z" fill="#00B140"/>
<path fill-rule="evenodd" clip-rule="evenodd" d="M157.555 97.831C165.271 97.8799 172.987 97.9289 180.703 97.9779C181.064 97.9802 181.452 97.9909 181.743 98.2047C182.338 98.6416 182.101 99.6649 181.488 100.077C180.875 100.489 180.081 100.471 179.343 100.445C172.553 100.21 165.742 100.562 159.013 101.498C157.989 101.641 156.91 101.79 155.952 101.401C154.995 101.012 154.263 99.8659 154.703 98.9312C155.164 97.9548 156.475 97.8241 157.555 97.831ZM131.753 97.0733C132.242 97.5607 132.007 98.4554 131.464 98.8815C130.921 99.3075 130.193 99.3928 129.507 99.4624C122.666 100.155 115.826 100.848 108.985 101.54C108.176 101.622 107.34 101.701 106.566 101.452C105.792 101.203 105.092 100.534 105.073 99.7211C105.054 98.8825 105.767 98.1702 106.562 97.9026C107.357 97.635 108.22 97.71 109.057 97.7758C116.066 98.3272 123.142 98.0092 130.074 96.8314C130.654 96.7327 131.336 96.6575 131.753 97.0733ZM130.795 83.9427C131.306 84.3551 131.124 85.2392 130.611 85.6495C130.098 86.0598 129.4 86.1279 128.745 86.1795L106.777 87.9127C105.955 87.9776 105.103 88.0388 104.327 87.7582C103.552 87.4775 102.871 86.7549 102.916 85.9311C102.961 85.0966 103.732 84.4493 104.544 84.2523C105.356 84.0552 106.206 84.2024 107.033 84.3246C114.489 85.4265 122.07 84.4218 129.576 83.7394C129.997 83.7011 130.466 83.6772 130.795 83.9427ZM161.475 79.5903C166.058 80.1758 170.705 80.2649 175.308 79.8554C177.138 79.6926 179.35 79.6162 180.39 81.1308C179.156 82.1284 177.46 82.27 175.876 82.3698C170.627 82.7007 165.378 83.0315 160.129 83.3623C158.932 83.4378 157.44 83.3471 156.947 82.2534C156.504 81.272 157.283 80.0918 158.283 79.6943C159.284 79.2968 160.407 79.4539 161.475 79.5903ZM121.875 73.9784C121.881 74.7712 120.887 75.1133 120.103 75.2282L108.567 76.9191C107.743 77.0398 106.893 77.1592 106.089 76.9445C105.285 76.7298 104.533 76.0901 104.458 75.2613C104.366 74.2467 105.318 73.3904 106.313 73.1693C107.307 72.9482 108.338 73.1795 109.348 73.3097C112.833 73.7586 116.348 72.9928 119.859 72.8722C120.718 72.8427 121.869 73.1187 121.875 73.9784ZM177.538 71.2171C178.431 71.3168 179.347 71.8494 179.585 72.7152C178 73.914 175.905 74.1323 173.926 74.3077C170.537 74.6081 167.148 74.9084 163.76 75.2088C162.566 75.3146 161.372 75.4204 160.178 75.5262C159.305 75.6035 158.398 75.6765 157.578 75.3667C156.758 75.0569 156.058 74.2436 156.18 73.3758C156.372 72.0084 158.167 71.6535 159.548 71.6831C164.67 71.7932 169.857 72.5662 174.875 71.535C175.755 71.3543 176.646 71.1173 177.538 71.2171ZM182.038 58.2821C156.929 61.6677 131.186 59.9145 106.423 65.2706C104.954 65.5882 102.904 65.6039 102.525 64.1501C102.559 62.4371 104.774 61.8188 106.483 61.6969C130.573 59.9789 154.663 58.2609 178.752 56.5428C180.166 56.442 182.149 56.8695 182.038 58.2821Z" fill="black"/>
<path fill-rule="evenodd" clip-rule="evenodd" d="M93.7147 318.553C93.9771 321.59 89.7897 322.619 86.7407 322.631C70.8945 322.694 55.0641 325.634 40.2515 331.263C37.9908 332.122 35.5714 333.204 34.4712 335.358C33.0143 338.21 34.6043 341.859 37.1818 343.76C39.7592 345.66 43.049 346.239 46.2097 346.754C128.366 360.132 211.743 365.996 294.963 364.249L296.301 364.22C305.899 363.998 315.694 363.482 324.487 359.682C317.208 354.58 309.929 349.478 302.65 344.377C315.25 341.86 328.252 343.653 341.039 344.915C370.306 347.804 399.852 347.863 429.13 345.091C427.07 348.385 422.538 348.841 418.653 348.925C381.824 349.718 344.95 348.41 308.27 345.008C313.056 348.158 317.842 351.307 322.627 354.457C324.361 355.598 326.28 357.047 326.38 359.12C326.531 362.236 322.702 363.791 319.624 364.3C309.409 365.988 299.019 366.257 288.667 366.408C207.822 367.59 126.876 361.805 47.0201 349.138C43.1236 348.52 39.0862 347.83 35.8373 345.592C32.5883 343.354 30.3733 339.098 31.7385 335.397C33.0965 331.715 37.2282 329.986 40.9586 328.768C58.0294 323.192 75.7965 319.752 93.7147 318.553ZM202.704 43.6699C202.873 80.8859 203.042 118.102 203.212 155.318C203.252 164.176 204.997 175.385 213.563 177.64C225.4 172.176 238.742 170.017 251.697 171.47C259.114 172.302 266.816 174.544 271.837 180.066C278.724 187.64 278.735 199.047 277.995 209.258C276.496 229.955 273.544 250.547 269.167 270.832C272.645 270.612 276.191 272.008 278.587 274.538C274.897 276.225 270.501 276.296 266.759 274.727C269.33 288.659 257.979 302.404 244.386 306.395C230.793 310.387 216.042 306.623 203.26 300.514C202.062 305.183 208.307 307.926 213.075 308.631C225.178 310.42 237.282 312.208 249.385 313.997C234.438 314.446 219.441 313.223 204.764 310.357C202.061 314.184 208.182 318.049 212.807 318.797C225.075 320.783 237.343 322.768 249.611 324.753C235.755 324.661 221.904 323.737 208.157 321.988C216.9 329.874 228.833 334.115 240.591 333.512C233.959 335.694 226.59 335.563 220.039 333.146C228.234 344.121 245 346.154 257.245 340.016C269.489 333.877 277.484 321.319 281.395 308.192C285.306 295.065 285.686 281.192 286.379 267.513C287.658 242.262 290.103 217.045 294.526 192.152C297.504 175.389 304.821 155.401 321.681 153.033C291.644 151.649 261.578 150.902 231.509 150.794C222.372 150.761 211.022 152.256 207.971 160.868C205.362 161.139 205.944 156.714 207.921 154.99C215.302 148.556 226.057 148.32 235.847 148.42L301.545 149.092C322.764 149.31 348.21 152 357.816 170.921C357.537 165.298 362.634 159.991 368.264 160.043C374.403 160.1 379.538 154.773 381.331 148.901C383.123 143.028 382.332 136.718 381.526 130.631C371.626 121.045 369.034 104.749 375.472 92.5649C377.292 89.1186 379.983 80.9012 395.008 75.612C405.024 72.0859 414.926 72.4736 424.712 76.7751C443.089 73.2215 455.718 74.4828 462.598 80.5593C472.918 89.674 473.116 97.1438 467.177 103.775C473.891 101.15 481.782 105.602 485.145 111.978C488.509 118.355 488.333 125.994 487.321 133.132C484.815 150.809 477.609 167.797 466.641 181.885L465.129 186.34C491.661 193.18 513.124 216.631 517.593 243.663C508.773 223.781 496.831 202.725 476.258 195.666C471.615 200.536 466.842 205.617 464.661 211.982C462.481 218.347 463.659 226.389 469.187 230.223C465.715 231.028 462.243 231.833 458.771 232.638C459.926 234.688 461.082 236.738 462.238 238.788C449.118 248.762 447.609 267.627 447.688 284.108C447.768 300.589 447.467 319.176 435.511 330.519C424.853 340.629 408.587 341.32 393.905 340.854C357.804 339.709 321.813 335.121 286.579 327.173C283.584 326.497 279.79 326.086 278.063 328.625C265.564 347.001 239.428 348.644 217.262 347.044C188.79 344.989 160.481 340.671 132.691 334.144C116.928 330.441 100.189 325.285 90.3687 312.411C78.9207 297.402 80.2427 276.592 82.1003 257.807C70.8136 264.082 57.4332 266.511 44.6609 264.604C58.1242 255.802 64.653 238.963 64.7757 222.878C64.8984 206.793 59.5294 191.203 53.5561 176.267C40.395 183.901 33.4705 199.991 34.5002 215.171C35.5299 230.351 43.5839 244.44 54.3899 255.151C41.069 246.744 32.2545 231.599 31.525 215.864C30.7954 200.129 38.1706 184.233 50.6564 174.63C48.6613 167.807 38.3679 166.973 32.973 171.602C27.5781 176.232 25.885 183.745 24.4973 190.717C21.9331 203.6 19.3584 216.783 21.2214 229.786C23.0845 242.788 30.2669 255.803 42.3025 261.064C36.6779 265.119 29.1864 259.282 25.451 253.441C10.3029 229.753 9.84541 197.465 24.3163 173.357C26.0546 170.461 28.0603 167.607 30.8909 165.764C33.8918 163.81 37.5504 163.168 41.1173 162.852C55.1864 161.606 69.6214 164.89 81.7667 172.1C81.6582 132.626 81.5498 93.1513 81.4413 53.6771C81.4351 51.4166 81.4666 49.0179 82.6718 47.1054C84.4149 44.3392 87.9857 43.4818 91.1998 42.8818C120.437 37.4239 150.006 33.743 179.688 31.8661C189.387 31.2528 202.66 33.952 202.704 43.6699ZM182.88 34.2444C151.409 35.7258 120.052 39.6161 89.1737 45.8701C87.8595 46.1363 86.4679 46.4471 85.5127 47.3881C84.2115 48.6698 84.1109 50.7008 84.0937 52.5272C83.725 91.8327 83.8809 131.143 84.5614 170.445C88.3403 169.502 92.1191 168.56 95.8979 167.618C94.4208 159.553 92.9373 151.38 93.5689 143.205C94.2005 135.031 97.2003 126.718 103.37 121.318C110.048 115.475 119.367 113.824 128.219 113.202C136.731 112.605 145.295 112.743 153.783 113.616C162.448 114.506 171.576 116.43 177.827 122.496C186.858 131.259 187.004 145.455 186.536 158.029C185.295 191.408 184.054 224.787 182.813 258.166C182.522 266.002 182.213 273.942 179.907 281.436C177.601 288.93 173.024 296.053 166.1 299.73C159.304 303.339 151.173 303.237 143.529 302.368C136.23 301.538 129.001 300.091 121.946 298.047C117.66 296.806 113.372 295.311 109.729 292.733C97.6766 284.204 96.2516 267.184 95.9589 252.422C91.3309 251.586 86.8067 255.109 84.8958 259.406C82.985 263.703 83.0696 268.585 83.1883 273.286C83.4844 285.014 83.9414 297.326 89.9279 307.414C99.1646 322.98 118.566 328.73 136.28 332.447C167.721 339.044 199.643 343.346 231.709 345.308C217.398 338.02 204.711 325.545 201.692 309.771C200.872 305.487 200.784 301.1 200.699 296.738C199.028 211.452 197.357 126.166 195.687 40.8792C195.581 35.4857 188.268 33.9907 182.88 34.2444ZM304.876 174.268C304.08 176.21 303.502 178.364 304.032 180.394C304.562 182.424 306.534 184.197 308.604 183.852C317.874 182.308 327.867 186.874 332.767 194.893C336.811 201.51 337.372 209.605 337.828 217.346L341.974 287.857C342.417 295.392 342.636 303.684 337.952 309.604C331.876 317.284 320.467 317.54 310.72 316.587C302.678 315.8 294.218 314.462 287.974 309.333C288.195 312.318 287.325 315.373 285.563 317.793C283.389 320.781 286.899 324.713 290.314 326.126C294.484 327.851 299.019 328.452 303.495 329.033C323.995 331.694 344.507 334.26 365.031 336.731C380.829 338.633 396.879 340.474 412.584 337.922C402.649 335.134 393.141 330.825 384.495 325.191C380.182 322.38 376.011 319.169 373.069 314.944C368.266 308.047 367.254 299.283 366.455 290.916C364.079 266.038 362.311 241.102 361.152 216.138C360.297 197.724 354.392 179.571 344.252 164.177C342.439 161.425 340.221 158.568 337.015 157.802C324.269 154.755 309.849 162.143 304.876 174.268ZM246.431 333.612C247.513 333.795 248.622 334.038 249.513 334.677C250.405 335.316 251.026 336.451 250.752 337.513C250.477 338.575 249.076 339.273 248.191 338.626C247.214 337.912 245.914 337.887 244.75 337.558C243.585 337.229 242.365 336.262 242.574 335.07C242.839 333.559 244.919 333.355 246.431 333.612ZM201.543 334.06C202.885 334.339 204.455 335.295 204.18 336.638C203.938 337.821 202.473 338.216 201.276 338.376C199.933 338.555 198.501 338.721 197.282 338.131C196.063 337.541 195.273 335.876 196.072 334.783C196.611 334.046 197.621 333.85 198.533 333.813C199.542 333.772 200.555 333.855 201.543 334.06ZM281.796 319.142C280.524 320.06 279.649 321.413 278.751 322.701C274.655 328.568 269.464 333.669 263.526 337.661C263.674 338.291 264.618 338.131 265.178 337.807C272.054 333.823 276.961 327.241 281.671 320.84C282.056 320.317 282.374 319.44 281.796 319.142ZM343.282 160.626C346.951 164.957 350.648 169.33 353.331 174.333C356.241 179.756 357.876 185.765 359.192 191.777C366.553 225.408 364.589 260.373 369.36 294.468C370.221 300.62 371.359 306.903 374.56 312.227C378.31 318.464 384.533 322.787 390.874 326.36C396.002 329.249 401.355 331.787 406.986 333.498C415.942 336.22 426.7 336.41 433.565 330.048C437.42 326.475 439.448 321.377 441.032 316.365C447.821 294.884 448.567 271.528 443.164 249.657C443.3 262.738 444.998 275.788 444.61 288.863C444.221 301.939 441.537 315.403 433.851 325.988C432.328 328.085 430.563 330.097 428.262 331.289C425.232 332.859 421.632 332.829 418.244 332.415C412.327 331.692 406.542 329.904 401.248 327.163C397.228 325.08 393.508 322.464 389.904 319.723C385.714 316.537 381.601 313.105 378.665 308.736C375.756 304.406 374.134 299.348 372.848 294.292C363.456 257.378 370.171 217.559 359.027 181.135C356.4 172.551 351.838 163.341 343.282 160.626ZM119.22 323.023C140.902 326.369 162.584 329.716 184.265 333.062C183.716 334.497 181.734 334.547 180.211 334.343C161.669 331.866 143.126 329.389 124.584 326.912C122.487 326.632 120.391 326.352 118.295 326.072C117.3 325.939 116.065 325.579 115.939 324.583C115.762 323.18 117.822 322.807 119.22 323.023ZM370.737 195.62C366.158 200.716 366.488 208.406 367.088 215.231C368.401 230.17 369.713 245.109 371.026 260.048C371.088 260.747 371.163 261.483 371.572 262.053C372.243 262.984 373.54 263.146 374.685 263.227C390.273 264.325 405.861 265.424 421.449 266.522C420.284 268.364 417.656 268.392 415.483 268.224C400.807 267.091 386.073 266.724 371.359 267.125C371.105 274.67 372.217 282.26 374.625 289.415C375.669 292.516 379.687 293.177 382.957 293.309C395.425 293.814 407.894 294.319 420.362 294.824C420.936 296.115 418.921 296.922 417.508 296.906C404.692 296.759 391.876 296.611 379.059 296.464C377.304 296.444 376.669 298.931 377.33 300.557C379.059 304.807 384.563 305.722 389.143 306.009L417.797 307.803C418.451 307.844 418.587 308.872 418.109 309.321C417.631 309.769 416.904 309.782 416.248 309.768L382.7 309.056C391.374 319.38 403.541 326.716 416.72 329.569C419.559 330.184 422.57 330.587 425.329 329.677C428.631 328.587 431.065 325.783 432.971 322.876C443.079 307.454 442.407 287.612 441.374 269.202L440.203 248.335C440.612 247.772 441.452 247.577 442.067 247.902C442.304 246.88 440.973 246.273 439.941 246.083C417.137 241.894 393.737 237.699 370.916 241.79C370.186 241.491 370.194 240.355 370.748 239.795C371.303 239.234 372.144 239.098 372.925 238.991C376.045 238.561 379.165 238.132 382.284 237.703C375.125 234.47 370.785 226.789 369.489 219.041C368.193 211.293 369.459 203.371 370.737 195.62ZM258.661 322.475C260.692 322.853 263.037 323.474 263.83 325.381C261.569 326.923 258.599 326.764 255.871 326.546C255.12 326.486 254.3 326.395 253.773 325.858C252.84 324.907 253.536 323.155 254.737 322.577C255.937 321.999 257.351 322.231 258.661 322.475ZM103.971 308.535C127.33 315.875 151.537 320.516 175.954 322.335C177.849 322.476 180.394 323.379 180.031 325.243C154.206 322.322 128.54 318.006 103.181 312.319C101.563 311.956 99.4866 310.803 100.089 309.258C100.619 307.9 102.58 308.098 103.971 308.535ZM189.53 319.864C190.723 319.861 191.875 320.27 192.989 320.694C193.556 320.91 194.18 321.188 194.4 321.754C194.869 322.959 193.207 323.82 191.934 324.051C191.078 324.207 190.222 324.362 189.365 324.517C188.643 324.649 187.865 324.773 187.2 324.462C186.12 323.956 185.84 322.397 186.459 321.378C187.079 320.358 188.337 319.867 189.53 319.864ZM299.529 317.289C309.862 319.254 320.445 319.366 330.963 319.471C331.777 319.479 331.996 320.759 331.415 321.329C330.834 321.899 329.926 321.924 329.112 321.908C319.294 321.715 309.463 320.68 299.674 321.452C298.608 321.536 297.501 321.636 296.501 321.261C295.5 320.886 294.646 319.875 294.836 318.823C295 317.916 295.884 317.281 296.789 317.105C297.693 316.93 298.624 317.117 299.529 317.289ZM322.872 155.307C311.173 157.054 301.344 167.466 300.274 179.247C299.276 190.249 296.238 200.949 294.077 211.783C287.134 246.575 289.24 282.633 283.103 317.576C285.344 313.494 285.949 308.742 286.514 304.119L301.397 182.233C301.793 178.99 302.198 175.709 303.363 172.657C306.547 164.314 314.776 159.074 322.872 155.307ZM269.678 313.169C270.315 313.372 270.968 313.637 271.393 314.154C271.818 314.67 271.925 315.504 271.46 315.986C271.11 316.349 270.561 316.414 270.059 316.459C268.415 316.604 266.77 316.749 265.126 316.894C264.238 316.973 263.321 317.048 262.475 316.768C261.629 316.488 260.866 315.754 260.842 314.864C260.8 313.355 262.662 312.597 264.168 312.498C266.025 312.377 267.904 312.605 269.678 313.169ZM304.308 186.987C302.947 187.476 302.584 189.195 302.429 190.633L297.296 238.443C296.992 241.275 300.648 243.082 303.408 242.381C306.168 241.679 308.275 239.523 310.662 237.969C313.048 236.415 316.413 235.521 318.604 237.34C321.081 239.395 324.747 237.112 326.899 234.718C329.05 232.324 331.852 229.438 334.912 230.437C331.323 233.87 327.733 237.303 324.144 240.737C322.954 241.875 321.904 244.15 323.408 244.822C327.532 243.359 331.26 240.796 334.103 237.469C335.417 237.427 335.479 239.491 334.746 240.582C331.982 244.695 325.478 245.61 323.804 250.273C319.895 261.157 307.706 268.386 296.281 266.596C293.937 266.229 292.769 269.312 292.487 271.667C291.362 281.058 290.237 290.449 289.113 299.841C288.854 302.001 288.613 304.286 289.502 306.272C290.986 309.585 294.956 310.839 298.475 311.731C305.086 313.405 311.805 315.092 318.621 314.851C325.436 314.611 332.483 312.174 336.799 306.894C335.604 305.342 332.942 307.331 331.201 306.434C329.498 305.555 330.403 302.63 332.231 302.055C334.059 301.48 335.988 302.394 337.686 303.283C338.753 301.202 339.849 298.975 339.63 296.647C339.411 294.319 337.274 292.017 334.995 292.54C333.497 292.884 332.887 290.288 334.095 289.338C335.302 288.388 337.037 288.696 338.532 289.051C338.615 283.433 338.698 277.815 338.781 272.196C338.798 271.05 338.801 269.846 338.258 268.836C337.714 267.826 336.425 267.119 335.392 267.617C333.984 268.296 332.764 265.898 333.706 264.651C334.648 263.404 336.427 263.243 337.989 263.188C338.109 258.199 337.787 253.198 337.026 248.265C331.145 251.212 330.117 258.987 329.524 265.538C328.386 278.102 326.098 290.56 322.697 302.708C321.935 305.429 321.077 308.212 319.297 310.406C317.516 312.601 314.582 314.091 311.848 313.378C312.461 311.382 314.55 310.311 316.079 308.889C318.832 306.331 319.854 302.463 320.752 298.814C323.855 286.204 326.977 273.439 326.938 260.453L326.933 259.582C326.912 257.109 326.886 254.601 327.701 252.279C328.612 249.682 330.895 247.335 333.646 247.321C336.547 247.307 337.24 243.283 336.981 240.393C336.087 230.43 335.192 220.467 334.298 210.503C334.012 207.321 333.721 204.109 332.755 201.064C329.185 189.804 315.426 182.995 304.308 186.987ZM348.086 308.501C349.449 308.868 350.773 310.27 350.206 311.563C349.665 312.798 347.966 312.866 346.623 312.739C345.966 312.677 345.267 312.598 344.754 312.183C343.855 311.456 343.982 309.914 344.824 309.122C345.666 308.329 346.969 308.202 348.086 308.501ZM184.223 307.12C185.12 307.315 186.055 307.576 186.699 308.229C187.344 308.882 187.558 310.046 186.917 310.703C186.393 311.24 185.548 311.25 184.798 311.223C183.721 311.186 182.643 311.148 181.566 311.11C180.942 311.088 180.275 311.052 179.774 310.679C178.703 309.883 179.173 308.018 180.322 307.341C181.472 306.664 182.919 306.838 184.223 307.12ZM101.191 297.344C107.223 300.149 113.851 301.373 120.406 302.515C133.674 304.826 146.982 306.908 160.322 308.759C162.189 309.018 164.256 309.385 165.394 310.887C160.228 311.241 155.065 310.38 149.958 309.523C133.125 306.696 116.291 303.869 99.4576 301.042C97.6931 300.746 95.4149 299.766 95.7586 298.01C96.1659 295.929 99.2675 296.45 101.191 297.344ZM205.938 237.719C205.352 240.07 205.464 242.531 205.544 244.953C206.043 260.072 205.146 275.237 202.868 290.192C202.324 293.757 204.454 297.321 207.382 299.426C210.31 301.532 213.916 302.436 217.457 303.118C225.44 304.656 233.597 305.286 241.721 304.994C244.811 304.882 248.028 304.597 250.67 302.992C253.172 301.472 254.868 298.943 256.361 296.425C262.696 285.743 266.851 273.774 268.495 261.464C245.707 261.361 223.055 252.763 205.938 237.719ZM265.539 297.663C267.095 298.177 268.651 298.69 270.207 299.203C270.726 299.375 271.282 299.573 271.59 300.025C272.11 300.788 271.605 301.904 270.8 302.356C269.995 302.809 269.018 302.785 268.096 302.748C266.416 302.681 264.561 302.54 263.388 301.335C262.216 300.131 262.618 297.532 264.295 297.423C264.719 297.395 265.135 297.53 265.539 297.663ZM347.096 297.889C348.022 298.037 348.998 298.207 349.711 298.815C350.425 299.423 350.717 300.627 350.06 301.295C349.795 301.564 349.428 301.702 349.071 301.827C347.694 302.306 346.164 302.689 344.802 302.167C343.44 301.645 342.512 299.844 343.368 298.664C344.155 297.579 345.773 297.677 347.096 297.889ZM105.201 247.554C104.242 248.008 103.216 248.527 102.742 249.476C102.389 250.184 102.408 251.012 102.434 251.803C102.792 262.575 103.244 273.732 108.062 283.373C109.363 285.977 111.018 288.482 113.36 290.209C114.78 291.255 116.404 291.981 118.015 292.699C120.81 293.943 123.612 295.188 126.514 296.16C133.161 298.386 140.196 299.14 147.167 299.881C150.123 300.195 153.271 300.476 155.923 299.133C159.044 297.552 160.708 294.125 162.05 290.894C169.537 272.873 173.812 253.523 174.613 234.025C174.727 231.255 171.18 230.032 168.413 229.846C146.327 228.364 125.204 238.072 105.201 247.554ZM178.043 233.244C177.476 233.989 177.406 234.986 177.35 235.921C176.028 257.971 170.54 279.764 161.261 299.81C170.102 295.336 176.689 286.648 178.609 276.927C179.27 273.585 179.405 270.165 179.538 266.761C179.958 256.028 180.379 245.294 180.799 234.561C180.821 233.995 180.825 233.373 180.465 232.936C179.87 232.213 178.61 232.498 178.043 233.244ZM181.705 286.95C182.826 287.011 183.881 287.477 184.971 287.748C185.948 287.991 186.242 289.381 185.697 290.227C185.152 291.073 184.101 291.441 183.105 291.581C182.064 291.727 180.946 291.672 180.051 291.121C179.156 290.571 178.576 289.421 178.933 288.433C179.315 287.377 180.583 286.889 181.705 286.95ZM347.74 284.035C348.788 284.252 349.688 284.902 350.552 285.535C351.02 285.879 351.519 286.265 351.672 286.826C351.868 287.541 351.396 288.312 350.745 288.669C350.095 289.026 349.315 289.051 348.575 288.992C347.524 288.908 346.438 288.648 345.645 287.953C344.852 287.258 344.449 286.038 344.943 285.107C345.445 284.161 346.691 283.818 347.74 284.035ZM98.2103 250.69C97.9234 251.202 97.9813 251.829 98.0475 252.411L99.606 266.133C100.452 273.58 101.559 281.605 106.764 286.997C107.632 286.585 107.142 285.28 106.595 284.491C102.379 278.407 101.567 270.671 100.883 263.3C100.483 258.98 100.082 254.66 99.6809 250.34C99.2779 249.914 98.4972 250.179 98.2103 250.69ZM375.752 278.798C390.051 279.151 404.35 279.504 418.65 279.857C420.839 279.911 423.034 279.966 425.199 280.291C424.747 281.855 422.691 282.149 421.064 282.133C406.724 281.998 392.337 281.111 378.074 282.601C376.855 282.729 375.539 282.854 374.48 282.235C373.422 281.616 372.948 279.917 373.921 279.171C374.425 278.784 375.116 278.783 375.752 278.798ZM336.464 275.989C336.779 276.092 337.101 276.201 337.358 276.41C338.212 277.106 337.894 278.593 337.02 279.264C336.146 279.935 334.967 280.012 333.866 280.039C332.719 280.068 331.381 279.977 330.728 279.034C329.907 277.85 330.883 276.099 332.24 275.619C333.598 275.139 335.095 275.541 336.464 275.989ZM346.919 273.099C348.252 273.243 349.55 273.711 350.669 274.45C351.524 275.015 351.354 276.435 350.575 277.102C349.797 277.769 348.686 277.862 347.662 277.825C346.626 277.788 345.545 277.63 344.707 277.02C343.869 276.41 343.37 275.232 343.819 274.298C344.332 273.232 345.743 272.972 346.919 273.099ZM202.867 240.466C202.088 251.689 201.739 262.942 201.821 274.192C201.825 274.667 202.148 275.343 202.555 275.095C203.416 265.639 203.838 256.143 203.821 246.648C203.817 244.545 203.774 242.364 202.867 240.466ZM187.581 269.257C188.808 269.35 189.89 270.063 190.89 270.78C191.198 271.001 191.515 271.236 191.687 271.574C192.044 272.273 191.616 273.172 190.946 273.581C190.277 273.99 189.447 274.022 188.663 273.986C186.88 273.903 184.639 272.932 184.838 271.158C184.975 269.936 186.354 269.165 187.581 269.257ZM349.889 261.697C351.083 262.188 352.312 263.467 351.695 264.601C351.278 265.368 350.26 265.535 349.386 265.543C348.372 265.553 347.357 265.471 346.357 265.296C344.951 265.051 344.736 262.84 345.827 261.92C346.919 261.001 348.569 261.155 349.889 261.697ZM489.035 239.737C489.528 240.561 489.536 241.575 489.53 242.535C489.488 249.326 489.447 256.117 489.405 262.909C489.4 263.733 489.289 264.733 488.54 265.079C487.893 265.378 487.096 264.958 486.736 264.343C486.376 263.728 486.344 262.981 486.331 262.268C486.227 256.205 486.903 249.998 485.186 244.182C484.675 242.454 484.064 240.295 485.399 239.085C486.442 238.139 488.313 238.529 489.035 239.737ZM314.435 238.951C309.287 242.145 303.872 245.429 297.829 245.865C296.729 245.944 296.235 247.257 296.018 248.338C295.042 253.199 294.503 258.148 294.411 263.106C294.405 263.409 294.408 263.735 294.583 263.982C294.862 264.376 295.43 264.392 295.911 264.367C300.625 264.12 305.404 263.628 309.782 261.863C314.16 260.098 318.143 256.901 319.927 252.53C321.711 248.16 320.853 242.586 317.21 239.585C316.426 238.939 315.297 238.416 314.435 238.951ZM275.024 258.067C276.678 258.501 278.332 258.936 279.986 259.37C280.604 259.532 281.291 259.748 281.586 260.314C281.934 260.982 281.529 261.842 280.9 262.255C280.27 262.667 279.486 262.745 278.736 262.811C277.548 262.917 276.323 263.02 275.182 262.668C274.042 262.317 272.991 261.397 272.861 260.21C272.73 259.024 273.869 257.764 275.024 258.067ZM45.5885 167.566C51.7787 170.073 56.438 175.496 59.3278 181.517C62.2177 187.538 63.5336 194.177 64.6804 200.756C66.5785 211.646 68.09 222.761 66.706 233.728C65.322 244.695 60.7377 255.63 52.239 262.698C58.4297 263.029 65.8214 262.784 69.1823 257.574C70.6905 255.236 73.9367 254.202 76.5196 255.235C74.8957 253.831 76.1215 251.218 77.3267 249.441C82.2647 242.163 85.6528 233.798 86.8635 225.087C89.2111 208.195 83.3088 191.076 74.551 176.442C68.8688 166.948 55.6147 162.886 45.5885 167.566ZM192.362 255.067C193.639 255.57 193.341 257.681 192.148 258.359C190.954 259.037 189.466 258.732 188.135 258.394C187.515 258.236 186.856 258.051 186.435 257.569C185.452 256.444 186.58 254.541 188.037 254.205C189.493 253.87 190.971 254.52 192.362 255.067ZM238.284 173.784C232.818 173.881 227.081 174.547 222.619 177.705C221.144 178.75 219.804 180.117 219.265 181.842C218.726 183.568 219.18 185.688 220.676 186.701C224.46 189.263 226.002 194.057 226.711 198.571C227.419 203.084 227.59 207.811 229.647 211.891C230.707 213.995 232.228 215.83 233.823 217.564C242.472 226.968 253.752 233.924 266.037 237.429C268.197 238.046 270.945 239.38 270.488 241.579C252.814 237.872 236.697 227.206 226.377 212.387C223.241 222.018 217.055 230.631 208.93 236.68C224.779 250.167 245.289 258.069 266.09 258.702C267.032 258.731 268.099 258.695 268.734 257.999C269.151 257.543 269.281 256.902 269.394 256.295C272.338 240.462 274.413 224.468 275.606 208.408C276.015 202.914 276.314 197.328 275.126 191.949C273.938 186.569 271.073 181.339 266.388 178.44C263.502 176.653 260.123 175.852 256.781 175.255C250.682 174.167 244.478 173.674 238.284 173.784ZM346.882 250.837C348.315 250.838 350.123 251.257 350.374 252.667C350.625 254.073 349.023 255.121 347.607 255.301C346.57 255.434 345.444 255.308 344.622 254.663C343.799 254.019 343.417 252.756 343.988 251.881C344.574 250.984 345.811 250.836 346.882 250.837ZM452.767 222.603C450.136 232.793 448.601 243.228 447.071 253.639C446.995 254.157 446.951 254.77 447.341 255.118C451.442 250.024 455.203 244.658 458.592 239.066C458.927 238.514 459.256 237.792 458.88 237.267C458.031 236.08 457.182 234.892 456.333 233.705C455.702 232.824 455.053 231.663 455.607 230.732C456.058 229.975 457.066 229.815 457.944 229.735L465.147 229.071C465.069 228.625 464.797 228.24 464.533 227.872C462.604 225.189 460.501 222.366 457.413 221.189C455.701 220.536 453.225 220.83 452.767 222.603ZM119.151 117.197C113.885 118.081 108.182 119.604 105.126 123.982C103.416 126.433 102.787 129.459 102.284 132.405C100.308 143.992 99.6906 155.811 100.449 167.541C123.15 156.979 149.71 154.973 173.74 162.005C175.778 162.601 178.3 164.409 177.23 166.243C159.205 159.576 139.127 158.581 120.531 163.435C114.514 165.006 108.666 167.165 102.683 168.862C93.7916 171.383 84.6083 172.873 75.3758 173.294C92.1905 196.124 94.3664 228.815 80.7258 253.672C89.2127 252.066 97.1872 248.499 105.012 244.843C116.696 239.383 128.329 233.625 140.74 230.12C153.151 226.615 166.569 225.469 178.88 229.312C180.32 229.761 181.113 227.683 181.171 226.175L183.839 156.284C184.243 145.696 184.277 133.989 177.345 125.976C171.212 118.885 161.209 116.667 151.867 115.869C140.964 114.938 129.943 115.386 119.151 117.197ZM281.787 246.919C282.132 247.144 282.488 247.428 282.568 247.831C282.732 248.65 281.735 249.172 280.931 249.4C279.764 249.731 278.562 250.062 277.355 249.935C276.149 249.809 274.922 249.115 274.525 247.969C274.129 246.822 274.926 245.318 276.138 245.295C278.127 245.259 280.122 245.832 281.787 246.919ZM453.014 202.94C448.623 205.402 443.376 206.302 438.416 205.443C439.05 207.212 441.832 207.83 441.846 209.709C441.854 210.854 440.776 211.66 440.163 212.626C439.692 213.37 439.487 214.248 439.299 215.108C437.532 223.201 436.517 231.458 436.273 239.738C436.231 241.165 436.585 243.049 438.004 243.205C440.943 243.527 443.711 245.175 445.395 247.605C446.775 238.923 448.154 230.242 449.534 221.56C449.854 219.546 450.123 217.296 448.943 215.632C447.318 213.344 448.732 210.209 450.156 207.79L453.014 202.94ZM191.555 240.464C193.054 240.763 194.759 242.057 194.191 243.476C193.841 244.351 192.785 244.704 191.845 244.754C190.904 244.804 189.926 244.665 189.045 244.999C188.009 245.391 186.789 244.474 186.663 243.373C186.536 242.272 187.301 241.203 188.299 240.719C189.296 240.235 190.468 240.247 191.555 240.464ZM346.864 239.123C347.809 239.254 348.805 239.462 349.493 240.123C350.18 240.784 350.37 242.042 349.638 242.654C349.396 242.856 349.09 242.963 348.792 243.064C347.494 243.508 346.105 243.942 344.774 243.613C343.442 243.284 342.285 241.871 342.745 240.579C343.276 239.089 345.297 238.907 346.864 239.123ZM432.874 221.276C431.874 221.517 431.144 222.352 430.484 223.142L426.511 227.9C425.735 228.83 427.101 230.126 428.308 230.227C429.516 230.328 430.926 230.044 431.785 230.898C432.685 231.793 432.314 233.354 431.577 234.387C430.84 235.42 429.795 236.264 429.349 237.453C428.683 239.229 429.785 241.456 431.602 242.003C432.589 242.3 433.973 241.843 433.982 240.812C434.033 234.789 434.385 228.768 435.036 222.78C435.147 221.757 433.874 221.035 432.874 221.276ZM231.259 224.267C232.02 224.773 232.513 225.582 233.02 226.342C237.38 232.87 244.67 237.356 252.462 238.304C254.264 238.524 256.391 238.743 257.294 240.317C255.596 241.999 252.83 241.794 250.503 241.252C242.254 239.333 234.695 234.567 229.407 227.951C228.564 226.896 227.794 225.291 228.735 224.322C229.371 223.666 230.498 223.761 231.259 224.267ZM428.59 195.424C422.764 196.856 416.947 198.876 412.225 202.576C407.504 206.277 403.992 211.899 404.029 217.898C404.076 225.505 400.338 233.044 394.255 237.612L404.498 238.817C405.697 238.958 407.041 239.06 407.98 238.301C409.354 237.191 409.002 235.058 408.655 233.326C408.308 231.594 408.385 229.305 410.033 228.668C412.079 227.877 413.772 230.716 413.462 232.888C413.152 235.059 411.892 237.149 412.286 239.307C417.137 239.995 422.003 240.575 426.88 241.046C425.91 240.25 425.804 238.741 426.295 237.586C426.785 236.43 427.739 235.546 428.665 234.699C429.652 233.797 428.229 232.207 426.9 232.064C425.571 231.921 424.006 232.24 423.069 231.287C421.904 230.101 422.778 228.113 423.772 226.78C425.701 224.193 428.093 221.076 426.851 218.098C423.823 210.835 424.49 202.14 428.59 195.424ZM205.184 175.581C204.372 195.462 204.483 215.38 205.517 235.251C213.111 231.13 218.66 223.879 222.101 215.954C224.201 211.118 225.606 205.789 224.767 200.585C224.141 196.704 222.304 193.119 220.167 189.819C216.377 183.965 211.43 178.681 205.184 175.581ZM381.282 166.055C384.01 165.553 386.094 168.92 385.63 171.654C385.165 174.388 383.178 176.562 381.598 178.841C379.416 181.991 377.924 185.557 376.448 189.093C372.936 197.506 371.568 206.805 372.511 215.873C373.065 221.211 374.528 226.695 378.138 230.668C381.748 234.64 387.936 236.626 392.693 234.14C396.778 232.004 398.817 227.297 399.754 222.783C400.69 218.269 400.857 213.544 402.628 209.288C405.893 201.435 413.946 196.691 421.913 193.712C409.937 192.085 399.102 183.741 394.47 172.579C393.142 169.378 392.145 165.769 389.389 163.667C386.633 161.565 381.444 162.594 381.282 166.055ZM280.058 230.099C280.9 230.261 281.726 230.506 282.521 230.829C283.832 231.362 285.24 232.837 284.396 233.973C283.936 234.594 283.051 234.669 282.278 234.689C280.869 234.725 279.349 234.729 278.198 233.915C277.047 233.101 276.648 231.132 277.809 230.332C278.447 229.893 279.297 229.953 280.058 230.099ZM343.545 226.743C344.686 226.84 345.821 226.998 346.944 227.217C347.5 227.325 348.099 227.476 348.449 227.922C348.978 228.597 348.645 229.656 347.975 230.193C347.305 230.729 346.415 230.88 345.567 231.013C344.272 231.216 342.89 231.408 341.695 230.869C340.5 230.329 339.684 228.75 340.415 227.661C341.052 226.712 342.406 226.647 343.545 226.743ZM17.6145 220.611C16.6489 220.6 16.3148 221.889 16.3441 222.855C16.4283 225.629 16.9898 228.387 17.9965 230.974C18.2768 231.26 18.6022 230.663 18.563 230.265L17.6145 220.611ZM203.176 227.753C202.574 228.079 202.344 228.945 202.706 229.528L202.72 229.549L202.708 229.563C202.691 229.583 202.674 229.606 202.656 229.633C202.413 230 202.753 230.582 203.192 230.552C203.488 229.65 203.483 228.651 203.176 227.753ZM190.625 223.826C191.932 224.116 193.35 225.2 193.025 226.498C192.81 227.358 191.905 227.863 191.039 228.055C190.173 228.248 189.258 228.235 188.432 228.556C187.38 228.965 186.114 228.117 185.898 227.01C185.681 225.903 186.359 224.747 187.338 224.186C188.316 223.625 189.524 223.583 190.625 223.826ZM198.187 40.7003C198.263 100.549 199.638 160.395 202.311 220.184L202.592 226.366L202.634 224.377C202.711 219.73 202.643 215.081 202.575 210.433C201.777 155.956 200.979 101.479 200.182 47.0024C200.148 44.7215 199.969 42.1253 198.187 40.7003ZM283.789 215.075C284.522 215.294 285.257 215.627 285.733 216.227C286.209 216.826 286.345 217.747 285.874 218.351C285.419 218.935 284.594 219.046 283.856 219.112L280.707 219.391C280.192 219.437 279.639 219.475 279.192 219.216C278.83 219.007 278.591 218.626 278.481 218.223C278.151 217.011 278.97 215.695 280.105 215.154C281.24 214.614 282.585 214.715 283.789 215.075ZM30.1591 168.227C26.8854 171.443 25.1827 175.89 23.6094 180.201C19.2256 192.215 15.0597 204.967 17.2227 217.571C17.8915 217.694 18.2103 216.784 18.2599 216.106C19.1492 203.946 21.5791 191.899 25.4733 180.345C26.9591 175.937 28.7462 171.46 32.0468 168.182C32.0017 167.383 30.7296 167.666 30.1591 168.227ZM432.617 194.508C432.046 194.648 431.676 195.187 431.378 195.693C428.561 200.473 427.235 206.118 427.628 211.653C427.791 213.938 428.526 216.57 430.66 217.403C432.395 215.737 434.13 214.072 435.865 212.406C436.141 212.141 436.423 211.867 436.575 211.517C436.956 210.64 436.412 209.662 435.911 208.848C433.439 204.824 431.582 199.724 433.642 195.475C433.898 194.946 433.188 194.367 432.617 194.508ZM468.671 189.35C468.394 189.494 468.181 189.733 467.974 189.967C462.852 195.76 457.905 201.708 453.142 207.8C452.147 209.072 451.109 210.507 451.207 212.119C451.294 213.552 452.302 214.8 453.524 215.554C454.745 216.308 456.169 216.651 457.566 216.984C457.939 217.073 458.345 217.159 458.696 217.004C459.02 216.861 459.225 216.544 459.411 216.243C462.327 211.542 465.284 206.747 466.661 201.389C466.955 200.246 467.945 199.448 468.737 198.574C470.293 196.856 471.204 194.568 471.256 192.25C471.274 191.466 471.182 190.638 470.728 189.998C470.274 189.358 469.367 188.987 468.671 189.35ZM343.924 212.281C344.63 212.456 345.408 212.724 345.725 213.378C346.282 214.532 344.973 215.735 343.749 216.113C342.8 216.407 341.743 216.509 340.832 216.111C339.922 215.713 339.231 214.709 339.438 213.738C339.804 212.013 342.213 211.857 343.924 212.281ZM191.793 209.763C192.126 210.061 192.435 210.412 192.562 210.841C192.816 211.705 192.213 212.657 191.386 213.012C190.559 213.367 189.593 213.229 188.76 212.89C187.882 212.532 187.027 211.847 186.915 210.906C186.788 209.83 187.763 208.839 188.836 208.684C189.908 208.528 190.986 209.039 191.793 209.763ZM286.722 200.299C287.578 200.648 287.667 201.943 287.077 202.654C286.487 203.365 285.502 203.602 284.581 203.68C283.66 203.757 282.708 203.723 281.847 204.06C280.525 204.578 279.086 202.98 279.401 201.596C279.716 200.211 281.203 199.351 282.622 199.284C284.04 199.218 285.407 199.764 286.722 200.299ZM342.457 198.217C343.67 198.276 344.871 198.595 345.954 199.145C346.424 199.384 346.909 199.714 347.043 200.224C347.319 201.274 346.001 201.995 344.935 202.199C343.99 202.381 343.031 202.489 342.07 202.522C340.883 202.563 339.451 202.335 338.978 201.245C338.61 200.399 339.058 199.361 339.81 198.826C340.562 198.291 341.535 198.172 342.457 198.217ZM420.696 120.706C413.615 121.849 406.504 122.796 399.371 123.545C394.205 124.089 389.338 127.02 386.443 131.333C385.848 132.219 385.438 133.633 386.357 134.176C388.957 131.177 392.486 128.995 396.33 128.009C397.704 127.657 399.209 127.464 400.504 128.042C401.8 128.619 402.726 130.209 402.14 131.5C401.24 133.484 398.368 132.929 396.193 132.797C390.147 132.428 384.917 139.348 386.923 145.065C388.331 139.608 396.121 137.239 400.488 140.801C404.855 144.364 404.321 152.188 399.651 155.341C398.107 156.384 396.125 157.11 395.421 158.834C394.817 160.312 395.398 161.981 395.978 163.469C396.887 165.804 397.796 168.14 398.705 170.475C400.611 175.37 402.637 180.445 406.495 184.011C409.461 186.753 413.309 188.385 417.234 189.341C431.385 192.79 447.316 187.301 456.34 175.867C457.063 174.951 458.713 175.82 458.842 176.98C458.971 178.14 458.178 179.183 457.393 180.047C453.353 184.494 448.26 187.979 442.652 190.134C440.001 191.153 436.85 192.255 436.035 194.975C435.36 197.228 436.78 199.718 438.819 200.89C440.858 202.063 443.343 202.162 445.681 201.906C450.343 201.396 454.855 199.571 458.561 196.696C459.684 195.825 460.772 194.806 461.271 193.475C461.744 192.214 461.636 190.82 461.521 189.478L461.422 188.325C460.984 183.323 460.418 178.262 458.379 173.688C457.398 171.488 456.085 169.426 455.363 167.128C454.473 164.293 454.526 161.253 453.928 158.343C453.329 155.433 451.813 152.41 449.043 151.337C449.774 149.478 451.6 148.308 452.783 146.697C453.965 145.086 454.139 142.272 452.278 141.545C451.387 141.196 450.374 141.496 449.526 141.937C445.952 143.793 444.023 148.336 445.171 152.197C445.919 154.717 441.939 156.407 439.796 154.885C437.652 153.363 437.124 150.465 436.702 147.87C435.063 137.813 431.775 126.971 423.186 121.489C422.435 121.01 421.575 120.564 420.696 120.706ZM191.043 192.045C192.172 192.411 193.298 193.426 193.063 194.589C192.841 195.689 191.575 196.205 190.468 196.394C188.899 196.662 186.853 196.355 186.412 194.825C185.992 193.369 187.516 191.975 189.022 191.815C189.701 191.743 190.393 191.834 191.043 192.045ZM372.143 171.097C371.091 172.095 370.578 173.52 370.099 174.889C369.02 177.978 367.926 181.158 368.051 184.428C368.131 186.533 366.909 188.429 366.038 190.347C365.166 192.265 364.693 194.721 366.06 196.324C369.323 193.579 370.107 188.959 370.825 184.756C371.683 179.731 372.85 174.521 376.1 170.593C374.962 169.693 373.196 170.1 372.143 171.097ZM286.137 185.103C286.977 185.374 287.928 185.913 287.938 186.796C287.95 187.869 286.629 188.363 285.574 188.556C285.044 188.653 284.515 188.75 283.985 188.847C282.637 189.094 281.191 189.33 279.937 188.775C278.684 188.22 277.849 186.527 278.667 185.427C279.196 184.715 280.17 184.522 281.055 184.467C282.769 184.361 284.502 184.578 286.137 185.103ZM163.479 169.602C164.955 170.308 166.606 171.699 166.06 173.241C150.855 169.926 134.611 171.565 120.375 177.852C113.969 180.68 107.956 184.421 101.326 186.675C99.0583 187.447 96.5822 188.039 94.291 187.339C91.9997 186.64 90.0889 184.209 90.7591 181.909C91.3882 179.75 93.7923 178.724 95.9224 178.003C106.421 174.448 117.102 171.434 127.909 168.976C139.702 166.294 152.57 164.384 163.479 169.602ZM381.803 169.42C380.718 169.415 379.805 170.212 379.091 171.03C377.359 173.014 376.128 175.394 375.213 177.863C374.075 180.93 373.403 184.17 373.225 187.437C376.369 182.028 379.73 176.746 383.298 171.608C383.918 170.716 382.889 169.424 381.803 169.42ZM362.537 179.055C362.24 179.057 361.925 179.068 361.674 179.227C361.108 179.586 361.187 180.424 361.355 181.074C361.887 183.132 362.624 185.138 363.552 187.051C364.109 184.355 365.003 181.729 366.207 179.253C364.989 179.114 363.763 179.048 362.537 179.055ZM124.278 172.105C115.278 174.871 106.278 177.637 97.2777 180.403C96.2026 180.734 94.9551 181.244 94.7261 182.345C95.4578 183.413 96.8516 183.866 98.1444 183.803C99.4373 183.741 100.665 183.244 101.863 182.755C110.993 179.024 120.124 175.293 129.255 171.563C127.624 171.107 125.896 171.607 124.278 172.105ZM219.252 177.153C218.768 177.992 217.762 178.348 217.008 178.955C216.254 179.562 215.812 180.868 216.608 181.418C217.827 180.197 219.046 178.977 220.265 177.756C220.013 177.444 219.647 177.226 219.252 177.153ZM314.212 176.504C320.753 177.185 327.355 177.533 333.908 176.969C335.603 176.823 337.631 176.755 338.637 178.127C337.367 179.42 335.37 179.577 333.559 179.654C326.757 179.946 319.955 180.237 313.153 180.528C311.826 180.585 310.146 180.416 309.715 179.16C309.376 178.171 310.147 177.079 311.114 176.683C312.081 176.286 313.172 176.396 314.212 176.504ZM415.352 169.356C416.935 171.282 417.513 173.99 416.854 176.394C416.691 176.988 416.453 177.569 416.074 178.054C415.079 179.324 413.242 179.699 411.673 179.323C410.103 178.947 408.759 177.948 407.561 176.867C406.327 175.752 405.169 174.482 404.577 172.928C403.984 171.374 404.053 169.483 405.104 168.194C405.971 167.131 407.37 166.622 408.737 166.522C411.223 166.34 413.769 167.431 415.352 169.356ZM194.817 173.833C195.442 174.337 195.337 175.387 194.803 175.987C194.27 176.588 193.456 176.845 192.676 177.039C191.755 177.268 190.787 177.448 189.864 177.229C188.941 177.009 188.075 176.293 187.962 175.351C187.797 173.984 189.227 172.915 190.587 172.7C192.072 172.466 193.648 172.888 194.817 173.833ZM408.109 169.81C407.416 170.707 407.871 172.326 408.994 172.479C410.292 172.657 411.302 174.02 411.093 175.313C410.928 176.328 412.166 177.176 413.148 176.872C414.13 176.567 414.699 175.466 414.677 174.438C414.655 173.41 414.165 172.452 413.608 171.587C412.995 170.634 412.245 169.708 411.21 169.243C410.176 168.779 408.802 168.912 408.109 169.81ZM404.653 77.65C395.222 79.3774 385.879 83.497 379.796 90.9084C373.713 98.3198 371.609 109.412 376.365 117.737C378.045 120.68 380.611 123.245 383.837 124.281C387.063 125.317 390.965 124.554 393.117 121.938C395.559 118.969 400.488 121.816 404.163 120.69C409.245 119.131 414.528 118.227 419.84 118.006C421.1 117.954 422.398 117.946 423.574 118.402C424.849 118.896 425.858 119.888 426.827 120.854C430.189 124.204 433.62 127.65 435.611 131.959C438.768 138.791 437.986 147.122 441.974 153.506C442.44 149.503 442.906 145.5 443.372 141.497C443.545 140.012 443.737 138.469 444.54 137.208C445.343 135.946 446.948 135.061 448.353 135.572C450.833 136.472 453.414 137.439 455.193 139.387C456.973 141.334 457.631 144.58 455.921 146.588C454.268 148.528 456.143 151.332 457.021 153.725C458.542 157.871 456.754 162.609 457.949 166.86C458.939 170.382 461.8 173.012 464.534 175.443C465.333 176.154 466.265 176.912 467.331 176.815C468.222 176.734 468.939 176.069 469.548 175.412C473.181 171.497 475.669 166.532 476.631 161.278C477.019 159.158 476.282 156.07 474.147 156.359C474.73 151.274 479.405 147.809 482.151 143.488C485.112 138.828 485.812 133.099 485.947 127.579C486.083 122.031 485.541 116.003 481.845 111.864C477.403 106.892 468.773 106.521 463.921 111.093C462.711 112.232 461.117 113.739 459.674 112.914C460.805 110.885 461.936 108.856 463.067 106.828C464.91 103.521 466.792 100.095 467.167 96.3284C467.906 88.8967 462.249 81.8601 455.252 79.2466C448.256 76.6332 440.358 77.7169 433.34 80.2729C431.581 80.9135 429.503 82.2896 429.98 84.0997C430.256 85.148 431.318 85.7809 431.863 86.7182C432.203 87.3025 432.169 87.4897 431.785 87.9624C431.553 88.248 431.135 89.0749 430.76 88.9136C426.781 84.3057 422.478 79.4815 416.645 77.7389C412.778 76.5838 408.622 76.923 404.653 77.65ZM359.466 172.683C358.969 172.388 358.017 172.195 358.11 172.765C358.379 174.161 359.635 175.199 360.991 175.626C362.347 176.053 363.803 175.981 365.222 175.904C365.777 175.875 366.369 175.832 366.811 175.494C367.181 175.212 367.384 174.767 367.573 174.341C367.896 173.611 368.219 172.88 368.543 172.15C365.905 170.434 362.174 174.288 359.466 172.683ZM283.291 167.916C284.4 167.999 285.502 168.192 286.573 168.492C287.501 168.753 288.568 169.296 288.614 170.259C288.674 171.527 287.025 172.044 285.761 172.154C284.474 172.265 283.187 172.376 281.901 172.487C280.963 172.568 279.903 172.61 279.213 171.969C278.288 171.109 278.661 169.44 279.664 168.67C280.666 167.901 282.031 167.821 283.291 167.916ZM313.383 167.64C319.538 168.464 325.775 168.662 331.97 168.232C332.696 168.181 333.488 168.139 334.086 168.554C334.685 168.969 334.833 170.041 334.18 170.363C333.982 170.461 333.754 170.471 333.533 170.479C326.045 170.762 318.556 171.044 311.068 171.327C310.385 171.353 309.633 171.356 309.108 170.919C308.168 170.137 308.707 168.463 309.786 167.885C310.864 167.307 312.171 167.478 313.383 167.64ZM373.137 161.541C370.746 161.669 368.314 161.891 366.106 162.818C363.899 163.745 361.918 165.49 361.259 167.792C361.125 168.259 361.076 168.834 361.434 169.162C361.713 169.417 362.133 169.421 362.511 169.406C366.483 169.25 370.437 168.659 374.28 167.646C376.191 167.142 378.495 165.928 378.236 163.969C378.1 162.937 377.21 162.131 376.228 161.79C375.245 161.448 374.176 161.485 373.137 161.541ZM97.3203 161.252C96.9391 163.27 96.8459 165.342 97.0444 167.385C97.5383 167.919 98.1884 166.877 98.1466 166.152C98.0513 164.495 97.7736 162.849 97.3203 161.252ZM225.202 158.785C238.969 159.407 252.735 160.029 266.501 160.651C267.786 160.709 269.493 161.201 269.417 162.485C267.774 163.54 265.655 163.322 263.715 163.096C251.444 161.666 239.029 161.469 226.719 162.507C225.656 162.597 224.527 162.684 223.579 162.196C222.63 161.709 222.018 160.409 222.634 159.538C223.173 158.776 224.27 158.742 225.202 158.785ZM191.821 157.341C192.427 157.432 193.057 157.591 193.497 158.017C194.503 158.991 193.882 160.844 192.672 161.55C191.463 162.256 189.964 162.157 188.569 162.037C187.037 161.904 186.541 159.607 187.546 158.445C188.552 157.283 190.301 157.111 191.821 157.341ZM240.239 152.249C262.674 153.413 285.11 154.577 307.546 155.741C308.748 155.803 310.338 156.265 310.275 157.467C306.575 158.133 302.744 158.059 299.073 157.25L302.333 160.055C300.779 161.035 299.123 162.047 297.286 162.088C295.449 162.128 293.45 160.774 293.502 158.938C294.431 158.509 295.361 158.08 296.29 157.651C278.166 156.098 259.957 155.531 241.772 155.954C240.722 155.979 239.603 155.988 238.716 155.426C237.83 154.863 237.382 153.495 238.115 152.744C238.64 152.208 239.489 152.21 240.239 152.249ZM385.514 155.249C384.706 155.293 384.02 155.83 383.393 156.343C382.65 156.951 381.908 157.559 381.165 158.166C380.387 158.803 379.543 159.563 379.498 160.567C379.473 161.112 379.888 161.759 380.42 161.637C380.568 161.602 380.697 161.513 380.822 161.425C382.591 160.177 384.361 158.929 386.13 157.681C386.491 157.426 386.876 157.138 386.993 156.712C387.208 155.931 386.323 155.205 385.514 155.249ZM413.036 148.712C413.106 150.532 412.203 152.237 411.881 154.03C411.56 155.823 412.172 158.106 413.945 158.525C414.467 158.649 414.619 159.397 414.324 159.846C414.029 160.295 413.471 160.488 412.942 160.584C411.3 160.883 409.356 160.356 408.601 158.867C408.223 158.122 408.194 157.255 408.173 156.42C408.115 154.184 408.058 151.948 408.001 149.711C407.961 148.183 408.132 146.3 409.532 145.683C411.198 144.948 412.966 146.892 413.036 148.712ZM388.631 158.856C388.307 159.007 388.087 159.356 388.09 159.713L388.01 159.734C388.189 160.133 388.835 160.195 389.088 159.838C389.34 159.481 389.067 158.893 388.631 158.856ZM385.536 147.169C384.793 147.188 383.963 147.323 383.524 147.921C383.055 148.562 383.245 149.501 383.727 150.132C384.209 150.763 384.919 151.169 385.582 151.606C388.374 153.448 390.603 156.13 391.902 159.211C392.785 158.049 393.668 156.886 394.552 155.723C395.211 154.855 395.907 153.861 395.768 152.78C395.667 151.998 395.143 151.341 394.586 150.784C392.225 148.422 388.874 147.084 385.536 147.169ZM100.986 129.179C99.9483 129.264 99.4105 130.429 99.0843 131.418C98.5872 132.924 98.0902 134.43 97.5932 135.937C97.0502 137.583 96.5033 139.247 96.3543 140.973C96.2556 142.118 96.3337 143.269 96.4119 144.415C96.656 147.993 96.9002 151.572 97.1443 155.15C97.1915 155.842 97.7179 156.797 98.29 156.405C98.0524 147.265 98.9604 138.095 100.986 129.179ZM394.467 142.337C393.525 142.696 392.525 143.326 392.388 144.325C392.252 145.324 393.722 146.25 394.292 145.419C395.02 144.359 396.839 144.912 397.441 146.049C398.043 147.186 397.866 148.554 397.857 149.84C397.848 151.126 398.144 152.602 399.265 153.232C399.453 151.511 399.641 149.791 399.829 148.07C400.061 145.946 400.048 143.311 398.181 142.272C397.063 141.649 395.662 141.882 394.467 142.337ZM424.712 141.365C426.24 141.433 427.873 141.966 428.709 143.247C429.545 144.529 429.101 146.628 427.628 147.041C425.525 147.63 423.559 144.667 421.504 145.403C420.218 145.863 419.424 147.671 418.084 147.412C417.253 147.251 416.792 146.255 416.958 145.424C417.123 144.594 417.743 143.929 418.406 143.404C420.175 142.002 422.457 141.264 424.712 141.365ZM190.609 139.851C192.083 140.089 193.525 141.703 192.749 142.978C192.531 143.336 192.176 143.59 191.805 143.785C190.886 144.269 189.752 144.433 188.804 144.011C187.855 143.589 187.187 142.495 187.444 141.488C187.767 140.224 189.321 139.643 190.609 139.851ZM427.108 131.461C428.123 132.426 428.913 134.241 427.777 135.06C426.576 135.925 425.138 134.464 423.988 133.531C422.704 132.488 420.965 132.028 419.333 132.299C418.289 132.473 417.306 132.926 416.259 133.078C415.212 133.23 413.994 132.99 413.423 132.1C412.824 131.166 413.205 129.843 414.029 129.1C414.853 128.358 415.999 128.086 417.104 127.985C420.728 127.653 424.471 128.954 427.108 131.461ZM190.558 128.506C191.463 129.037 191.951 130.287 191.447 131.208C190.782 132.423 189.037 132.407 187.692 132.073C187.208 131.952 186.698 131.794 186.377 131.411C185.612 130.498 186.47 129.066 187.539 128.539C188.479 128.074 189.653 127.975 190.558 128.506Z" fill="black"/>
</g>
<defs>
<clipPath id="clip0_1562_1218">
<rect width="518" height="379" fill="white"/>
</clipPath>
</defs>
</svg>
