<svg width="77" height="90" viewBox="0 0 77 90" fill="none" xmlns="http://www.w3.org/2000/svg">
<path d="M0 74H77V0H0V74ZM68.296 1.28106L45.3216 14.0916C45.2824 14.0163 45.2433 13.9786 45.204 13.9033L63.9833 1.24337L68.296 1.28106ZM61.3174 1.28106L44.3415 12.6976C44.3023 12.6598 44.2631 12.5845 44.2239 12.5468L58.0245 1.28106H61.3174ZM55.6326 1.28106L43.2045 11.4165C43.1653 11.3788 43.0869 11.3034 43.0477 11.2658L53.2022 1.28106H55.6326ZM42.1068 1.28106L38.1862 7.76168C38.1078 7.72402 38.0686 7.68636 37.9902 7.64864L41.0874 1.24337L42.1068 1.28106ZM39.3624 1.28106L36.5788 7.04579C36.5004 7.00813 36.4612 7.00813 36.3828 6.97047L38.4998 1.28106H39.3624ZM36.0691 1.28106H36.814L34.893 6.48065C34.8145 6.48065 34.7754 6.44299 34.6969 6.40527L36.0691 1.28106ZM28.5809 1.28106V5.68938C28.5024 5.68938 28.4633 5.68938 28.3848 5.68938L27.9536 1.24337H28.5809V1.28106ZM26.3854 1.28106L26.8166 5.84013C26.7382 5.84013 26.6598 5.84013 26.6206 5.8778L25.7581 1.28106H26.3854ZM24.1507 1.28106L25.0916 6.14154C25.0131 6.14154 24.9739 6.1792 24.8955 6.1792L23.4449 1.28106H24.1507ZM14.8589 1.28106L19.1715 8.51524C19.1323 8.55295 19.0539 8.59061 19.0147 8.62828L13.6436 1.28106H14.8589ZM11.7616 1.28106L17.7601 9.45721C17.7209 9.49487 17.6425 9.53258 17.6033 9.57025L10.2327 1.24337H11.7616V1.28106ZM8.19396 1.28106L16.4271 10.5499C16.3879 10.5876 16.3487 10.6253 16.2703 10.6629L6.23366 1.24337H8.19396V1.28106ZM1.33299 9.11809L12.389 15.335C12.3498 15.3727 12.3105 15.4857 12.2713 15.5611L1.33299 11.0774V9.11809ZM17.4857 40.2779C17.2113 39.9765 16.7016 39.4491 16.4271 39.1476C19.7988 36.2841 25.1307 35.3798 26.9342 35.003C26.2677 35.5682 24.5819 37.226 24.5819 37.226C24.5819 37.226 21.0926 37.6405 17.4857 40.2779ZM23.0529 38.8839C21.0534 40.8055 20.2693 41.9358 19.642 42.7271C19.3283 42.3502 18.9363 41.8981 18.6227 41.5214C20.034 40.2026 21.8375 39.2606 23.0529 38.8839ZM16.9368 62.4704C18.2306 63.5253 20.034 63.6382 21.4454 62.885C20.1125 64.392 17.7601 64.5803 16.1919 63.337C14.6237 62.0558 14.4277 59.795 15.7214 58.288C15.2118 59.7201 15.643 61.4154 16.9368 62.4704ZM18.3874 60.8125C19.3675 61.6037 20.7398 61.7166 21.8375 61.2271C21.7983 61.2646 21.7983 61.3026 21.7591 61.34C20.7398 62.5079 18.8971 62.6967 17.6425 61.6792C16.4271 60.6996 16.2311 58.9289 17.2896 57.7231C17.3289 57.6851 17.3289 57.6477 17.3681 57.6477C17.0152 58.778 17.3681 60.0213 18.3874 60.8125ZM18.6619 57.3839C18.7795 58.0997 19.1323 58.778 19.7596 59.2676C20.3869 59.7576 21.1318 59.9839 21.8767 59.9459C21.0926 60.6242 19.9164 60.6617 19.0931 59.9839C18.2698 59.381 18.0738 58.2506 18.6619 57.3839ZM14.8981 57.6097C13.2123 59.5693 13.4475 62.4704 15.4862 64.1283C17.5249 65.7861 20.5437 65.5224 22.2688 63.5628C22.3864 63.4125 22.504 63.2996 22.5824 63.1487C22.4256 64.1283 22.0335 65.1078 21.3278 65.899C19.3283 68.1977 15.7607 68.4989 13.3691 66.5773C10.9775 64.6557 10.6639 61.2271 12.6634 58.9289C13.3691 58.0997 14.3101 57.5348 15.2902 57.2331C15.1725 57.346 15.0157 57.4594 14.8981 57.6097ZM10.8599 67.896L12.4281 67.7452C12.9378 68.1598 13.4867 68.4615 14.0748 68.7252C12.2713 68.8001 10.5855 68.951 9.48775 69.1018C9.56618 68.7252 9.60537 68.3481 9.68379 67.9715L10.8599 67.896ZM9.95821 66.6902C10.0758 66.1253 10.1934 65.5978 10.3503 65.0324C10.5855 65.5978 10.8992 66.1253 11.2912 66.5773L10.7816 66.6148L9.95821 66.6902ZM11.8401 55.7261C11.7225 55.1606 11.056 53.8419 10.9384 53.5782C10.9384 53.5782 12.1537 53.239 13.0163 53.239C12.7418 53.8419 12.2322 54.822 11.8401 55.7261ZM10.3895 52.4478C10.1542 51.9957 9.91902 51.6566 9.60537 51.2045C9.60537 51.2045 11.9185 49.9989 14.6237 50.338C14.3884 50.7148 13.8396 51.732 13.8396 51.732C12.8986 51.732 11.2912 52.0337 10.3895 52.4478ZM8.82126 49.9989C8.50761 49.5468 8.35081 49.3207 8.07634 48.9063C10.6639 47.5122 14.8197 47.2861 16.3487 47.5498C15.9959 48.0773 15.7607 48.3788 15.4078 48.9063C13.3299 48.7179 10.8207 49.0193 8.82126 49.9989ZM7.17462 47.7759C6.90016 47.4745 6.54732 46.9847 6.31209 46.6833C8.5468 45.4022 13.2515 44.5356 17.9562 45.1761C17.6425 45.5906 17.3289 46.0804 17.1328 46.3441C13.1731 45.9674 9.40933 46.7209 7.17462 47.7759ZM5.25357 45.5906C4.86149 45.1761 4.54785 44.8747 4.11659 44.5356C8.31157 42.2372 15.0549 42.0865 17.2504 42.2372C17.6033 42.614 18.6227 43.8951 18.6227 43.8951C13.0163 42.9531 7.64508 44.1588 5.25357 45.5906ZM2.86201 43.5559C2.31313 43.1415 1.84266 42.84 1.33299 42.501C4.46943 40.9562 10.4287 39.6751 14.7021 39.6374C15.0942 40.0142 15.5254 40.5417 15.9175 40.9185C11.4872 41.1446 6.74336 41.7474 2.86201 43.5559ZM15.3686 38.2057C15.0157 37.8666 14.4669 37.4144 14.0748 37.113C15.6822 35.8696 21.8767 33.1944 27.1695 32.5539C27.5223 32.78 28.228 33.2698 28.4633 33.4582C25.7189 33.8727 19.2499 35.2667 15.3686 38.2057ZM6.35128 31.838C10.1934 29.9165 14.1924 28.4847 18.0738 27.6181C18.6619 27.8818 19.2107 28.1079 19.7596 28.3717C15.6822 29.3136 11.9577 30.5193 7.91954 32.5539L7.64508 32.7046C7.13544 32.4409 6.58656 32.1771 6.07686 31.9511L6.35128 31.838ZM4.54785 31.3482C3.72453 31.0468 3.33247 30.9338 2.62677 30.7077C6.9394 28.3717 10.8992 27.0152 14.2316 26.1109C14.8981 26.337 15.6038 26.6008 16.2703 26.8645C12.5458 27.8065 7.37066 29.6527 4.54785 31.3482ZM21.4847 29.2382C21.8375 29.4267 22.3472 29.6904 22.7784 29.9165C18.7795 30.67 14.0356 32.4409 10.3895 34.3248C9.95821 34.0234 9.48775 33.7596 9.0173 33.4959C12.9378 31.4613 18.2698 29.6904 21.4847 29.2382ZM24.3859 30.8207C24.8171 31.0468 25.2092 31.3106 25.6404 31.5743C21.367 32.1018 15.5646 34.5509 13.0163 36.2087C12.5458 35.8319 12.1537 35.5682 11.5657 35.1537C15.0549 33.1568 21.6415 30.8207 24.3859 30.8207ZM27.9536 31.4236C29.2474 30.5947 32.1878 29.1629 35.2458 28.6354C34.3048 29.2006 31.3645 31.0091 29.4826 32.5539C29.1298 32.3278 28.3064 31.6497 27.9536 31.4236ZM26.4638 30.444C26.0717 30.2179 25.2876 29.7281 24.8563 29.4643C29.7178 26.6385 36.6964 25.2821 40.4601 25.3197C39.9505 25.5835 38.3822 26.4501 37.8726 26.7138C33.5992 27.1283 28.3456 29.0499 26.4638 30.444ZM23.2881 28.5977C22.8176 28.334 22.3472 28.1079 21.8767 27.8818C27.5615 24.4908 34.6969 23.3981 36.814 23.2851C37.2061 23.4358 38.8919 24.0764 39.284 24.2271C36.6572 24.3401 28.1496 25.5835 23.2881 28.5977ZM20.3869 27.1283C19.9557 26.9399 19.4851 26.7138 19.0539 26.5254C21.171 25.056 27.9928 22.2301 32.619 21.7403C33.0111 21.891 34.6185 22.3808 35.0106 22.5315C31.0116 22.6822 24.0722 24.9053 20.3869 27.1283ZM17.3681 25.8095C16.78 25.5458 16.2703 25.3574 15.6822 25.169C17.8777 23.8126 25.4444 20.6853 28.424 20.3462C29.0121 20.5346 30.4627 20.9868 30.4627 20.9868C26.6206 21.5519 20.3477 24.0387 17.3681 25.8095ZM13.8788 24.5285C13.2515 24.3024 12.585 24.114 11.9577 23.9257C13.8004 23.0591 20.2301 19.8941 24.1507 19.2912C24.7779 19.4419 25.6013 19.5926 26.1893 19.781C22.6216 20.4592 15.5646 23.5489 13.8788 24.5285ZM10.0758 23.3981C9.37014 23.2098 8.62522 23.0213 7.8803 22.8706C11.4872 20.7983 19.4851 18.1609 19.4851 18.1609C20.1909 18.3116 20.8966 18.4623 21.6022 18.613C20.8966 18.7637 12.3105 22.0794 10.0758 23.3981ZM5.84164 22.4562C5.01831 22.3055 4.195 22.1924 3.33248 22.0794C5.68478 20.949 10.0366 18.5376 14.4277 17.2566C15.1725 17.3696 15.9175 17.5203 16.6624 17.6334C12.3105 18.8767 7.60589 21.5896 5.84164 22.4562ZM1.33299 12.5845L6.9394 14.9582C3.56771 14.6945 1.33299 14.7699 1.33299 14.7699V12.5845ZM1.33299 17.2189L3.72453 16.0132C4.58705 16.0132 5.6456 16.1263 6.46894 16.2393C4.35182 17.1059 2.54836 18.0102 1.33299 18.613V17.2189ZM1.33299 20.0448C2.78359 19.3666 5.84164 17.8218 9.25253 16.5407C10.1542 16.6537 11.0952 16.7668 11.9969 16.8798C7.48828 18.4246 3.05803 20.7607 1.33299 21.6273V20.0448ZM1.33299 23.2474C1.88187 23.2851 2.97962 23.4358 3.5285 23.5112C2.97962 23.7372 1.92107 24.1894 1.33299 24.4155V23.2474ZM1.33299 25.5081C2.74439 24.9053 4.15579 24.3401 5.52798 23.8126C6.31209 23.9633 7.05701 24.114 7.84112 24.2647C5.6456 25.056 3.48929 25.7719 1.33299 26.9022V25.5081ZM1.33299 28.334C1.99948 27.8442 7.0962 25.5458 10.0758 24.8299C10.7816 25.0183 11.4872 25.2067 12.1929 25.4328C7.84112 26.6761 3.01883 29.0499 1.33299 29.8788V28.334ZM1.33299 31.7627C2.03869 31.9888 2.78359 32.2525 3.48929 32.5163C2.70518 32.667 1.99948 32.8177 1.33299 32.9684V31.7627ZM1.33299 34.2494C2.39154 33.9857 3.88135 33.4582 5.68478 33.3452C6.2729 33.6089 6.82178 33.9103 7.40985 34.2118C4.19499 34.6262 2.74439 35.1538 1.33299 35.5682V34.2494ZM1.33299 36.8869C2.8228 36.3971 5.21433 35.4928 9.09568 35.1914C9.68379 35.5682 10.115 35.8696 10.6247 36.2087C7.01777 36.3594 2.86201 37.7159 1.29378 38.281V36.8869H1.33299ZM1.33299 39.6751C4.50864 38.168 9.37014 37.3014 12.1145 37.3768C12.5458 37.7158 12.977 38.0926 13.4083 38.4694C11.0952 38.3564 4.11658 39.6374 1.29378 41.1069L1.33299 39.6751ZM1.33299 44.3095C1.48981 44.3849 2.66598 45.2138 3.09724 45.666C2.46995 45.7413 1.84266 45.8543 1.33299 46.0427V44.3095ZM1.33299 47.4368C2.07789 47.1354 3.45009 46.9847 4.39102 46.9093C4.74387 47.2861 5.05751 47.6252 5.41037 48.002C4.11658 48.0397 2.46995 48.1904 1.33299 48.5295V47.4368ZM1.33299 49.8859C2.58757 49.3961 4.90069 49.17 6.39052 49.2077C6.70417 49.6221 7.01782 50.0366 7.29224 50.4511C5.44956 50.4511 2.90121 50.7901 1.33299 51.3174V49.8859ZM1.33299 52.7115C2.97962 52.0712 6.15529 51.6945 8.11553 51.8074C8.35081 52.222 8.62522 52.787 8.86045 53.2016C6.66493 53.0507 3.29327 53.3524 1.33299 53.9553V52.7115ZM1.33299 55.236C3.25406 54.5203 7.29224 54.4074 9.52694 54.5582C9.72298 55.0103 9.99739 55.5752 10.1934 56.0652C7.60589 55.8769 3.48929 55.9518 1.33299 56.6302V55.236ZM1.33299 57.8734C3.17565 57.346 7.76269 56.9319 10.8207 57.7231C10.6639 58.2506 10.4287 58.6646 10.2719 59.0792C7.64508 58.5143 4.2342 58.5518 1.33299 59.1926V57.8734ZM1.33299 60.5863C2.90121 60.1342 6.86097 59.5693 9.91902 60.5488C9.76217 60.9634 9.64456 61.34 9.52694 61.7546C7.44904 61.0388 3.95976 61.2271 1.37219 61.7921V60.5863H1.33299ZM7.0962 72.7188H1.33299V71.3626C1.33299 71.3626 6.58656 71.2492 7.37066 71.2872C7.29224 71.7767 7.25305 71.9275 7.0962 72.7188ZM7.48828 69.8931C6.90016 69.8176 1.88187 69.9305 1.33299 70.0439V68.5364C1.80345 68.4235 6.31209 68.1598 7.76269 68.4235C7.7235 68.6872 7.52746 69.6293 7.48828 69.8931ZM8.07634 67.0674C5.68478 66.7656 2.1171 67.0294 1.33299 67.1048V65.7107C2.43075 65.4844 7.05701 65.2961 8.38999 65.6732C8.11553 66.6148 8.23319 66.0499 8.07634 67.0674ZM1.33299 64.3166V62.9979C2.94042 62.6587 6.90016 62.3575 9.13491 63.0733C8.97806 63.5633 8.86045 63.9774 8.70365 64.4674C7.21381 63.9399 3.05803 64.0528 1.33299 64.3166ZM20.8966 72.7188H8.97806L9.05649 72.3421C11.0168 72.003 17.7601 71.5884 20.9357 72.3421L20.8966 72.7188ZM21.0534 71.3246C17.8385 70.3451 11.5657 70.7972 9.1741 71.1743C9.21329 70.8351 9.25253 70.5334 9.29171 70.1943C11.6833 69.7047 18.2306 69.3656 21.171 70.3451C21.1318 70.6463 21.0926 71.0234 21.0534 71.3246ZM21.367 69.3656C20.7789 69.1393 20.0733 69.1018 19.2892 68.951C20.1516 68.6498 20.975 68.2352 21.6415 67.6697C21.4846 68.4989 21.4063 68.989 21.367 69.3656ZM38.7351 72.7188H22.4648C22.504 72.455 22.5432 72.3042 22.5432 72.3042C24.0722 71.9275 27.4831 71.5129 30.6195 71.5509C33.5207 71.5884 37.1669 72.0404 38.7743 72.3796L38.7351 72.7188ZM38.9311 71.2118C37.6374 70.7972 34.7361 70.3076 30.6587 70.2697C26.895 70.2322 24.1898 70.6088 22.7392 71.0234C22.8177 70.458 22.8569 70.1568 22.9353 69.5913C23.9546 69.3276 26.895 68.7627 31.0508 68.951C34.893 69.1393 38.343 69.9305 39.0487 70.1943C39.0095 70.496 38.9703 70.948 38.9311 71.2118ZM48.4189 32.6293C47.87 33.0061 47.3603 33.3829 46.8507 33.7596C46.341 33.3452 45.7921 32.9307 45.2824 32.5539C45.8313 32.1395 46.4194 31.725 46.9683 31.3482C47.478 31.7627 47.9484 32.2148 48.4189 32.6293ZM48.2621 30.5193C48.8501 30.1426 49.4774 29.7657 50.0655 29.389C50.4968 29.8034 50.9672 30.2555 51.3985 30.7077C50.8496 31.0468 50.2615 31.4236 49.7127 31.8004C49.2422 31.3106 48.7717 30.8961 48.2621 30.5193ZM45.6353 34.7393C45.1256 35.1537 44.6551 35.5682 44.1454 35.9826C43.5574 35.5682 43.0085 35.1914 42.4204 34.8523C42.9301 34.4001 43.479 33.9857 44.0278 33.5713C44.5767 33.9103 45.0864 34.3248 45.6353 34.7393ZM43.0085 37C42.538 37.4144 42.0676 37.8666 41.6363 38.281C41.009 37.9042 40.3817 37.5651 39.7545 37.226C39.9505 37.0376 40.1465 36.8492 40.3033 36.6609C40.617 36.3594 40.9306 36.0957 41.2442 35.8319C41.8324 36.2087 42.4204 36.5855 43.0085 37ZM40.4994 39.4113C40.0681 39.8635 39.5976 40.3533 39.1663 40.8055C38.4998 40.4664 37.8334 40.1649 37.1669 39.8635C37.6374 39.3737 38.1078 38.8462 38.5783 38.3564C39.2448 38.6578 39.8721 39.0346 40.4994 39.4113ZM38.147 41.9735C37.755 42.4633 37.3237 42.9154 36.9316 43.4052C36.2259 43.1038 35.5203 42.8024 34.8145 42.5763C35.2458 42.0488 35.6771 41.559 36.1083 41.0315C36.814 41.2953 37.4805 41.6344 38.147 41.9735ZM36.0299 44.6486C35.6771 45.1384 35.3242 45.6282 34.9714 46.1181C34.2265 45.8543 33.4816 45.6282 32.7366 45.4399C33.1287 44.9124 33.4816 44.3849 33.8736 43.8951C34.5793 44.0835 35.285 44.3096 36.0299 44.6486ZM34.0696 47.3614C33.7168 47.889 33.4031 48.3788 33.0895 48.9063C32.1878 48.6425 31.4036 48.4918 30.7372 48.3411C31.09 47.7759 31.4429 47.2107 31.7957 46.6833C32.5406 46.8716 33.2855 47.0977 34.0696 47.3614ZM32.2662 50.2627C31.9525 50.7902 31.6389 51.3554 31.3645 51.9203C30.4235 51.732 29.6002 51.5812 28.9337 51.5062C29.2474 50.9033 29.6002 50.338 29.9139 49.7728C30.5019 49.8482 31.3253 49.9989 32.2662 50.2627ZM30.6587 53.277C30.3843 53.8045 30.1491 54.2945 29.9139 54.822C28.9337 54.6711 28.0712 54.5957 27.4047 54.5582C27.6791 53.9928 27.9144 53.4278 28.1888 52.8624C28.7769 52.9753 29.6394 53.0887 30.6587 53.277ZM29.2474 56.2535C29.0121 56.8185 28.7769 57.3839 28.5416 57.9868C27.5223 57.9114 26.6598 57.8734 25.9541 57.8734C26.1893 57.271 26.4245 56.6302 26.699 56.0273C27.3263 56.0652 28.1888 56.1027 29.2474 56.2535ZM27.4831 62.5079C27.4831 63.1108 27.6007 63.6762 27.7575 64.2411C26.1109 64.2411 24.8171 64.392 23.9154 64.5049C24.0722 63.8645 24.229 63.2616 24.4251 62.6212C25.0524 62.5833 26.1109 62.5079 27.4831 62.5079ZM28.3848 65.7487C28.7377 66.3511 29.2081 66.9165 29.7178 67.406C26.7382 67.3311 24.4643 67.7077 23.2097 67.9715C23.3273 67.3685 23.4449 66.7282 23.5625 66.1253C24.3466 65.9744 26.0325 65.7107 28.3848 65.7487ZM39.2056 69.0639C38.8527 68.951 38.3822 68.8001 37.8334 68.6118C38.4215 68.3481 38.9704 67.9715 39.4408 67.5569C39.4016 68.0469 39.284 68.5744 39.2056 69.0639ZM39.0095 65.899C37.0101 68.1977 33.4424 68.4989 31.0508 66.5773C28.6593 64.6557 28.3456 61.2271 30.3451 58.9289C31.0508 58.0997 31.9917 57.5348 32.9719 57.2331C32.8542 57.346 32.6974 57.4968 32.5798 57.6097C30.8548 59.5693 31.1292 62.4704 33.1679 64.1283C35.2066 65.7861 38.2254 65.5224 39.9505 63.5628C40.0681 63.4125 40.1857 63.2996 40.2641 63.1487C40.1465 64.1283 39.7152 65.0703 39.0095 65.899ZM34.6185 62.4704C35.9123 63.5253 37.7157 63.6382 39.1272 62.885C37.7942 64.392 35.4418 64.5803 33.8736 63.337C32.3054 62.0558 32.1094 59.795 33.4031 58.288C32.8542 59.7201 33.2855 61.4154 34.6185 62.4704ZM36.0299 60.8125C37.0101 61.6037 38.3822 61.7166 39.48 61.2271C39.4408 61.2646 39.4408 61.3026 39.4016 61.34C38.3822 62.5079 36.5396 62.6967 35.285 61.6792C34.0696 60.6996 33.8736 58.9289 34.9322 57.7231C34.9713 57.6851 34.9714 57.6477 35.0106 57.6477C34.6969 58.778 35.0498 60.0213 36.0299 60.8125ZM36.3044 57.3839C36.422 58.0997 36.7748 58.778 37.3629 59.2676C37.9902 59.7576 38.7351 59.9839 39.48 59.9459C38.6959 60.6242 37.5197 60.6617 36.6964 59.9839C35.9123 59.381 35.7555 58.2506 36.3044 57.3839ZM56.8088 72.7188H40.3425C40.3817 72.455 40.3818 72.2667 40.3818 72.2667C41.8324 71.9275 45.6353 71.4755 48.3405 71.5129C50.8888 71.5509 55.2407 72.0404 56.8088 72.4176C56.8478 72.4176 56.8088 72.5304 56.8088 72.7188ZM56.9265 71.3626C55.3585 70.9855 52.3788 70.3076 48.3405 70.2697C44.6551 70.2322 41.95 70.6088 40.4994 71.0234C40.5777 70.496 40.617 70.1568 40.6954 69.6293C41.8324 69.3276 44.6551 68.5744 48.6149 68.8001C52.6529 69.0639 55.8286 69.5913 57.0047 70.0059C57.0047 70.3826 56.9656 71.0609 56.9265 71.3626ZM61.5529 36.9246C61.1214 37.2637 60.6905 37.6028 60.2199 37.9796C59.6707 37.5275 59.161 37.0753 58.6123 36.6609C59.0829 36.2841 59.5925 35.9073 60.0631 35.5682C60.5727 35.945 61.0433 36.4348 61.5529 36.9246ZM61.357 34.6262C61.8666 34.2871 62.3762 33.9857 62.8859 33.6466C63.3168 34.0987 63.7483 34.5886 64.1793 35.0784C63.7092 35.3798 63.2777 35.6812 62.8072 35.9826C62.2976 35.5305 61.827 35.0784 61.357 34.6262ZM59.0829 38.9215C58.691 39.2606 58.2986 39.6374 57.9067 40.0142C57.3184 39.5621 56.7306 39.1853 56.1423 38.8085C56.5737 38.394 57.0047 38.0173 57.4362 37.6405C57.9849 38.0173 58.5341 38.4694 59.0829 38.9215ZM56.8088 41.0692C56.4169 41.446 56.0641 41.8605 55.7113 42.2372C55.0839 41.8228 54.4174 41.446 53.79 41.1069C54.1819 40.6548 54.6133 40.2403 55.0448 39.8258C55.5935 40.2403 56.2209 40.6548 56.8088 41.0692ZM54.692 43.4052C54.3387 43.8574 53.9468 44.3095 53.5941 44.7617C52.8098 44.3472 52.1042 44.0458 51.5159 43.782C51.9083 43.2922 52.3392 42.7647 52.7316 42.3126C53.3981 42.6517 54.025 42.9908 54.692 43.4052ZM52.692 45.9674C52.4179 46.3441 52.1433 46.7586 51.8692 47.1731C51.0457 46.7963 50.3007 46.5326 49.6735 46.3065C49.9871 45.8543 50.3007 45.4399 50.6144 44.9877C51.1633 45.2515 51.8692 45.5906 52.692 45.9674ZM51.0065 48.4542C50.732 48.9063 50.4183 49.3584 50.1439 49.8482C49.2814 49.5468 48.4973 49.3207 47.8308 49.17C48.1445 48.6425 48.4581 48.1527 48.7717 47.6629C49.399 47.8136 50.1439 48.0773 51.0065 48.4542ZM49.399 51.1291C49.1246 51.5812 48.8893 52.0712 48.6541 52.5612C47.7132 52.2975 46.9291 52.1466 46.2626 52.0337C46.537 51.5062 46.8115 50.9788 47.0859 50.4887C47.6739 50.6394 48.4973 50.8279 49.399 51.1291ZM47.9484 53.9173C47.7132 54.4448 47.478 54.9348 47.2427 55.4623C46.2626 55.274 45.4392 55.1606 44.7727 55.1232C45.008 54.5582 45.2824 53.9928 45.5569 53.4278C46.145 53.5407 46.9683 53.6916 47.9484 53.9173ZM46.6546 56.8939C46.4586 57.3839 46.2626 57.836 46.1057 58.326C45.0864 58.2126 44.2239 58.1751 43.5574 58.1372C43.7534 57.6097 43.9495 57.0822 44.1454 56.5547C44.7727 56.5927 45.6353 56.7056 46.6546 56.8939ZM45.1648 62.8096C45.204 63.337 45.2824 63.8271 45.4392 64.3166C43.8318 64.2791 42.5772 64.392 41.6755 64.5049C41.7931 63.9399 41.95 63.3745 42.1068 62.847C42.7733 62.7716 43.8318 62.7341 45.1648 62.8096ZM46.1057 65.8236C46.4586 66.4265 46.9291 66.9919 47.478 67.4814C44.5375 67.406 42.3028 67.7831 40.9698 68.0843C41.0874 67.406 41.2051 66.7282 41.3619 66.0873C42.2244 65.899 43.871 65.7107 46.1057 65.8236ZM57.2011 68.989C56.7697 68.8756 56.26 68.7252 55.5545 68.6118C56.26 68.2727 56.8874 67.8586 57.4362 67.3311C57.3184 67.9335 57.2402 68.4235 57.2011 68.989ZM56.6519 65.899C54.6524 68.1977 51.0848 68.4989 48.6933 66.5773C46.3018 64.6557 45.9881 61.2271 47.9876 58.9289C48.6933 58.0997 49.6342 57.5348 50.6144 57.2331C50.4968 57.346 50.34 57.4968 50.2223 57.6097C48.5365 59.5693 48.7717 62.4704 50.8104 64.1283C52.8489 65.7861 55.8682 65.5224 57.593 63.5628C57.7108 63.4125 57.828 63.2996 57.9067 63.1487C57.789 64.1283 57.358 65.0703 56.6519 65.899ZM52.2611 62.4704C53.555 63.5253 55.3585 63.6382 56.7697 62.885C55.4367 64.392 53.0844 64.5803 51.5159 63.337C49.9479 62.0558 49.7519 59.795 51.0457 58.288C50.536 59.7201 50.9672 61.4154 52.2611 62.4704ZM53.7118 60.8125C54.692 61.6037 56.0641 61.7166 57.1615 61.2271C57.1225 61.2646 57.1225 61.3026 57.0834 61.34C56.0641 62.5079 54.2215 62.6967 52.9667 61.6792C51.7514 60.6996 51.5555 58.9289 52.6139 57.7231C52.6529 57.6851 52.692 57.6477 52.692 57.6477C52.3392 58.778 52.692 60.0213 53.7118 60.8125ZM53.9468 57.3839C54.0646 58.0997 54.4174 58.778 55.0448 59.2676C55.6717 59.7576 56.4169 59.9839 57.1615 59.9459C56.3778 60.6242 55.2017 60.6617 54.3783 59.9839C53.555 59.381 53.3981 58.2506 53.9468 57.3839ZM75.6665 72.7188H58.3773L58.4164 72.455C59.9062 72.0404 63.5915 71.5509 67.0021 71.5884C69.7077 71.6263 73.7457 72.2293 75.7061 72.5679V72.7188H75.6665ZM75.6665 71.5129C74.6472 71.1743 71.0406 70.3451 66.4924 70.3077C62.6899 70.2697 59.9453 70.6843 58.4945 71.0989C58.5341 70.7217 58.5732 70.1568 58.6123 69.8176C59.7493 69.5164 62.5722 69.0264 66.6102 69.1018C72.1777 69.2527 74.9609 70.1188 75.6274 70.3451V71.5129H75.6665ZM70.8447 44.0835C70.4914 44.5356 69.8645 45.2515 69.5117 45.7413C68.8843 45.2892 68.296 44.837 67.6686 44.4225C68.061 43.8574 68.7665 43.1415 69.1584 42.614C69.7467 43.0661 70.2955 43.5559 70.8447 44.0835ZM70.1386 41.4836C70.5701 40.9938 71.3543 40.3157 71.8244 39.8635C72.2949 40.3533 72.7655 40.8808 73.2361 41.4083C72.8442 41.7851 72.1381 42.4256 71.7853 42.8778C71.2366 42.3879 70.6879 41.9358 70.1386 41.4836ZM68.6884 47.0224C68.4138 47.4368 67.9823 48.115 67.7473 48.5671C67.0417 48.1527 66.3752 47.7759 65.6691 47.4368C65.9828 46.9093 66.4534 46.1934 66.8062 45.7036C67.4726 46.0804 68.1001 46.5326 68.6884 47.0224ZM67.0417 49.8859C66.8062 50.338 66.4534 51.0162 66.2574 51.5062C65.5123 51.1291 64.7285 50.8279 63.9833 50.5264C64.2579 49.9989 64.6498 49.2454 64.9244 48.7179C65.6691 49.057 66.3752 49.4714 67.0417 49.8859ZM65.6691 52.9004C65.4732 53.3524 65.3163 53.8045 65.1204 54.2565C64.1793 53.9173 63.3564 53.6536 62.6899 53.5028C62.925 52.9753 63.1209 52.4478 63.3564 51.9203C64.1402 52.1841 64.8854 52.5232 65.6691 52.9004ZM69.9036 62.4704C71.1975 63.5253 73.0005 63.6382 74.4122 62.885C73.0792 64.392 70.7269 64.5803 69.1584 63.337C67.5904 62.0558 67.3945 59.795 68.6884 58.288C68.1787 59.7201 68.6097 61.4154 69.9036 62.4704ZM71.3543 60.8125C72.334 61.6037 73.7066 61.7166 74.8041 61.2271C74.765 61.2646 74.765 61.3026 74.7259 61.34C73.7066 62.5079 71.864 62.6967 70.6092 61.6792C69.394 60.6996 69.198 58.9289 70.2564 57.7231C70.2955 57.6851 70.3346 57.6477 70.3346 57.6477C70.0214 58.778 70.3741 60.0213 71.3543 60.8125ZM71.6285 57.3839C71.7071 58.0997 72.099 58.778 72.6873 59.2676C73.3142 59.7576 74.0594 59.9839 74.8041 59.9459C74.0203 60.6242 72.8442 60.6617 72.0208 59.9839C71.2366 59.381 71.0797 58.2506 71.6285 57.3839ZM67.9041 57.6097C66.2183 59.5693 66.4534 62.4704 68.4919 64.1283C70.531 65.7861 73.5498 65.5224 75.2746 63.5628C75.3924 63.4125 75.5102 63.2996 75.5883 63.1487C75.4315 64.1283 75.0396 65.1078 74.3335 65.899C72.334 68.1977 68.7665 68.4989 66.3752 66.5773C63.9833 64.6557 63.6696 61.2271 65.6691 58.9289C66.3752 58.0997 67.2767 57.5348 68.296 57.2331C68.1391 57.346 68.0219 57.4594 67.9041 57.6097ZM64.6107 55.6506C64.4539 56.0652 64.297 56.5173 64.1793 56.9693C63.16 56.7056 62.2976 56.5547 61.592 56.4418C61.7879 55.9144 61.9448 55.3869 62.1407 54.8969C62.8072 55.0477 63.6305 55.3115 64.6107 55.6506ZM63.7483 58.4009C63.6305 58.8535 63.4737 59.3055 63.3564 59.7576C62.2976 59.5693 61.396 59.4564 60.6509 59.4184C60.8077 58.8909 60.9646 58.3635 61.1214 57.8734C61.7879 57.9489 62.6899 58.1372 63.7483 58.4009ZM63.0427 63.9774C63.16 64.4295 63.3168 64.882 63.5128 65.3341C61.6701 65.2586 60.2199 65.3715 59.2788 65.5224C59.3575 64.9949 59.4747 64.4674 59.5925 63.9399C60.3372 63.8645 61.5133 63.8271 63.0427 63.9774ZM64.5326 66.8785C64.8854 67.2931 65.2772 67.6323 65.7478 67.9715C62.5722 67.896 60.1803 68.1977 58.8473 68.4989C58.926 67.9715 58.9651 67.5569 59.0438 67.0674C59.9062 66.8785 61.8666 66.6528 64.5326 66.8785ZM75.6665 58.1372C74.3335 56.5173 72.2949 55.4998 70.0214 55.4998C68.4138 55.4998 66.963 55.9898 65.7478 56.8564C68.1001 49.8106 71.6285 44.3472 75.6665 41.4083V58.1372ZM75.6665 39.5244C75.1569 39.8635 74.9609 39.9012 74.4513 40.3156C74.0203 39.7882 73.5498 39.2984 73.0792 38.8085C73.6279 38.3564 74.765 37.5651 75.6665 37.3014V39.5244ZM75.6665 35.6436C68.1391 38.9969 62.0625 47.9266 58.926 59.6821C57.828 57.2331 55.2798 55.4998 52.3392 55.4998C50.8889 55.4998 49.5559 55.9144 48.4189 56.6302C53.8291 43.6313 63.9833 34.4001 75.6665 31.9511V35.6436ZM64.2189 32.893C64.7285 32.6293 65.2381 32.3278 65.7869 32.1018C66.1793 32.5539 66.532 33.0437 66.8848 33.5713C66.4143 33.835 65.9437 34.0611 65.4732 34.3248C65.0813 33.7973 64.6498 33.3452 64.2189 32.893ZM67.1985 31.4236C67.7863 31.1599 68.3747 30.9338 68.9625 30.7077C69.2762 31.1975 69.5899 31.6497 69.9036 32.1771C69.3549 32.4032 68.8452 32.6293 68.296 32.8554C67.9432 32.3656 67.5904 31.8757 67.1985 31.4236ZM70.4523 30.1802C70.962 30.0295 71.4716 29.8788 71.9812 29.7281C72.2559 30.2179 72.4909 30.67 72.7264 31.1599C72.2559 31.3106 71.7853 31.4613 71.3543 31.612C71.0797 31.1222 70.766 30.6324 70.4523 30.1802ZM75.6665 30.444C75.1965 30.557 74.7259 30.6324 74.2163 30.7831C73.9807 30.2933 73.7457 29.8411 73.4711 29.3513C73.9807 29.1629 75.0787 28.9745 75.6274 28.8615V30.444H75.6665ZM75.6665 27.4297C59.9844 29.8034 46.8507 42.614 41.3227 59.8705C40.2641 57.346 37.6765 55.5378 34.6577 55.5378C33.2071 55.5378 31.9133 55.9518 30.7764 56.6302C38.6175 38.5071 55.9072 25.998 75.6665 24.2647V27.4297ZM51.4377 28.5977C52.0255 28.2586 52.6139 27.9572 53.1626 27.6558C53.555 28.0703 53.9468 28.5601 54.3387 29.0122C53.79 29.3136 53.2413 29.615 52.692 29.9165C52.3392 29.4267 51.9083 29.0122 51.4377 28.5977ZM54.6133 26.9399C55.2407 26.6385 55.8682 26.337 56.4951 26.0733C56.8478 26.5254 57.2011 26.9776 57.5539 27.4674C56.9656 27.7311 56.3778 27.9949 55.7895 28.2963C55.3976 27.8442 55.0052 27.392 54.6133 26.9399ZM57.9458 25.4704C58.5732 25.2067 59.2397 24.9806 59.8671 24.7545C60.1803 25.2067 60.494 25.6588 60.7686 26.1487C60.1412 26.3747 59.5534 26.6008 58.9651 26.8645C58.6514 26.3747 58.2986 25.9226 57.9458 25.4704ZM61.357 24.1894C62.0234 23.9633 62.6899 23.7372 63.3564 23.5489C63.6305 24.001 63.9052 24.4908 64.1402 24.9429C63.5128 25.1314 62.8859 25.3574 62.2585 25.5458C61.9448 25.0936 61.6701 24.6415 61.357 24.1894ZM64.8854 23.1344C65.5518 22.946 66.4534 22.7199 67.1199 22.5692C67.3554 23.0213 67.5904 23.5112 67.7864 23.9633C67.1589 24.114 66.2574 24.3401 65.63 24.5285C65.395 24.0387 65.1595 23.5865 64.8854 23.1344ZM68.8843 22.2301C69.5508 22.1171 70.4523 21.9287 71.1579 21.8156C71.3544 22.2678 71.5503 22.7576 71.7071 23.2098C71.0797 23.3228 70.1782 23.5112 69.5508 23.6242C69.3153 23.1344 69.1193 22.6823 68.8843 22.2301ZM75.6665 22.7199C75 22.7953 74.0985 22.8706 73.432 22.9837C73.2751 22.5315 73.0792 22.0417 72.9224 21.5896C73.5889 21.5142 75 21.2882 75.6665 21.2128V22.7199ZM75.6665 19.8187C62.0234 20.7983 49.203 26.337 39.2448 35.6436C32.031 42.3879 26.699 50.7148 23.6801 59.833C22.6216 57.3085 20.034 55.5378 17.0152 55.5378C15.643 55.5378 14.3492 55.9144 13.2123 56.5927C16.976 47.9643 22.9745 40.1272 30.894 33.6466C43.1261 23.6619 58.926 17.7841 75.6665 16.9552V19.8187ZM75.6665 15.1843C61.357 16.3523 50.2615 20.5723 48.1445 21.2882L48.1052 20.9868C57.5143 17.1812 70.8447 13.7525 75.6665 12.9236V15.1843ZM75.6665 10.9644C68.1787 12.9613 54.4174 17.2189 47.7132 19.4796C47.7132 19.4796 47.6739 19.3289 47.6739 19.2535L75.7061 8.92973V10.9644H75.6665ZM75.6665 7.04579L45.9489 18.2362C46.4194 19.4419 46.733 20.61 46.8898 21.9287C45.3216 22.6069 43.7534 23.4358 42.2636 24.2271C33.4816 19.9694 23.8762 17.1059 13.7219 15.6741C13.918 15.335 14.1532 15.0336 14.3492 14.7321L1.29378 7.38491V1.28106H3.99897L16.2311 12.7352C17.6425 11.2281 19.3675 9.98474 21.2494 9.04277L16.6231 1.28106H21.8375L23.7978 8.02542C25.5228 7.46028 27.4047 7.15883 29.3257 7.15883C29.561 7.15883 29.8354 7.15883 30.0707 7.15883L30.1099 1.28106H34.4617L32.8151 7.49794C34.9714 7.91244 36.9709 8.70365 38.7351 9.75866L43.871 1.28106H51.0065L40.8914 11.2281C42.4989 12.5845 43.871 14.2047 44.8904 16.0509L71.3543 1.28106H75.6665V7.04579ZM28.032 59.4564C27.8751 59.9459 27.6399 61.0388 27.6399 61.0388C26.5814 61.0388 25.562 61.0763 24.8563 61.1137C25.0524 60.5488 25.2484 59.9459 25.4444 59.381C26.0717 59.381 26.9734 59.381 28.032 59.4564ZM45.5961 59.7576C45.4392 60.2476 45.3216 60.6996 45.2432 61.3026C44.2239 61.2646 43.2045 61.2646 42.4989 61.3026C42.6557 60.7371 42.8517 60.1722 43.0085 59.6447C43.675 59.6447 44.5375 59.6447 45.5961 59.7576ZM62.964 61.1892C62.925 61.378 62.8859 61.5283 62.8859 61.7166C62.8463 61.9429 62.8463 62.1692 62.8463 62.395C62.8463 62.4329 62.8463 62.4329 62.8463 62.4329C61.6311 62.3195 60.6509 62.3195 59.9062 62.3575C60.024 61.8675 60.1412 61.378 60.259 60.888C60.9255 60.9254 61.827 61.0008 62.964 61.1892ZM75.6665 69.1773C75.1569 68.989 74.3731 68.8001 73.2361 68.5364C73.5889 68.386 74.0985 68.0469 74.569 67.6697C75 67.3311 75.3924 66.9165 75.6665 66.5773V69.1773Z" fill="#4A4A49"/>
<path d="M1.61154 80V82.8411C1.61154 83.5438 1.72295 84.0428 1.93579 84.3279C2.14863 84.613 2.50346 84.7453 2.9899 84.7453C3.1824 84.7453 3.40548 84.7148 3.65874 84.6537C3.91213 84.5927 4.14531 84.4909 4.36825 84.3584V80H6V90H4.36825V85.784C4.12497 85.9062 3.84127 86.0081 3.52699 86.0692C3.21284 86.1303 2.9088 86.1608 2.60476 86.1608C1.74329 86.1608 1.09466 85.9165 0.658868 85.4276C0.22308 84.9389 0 84.1343 0 83.0142V80H1.61154Z" fill="#4A4A49"/>
<path d="M27.4426 81.4954V90H25.5455V81.4954H23V80H30V81.4954H27.4426Z" fill="#4A4A49"/>
<path d="M52.0953 90V81.5071H48.9167V90H47V80H54V90H52.0953Z" fill="#4A4A49"/>
<path d="M71 87.7155C71.0796 87.6853 71.199 87.6553 71.3284 87.6052C71.4677 87.5651 71.607 87.515 71.7562 87.4649C71.9055 87.4149 72.0448 87.3648 72.1841 87.3146C72.3233 87.2645 72.4328 87.2345 72.5125 87.2044C72.5921 87.6052 72.7612 87.9259 73.0298 88.1463C73.2986 88.3668 73.6268 88.4769 73.995 88.4769C74.413 88.4769 74.7414 88.3366 74.9801 88.0662C75.2189 87.7956 75.3384 87.4248 75.3384 86.9639C75.3384 86.7535 75.3184 86.5631 75.2786 86.3827C75.2388 86.2025 75.1593 86.0521 75.0597 85.9118C74.9602 85.7715 74.821 85.6714 74.6518 85.5911C74.4827 85.511 74.2737 85.4709 74.015 85.4709H73.2687V84.0982H74.0448C74.4328 84.0982 74.7414 83.978 74.9702 83.7475C75.1991 83.507 75.3085 83.1663 75.3085 82.7254C75.3085 82.3647 75.1991 82.0741 74.9901 81.8537C74.7711 81.6333 74.4726 81.523 74.0747 81.523C73.6866 81.523 73.3781 81.6333 73.1294 81.8637C72.8807 82.0942 72.7115 82.3848 72.6119 82.7455L71.1393 82.2044C71.2985 81.523 71.6368 80.992 72.1443 80.5912C72.6517 80.1904 73.3085 80 74.1045 80C75.01 80 75.7065 80.2204 76.194 80.6613C76.6817 81.1022 76.9204 81.7535 76.9204 82.6152C76.9204 82.7756 76.9005 82.9559 76.8707 83.1663C76.8408 83.3767 76.7811 83.5771 76.7015 83.7775C76.6219 83.978 76.5125 84.1683 76.3632 84.3386C76.214 84.509 76.0348 84.6493 75.806 84.7395V84.7996C76.0348 84.8898 76.2338 85.0201 76.3931 85.1904C76.5523 85.3507 76.6716 85.5411 76.7612 85.7515C76.8508 85.9619 76.9204 86.1723 76.9503 86.3928C76.9802 86.6132 77 86.8337 77 87.034C77 87.525 76.9303 87.9559 76.7811 88.3167C76.6318 88.6873 76.4329 88.998 76.1642 89.2384C75.8955 89.489 75.5771 89.6793 75.209 89.8096C74.8408 89.9398 74.4328 90 73.9851 90C73.1792 90 72.5125 89.7995 71.985 89.3988C71.4577 89.008 71.1293 88.4469 71 87.7155Z" fill="#4A4A49"/>
</svg>
