<svg width="196" height="39" viewBox="0 0 196 39" fill="none" xmlns="http://www.w3.org/2000/svg">
<g clip-path="url(#clip0_700_4158)">
<path d="M0 38.1275H8.16198C8.16198 38.1275 24.1709 6.96959 62.5311 3.1505C62.5311 3.1505 61.6721 1.16893 61.2516 0.677734C61.2516 0.677734 21.7478 2.18036 0 38.1275Z" fill="#4A4A49"/>
<path d="M51.0098 13.1288C62.0547 14.0017 60.6665 24.6464 60.6665 24.6464C60.4288 26.628 59.9444 28.0691 58.6941 29.3498C52.4148 35.7844 45.9807 31.4105 45.9807 31.4105C50.9862 35.5567 59.1213 35.2128 59.1213 35.2128C69.9622 28.0424 68.1682 15.5535 64.5116 7.57153C64.5116 7.57153 57.0862 8.60641 51.0098 13.1288Z" fill="#4A4A49"/>
<path d="M48.976 8.42261C48.976 8.42261 34.2958 18.0791 42.1371 30.3794C44.4773 34.0512 51.2589 36.966 58.219 36.9158C58.219 36.9158 54.3459 38.2219 50.8026 38.1259C47.2592 38.0299 30.1985 38.1259 30.1985 38.1259C30.1985 38.1259 30.8926 18.3159 48.976 8.42261Z" fill="#4A4A49"/>
<path d="M27.7882 38.1258H11.6772C11.6772 38.1258 21.2666 17.1704 49.4877 6.8584C49.4877 6.8584 30.2719 14.0724 27.7882 38.1258Z" fill="#4A4A49"/>
<path d="M84.7401 1.19824H82.9897V2.72545H84.7401V1.19824Z" fill="#4A4A49"/>
<path d="M87.2226 1.19824H85.4722V2.72545H87.2226V1.19824Z" fill="#4A4A49"/>
<path d="M131.109 1.19824H129.358V2.72545H131.109V1.19824Z" fill="#4A4A49"/>
<path d="M133.594 1.19824H131.843V2.72545H133.594V1.19824Z" fill="#4A4A49"/>
<path d="M179.501 1.19824H177.75V2.72545H179.501V1.19824Z" fill="#4A4A49"/>
<path d="M181.982 1.19824H180.231V2.72545H181.982V1.19824Z" fill="#4A4A49"/>
<path d="M93.4538 1.69726C93.4538 1.63163 93.4407 1.56665 93.4156 1.50603C93.3902 1.44542 93.3533 1.39036 93.3066 1.34401C93.2599 1.29766 93.2046 1.26091 93.1435 1.23591C93.0826 1.2109 93.0173 1.19809 92.9514 1.19824H92.2113C92.0784 1.19824 91.9508 1.25078 91.8565 1.34433C91.7624 1.43789 91.7094 1.56481 91.709 1.69726V14.8794H93.4538V1.69726Z" fill="#4A4A49"/>
<path d="M98.8706 14.8812C98.8874 14.3231 98.8604 13.9256 98.8604 13.9256V6.75408C98.8604 6.62161 98.8076 6.49451 98.7138 6.40082C98.6197 6.30699 98.4923 6.25419 98.3593 6.25391H97.618C97.4851 6.25419 97.3576 6.30699 97.2636 6.40082C97.1696 6.49451 97.1169 6.62161 97.1169 6.75408V14.6802C97.0149 15.2799 96.7749 15.8413 96.2513 16.0299C95.5986 16.2667 94.6152 16.2209 94.6152 16.2209V17.7671C98.4658 17.8676 98.8291 16.1896 98.8706 14.8812Z" fill="#4A4A49"/>
<path d="M191.685 11.9414V2.75368V1.70093C191.685 1.56859 191.633 1.44166 191.539 1.34808C191.446 1.25449 191.317 1.20193 191.185 1.20193H190.443C190.311 1.20193 190.182 1.25449 190.09 1.34808C189.996 1.44166 189.943 1.56859 189.943 1.70093V2.75368V11.9414C189.935 12.2648 189.802 12.5725 189.567 12.7971C189.335 13.0215 189.021 13.1446 188.695 13.1393H187.583L185.775 2.4891L185.599 1.45087C185.588 1.3862 185.564 1.32432 185.531 1.26877C185.495 1.21322 185.448 1.1651 185.395 1.12714C185.342 1.08919 185.28 1.06216 185.217 1.04761C185.152 1.03305 185.086 1.03124 185.021 1.04228L184.291 1.16508C184.16 1.18721 184.041 1.26031 183.965 1.36832C183.888 1.47633 183.858 1.61041 183.879 1.74113L184.055 2.77823L185.814 13.1381H183.277V14.8797H188.7C189.487 14.8822 190.242 14.5744 190.801 14.0239C191.361 13.4733 191.679 12.7247 191.685 11.9414Z" fill="#4A4A49"/>
<path d="M195.995 2.75V1.69726C195.994 1.56481 195.94 1.43789 195.847 1.34433C195.751 1.25078 195.625 1.19824 195.492 1.19824H194.753C194.686 1.19809 194.62 1.2109 194.559 1.23591C194.499 1.26091 194.443 1.29766 194.397 1.34401C194.349 1.39036 194.313 1.44542 194.288 1.50603C194.262 1.56665 194.25 1.63163 194.25 1.69726V2.75V14.8426H196V2.75H195.995Z" fill="#4A4A49"/>
<path d="M146.63 1.69726C146.63 1.56481 146.577 1.43789 146.482 1.34433C146.388 1.25078 146.261 1.19824 146.128 1.19824H145.396C145.329 1.19809 145.266 1.2109 145.205 1.23591C145.143 1.26091 145.088 1.29766 145.041 1.34401C144.995 1.39036 144.957 1.44542 144.931 1.50603C144.907 1.56665 144.894 1.63163 144.894 1.69726V2.75V11.9399C144.889 12.2633 144.753 12.571 144.519 12.7957C144.286 13.0201 143.972 13.1432 143.648 13.1379H141.541C141.379 13.1415 141.218 13.1135 141.067 13.0552C140.916 12.997 140.78 12.9096 140.663 12.7984C140.547 12.6871 140.453 12.554 140.388 12.4067C140.323 12.2593 140.288 12.1007 140.285 11.9399V2.75224V1.69949C140.285 1.63396 140.272 1.56907 140.247 1.50852C140.222 1.44798 140.186 1.39296 140.139 1.34663C140.092 1.30029 140.036 1.26353 139.976 1.23845C139.915 1.21337 139.85 1.20048 139.784 1.20048H139.042C138.91 1.20048 138.782 1.25304 138.689 1.34663C138.596 1.44022 138.542 1.56715 138.542 1.69949V2.75224V11.9399C138.536 12.2635 138.401 12.5714 138.166 12.796C137.933 13.0205 137.618 13.1435 137.293 13.1379H135.578C135.843 12.5629 136.026 11.8049 136.026 10.8024C136.026 7.55256 134.584 6.04002 131.486 6.04002C128.56 6.04002 126.948 7.73119 126.948 10.8024C126.948 11.8072 127.123 12.5652 127.389 13.1379H121.804C122.066 12.4892 122.194 11.6486 122.194 10.5791C122.185 6.80472 119.761 6.24652 118.317 6.24652H113.987C113.26 6.24623 112.548 6.4455 111.928 6.82255V1.69726C111.928 1.56491 111.875 1.43799 111.781 1.3444C111.687 1.25081 111.559 1.19824 111.426 1.19824H110.685C110.552 1.19824 110.425 1.25081 110.331 1.3444C110.237 1.43799 110.184 1.56491 110.184 1.69726V13.1356H103.113C102.788 13.141 102.475 13.0183 102.241 12.7942C102.008 12.57 101.873 12.2629 101.866 11.9399V2.75224V1.69949C101.866 1.63386 101.853 1.56888 101.828 1.50827C101.802 1.44765 101.765 1.3926 101.719 1.34623C101.672 1.29988 101.617 1.26315 101.556 1.23814C101.495 1.21312 101.429 1.20032 101.364 1.20048H100.623C100.49 1.20047 100.363 1.25302 100.269 1.34657C100.175 1.44012 100.121 1.56705 100.121 1.69949V2.75224V11.9399C100.128 12.725 100.447 13.4753 101.009 14.0263C101.57 14.5774 102.329 14.8842 103.117 14.8794H113.994V14.913H118.323C118.651 14.913 118.996 14.913 119.339 14.8794H137.295C138.089 14.8806 138.853 14.5693 139.418 14.0131C139.981 14.5694 140.745 14.881 141.539 14.8794H143.645C144.434 14.8824 145.191 14.5748 145.75 14.024C146.311 13.4732 146.629 12.7239 146.635 11.9399V2.75224L146.63 1.69726ZM128.688 10.8002C128.688 8.67902 129.523 7.7793 131.478 7.7793C133.33 7.7793 134.27 8.24593 134.27 10.8002C134.27 12.0404 133.913 12.8822 133.286 13.1356H129.799C129.061 12.9615 128.688 12.1778 128.688 10.8002ZM111.93 9.50741C112.154 8.62213 113.007 7.98466 113.99 7.98466H118.319C119.366 7.98466 120.437 8.29278 120.437 10.5768C120.437 11.8172 120.245 12.6265 119.884 12.9213C119.692 13.0553 119.465 13.1327 119.231 13.1445H111.93V9.50741Z" fill="#4A4A49"/>
<path d="M90.4872 12.2636H90.4996V12.0649C90.4996 12.0348 90.4996 12.0035 90.4996 11.9733V8.04046V6.78224C90.4996 6.64991 90.4469 6.52296 90.3528 6.4294C90.2589 6.33585 90.1313 6.2832 89.9985 6.2832H89.2572C89.1244 6.2832 88.9968 6.33585 88.9029 6.4294C88.8088 6.52296 88.7561 6.64991 88.7561 6.78224V8.04046V11.9733C88.7478 12.2966 88.6119 12.6035 88.3778 12.8275C88.1439 13.0515 87.8304 13.1747 87.5057 13.1701H81.6234C81.299 13.1741 80.986 13.0506 80.7523 12.8264C80.5187 12.602 80.3833 12.2952 80.3754 11.9722V8.98264V8.66221C80.3755 8.59654 80.3627 8.53157 80.3376 8.47086C80.3124 8.41029 80.2755 8.35509 80.229 8.30867C80.1824 8.26224 80.1271 8.2253 80.0662 8.20026C80.0054 8.17507 79.9399 8.16204 79.8742 8.16204H79.1261C79.0603 8.16204 78.995 8.17507 78.9341 8.20026C78.8732 8.2253 78.818 8.26224 78.7713 8.30867C78.7247 8.35509 78.6879 8.41029 78.6628 8.47086C78.6376 8.53157 78.6249 8.59654 78.625 8.66221V8.98264V11.9733C78.6319 12.7586 78.9511 13.5091 79.5131 14.0601C80.075 14.6112 80.8336 14.918 81.6222 14.9129H87.5046C88.2429 14.9167 88.9566 14.6483 89.5074 14.1589C90.0583 13.6696 90.4075 12.9943 90.4872 12.2636Z" fill="#4A4A49"/>
<path d="M181.957 12.2162H181.97V12.0187C181.97 11.9874 181.97 11.9563 181.97 11.925V7.99308V6.73487C181.97 6.60225 181.916 6.47501 181.824 6.38132C181.729 6.28749 181.6 6.23483 181.468 6.23483H180.728C180.661 6.23469 180.597 6.24742 180.534 6.27262C180.474 6.29767 180.418 6.33448 180.372 6.38089C180.324 6.42746 180.288 6.48265 180.263 6.54337C180.238 6.60409 180.226 6.6692 180.226 6.73487V7.99308V11.925C180.22 12.2482 180.085 12.5559 179.85 12.7806C179.617 13.0052 179.303 13.1281 178.979 13.1228H175.192C175.416 12.4887 175.528 11.6548 175.528 10.5429C175.528 7.66826 174.321 6.21021 171.94 6.21021H169.234C169.12 6.21006 169.006 6.23257 168.9 6.27616C168.795 6.31989 168.699 6.38401 168.617 6.46482C168.317 6.76402 168.236 7.27636 168.626 7.75644C168.676 7.81673 168.738 7.86514 168.809 7.89826C168.88 7.93124 168.958 7.94808 169.036 7.94737H170.006H171.94C172.91 7.94737 173.78 8.14494 173.78 10.5384C173.78 12.155 173.529 12.7254 173.321 12.9185C173.18 13.0491 172.923 13.0994 172.563 13.1184H171.606V13.1306H164.716C164.39 13.1375 164.076 13.016 163.842 12.7927C163.607 12.5695 163.471 12.2627 163.462 11.9394V2.75171V1.69896C163.462 1.56652 163.41 1.43959 163.316 1.34604C163.221 1.25249 163.093 1.19995 162.96 1.19995H162.214C162.081 1.19995 161.954 1.25249 161.86 1.34604C161.766 1.43959 161.712 1.56652 161.712 1.69896V2.75171V11.9394C161.719 12.7245 162.039 13.4747 162.6 14.0259C163.161 14.5769 163.919 14.8835 164.708 14.8789H171.933C172.157 14.8789 172.39 14.8789 172.622 14.8665H178.974C179.714 14.8705 180.427 14.6019 180.977 14.1124C181.528 13.6228 181.877 12.9472 181.957 12.2162Z" fill="#4A4A49"/>
<path d="M159.379 14.2327C160.09 13.5729 160.394 12.4799 160.394 10.5776C160.394 7.70181 159.187 6.2439 156.806 6.2439H154.871H154.099C153.984 6.24376 153.872 6.26612 153.765 6.30985C153.659 6.35358 153.562 6.41756 153.483 6.49837C153.183 6.79757 153.101 7.30893 153.49 7.79014C153.54 7.85042 153.602 7.89884 153.675 7.93194C153.745 7.96493 153.823 7.98163 153.902 7.98092H154.871H156.806C157.775 7.98092 158.645 8.17963 158.645 10.5732C158.645 12.1897 158.396 12.7602 158.187 12.9533C157.976 13.1464 157.501 13.1654 156.806 13.1654H153.081V14.9069H156.806C157.668 14.9114 158.645 14.9114 159.379 14.2327Z" fill="#4A4A49"/>
<path d="M104.077 22.2935H103.334C103.057 22.2935 102.833 22.5168 102.833 22.7924V37.4817C102.833 37.7572 103.057 37.9807 103.334 37.9807H104.077C104.353 37.9807 104.578 37.7572 104.578 37.4817V22.7924C104.578 22.5168 104.353 22.2935 104.077 22.2935Z" fill="#4A4A49"/>
<path d="M181.725 22.2935H180.983C180.707 22.2935 180.482 22.5168 180.482 22.7924V37.4817C180.482 37.7572 180.707 37.9807 180.983 37.9807H181.725C182.002 37.9807 182.227 37.7572 182.227 37.4817V22.7924C182.227 22.5168 182.002 22.2935 181.725 22.2935Z" fill="#4A4A49"/>
<path d="M99.7837 22.3799H89.5798C89.4468 22.3799 89.3194 22.4326 89.2253 22.5261C89.1314 22.6197 89.0786 22.7467 89.0786 22.879V23.6181C89.0786 23.7504 89.1314 23.8773 89.2253 23.9709C89.3194 24.0645 89.4468 24.1169 89.5798 24.1169H93.8161V37.4822C93.8161 37.6146 93.8689 37.7415 93.9629 37.835C94.0569 37.9285 94.1843 37.9812 94.3173 37.9812H95.0496C95.1825 37.9812 95.31 37.9285 95.4039 37.835C95.4979 37.7415 95.5507 37.6146 95.5507 37.4822V24.1169H99.7803C99.8462 24.1169 99.9114 24.1041 99.9722 24.079C100.033 24.054 100.088 24.0172 100.135 23.9709C100.181 23.9244 100.218 23.8695 100.243 23.8089C100.269 23.7484 100.282 23.6836 100.282 23.6181V22.8812C100.282 22.749 100.23 22.6221 100.137 22.5281C100.043 22.4341 99.9164 22.3808 99.7837 22.3799Z" fill="#4A4A49"/>
<path d="M159.118 31.219C161.227 30.6084 162.424 29.1292 162.424 27.0113C162.424 24.0964 160.726 22.4912 157.641 22.4912C156.737 22.4912 156.036 22.4823 155.474 22.4744C153.791 22.451 153.344 22.4443 152.92 22.8585C152.572 23.2002 152.572 23.6243 152.572 23.9057V37.4885C152.572 37.554 152.584 37.6189 152.61 37.6796C152.635 37.74 152.673 37.7951 152.718 37.8414C152.765 37.8877 152.82 37.9245 152.881 37.9496C152.942 37.9746 153.007 37.9876 153.073 37.9876H153.815C153.881 37.9876 153.946 37.9746 154.007 37.9496C154.067 37.9245 154.123 37.8877 154.169 37.8414C154.217 37.7951 154.253 37.74 154.278 37.6796C154.303 37.6189 154.316 37.554 154.316 37.4885V31.5404C154.854 31.5404 155.644 31.5316 156.694 31.5316C156.902 31.5316 157.105 31.5249 157.302 31.5137L161.071 37.4885C161.408 38.0254 161.61 37.9876 161.887 37.9876H162.886C163.162 37.9876 163.245 37.7644 163.072 37.4885L159.118 31.219ZM154.319 29.8023V24.2081C154.605 24.2081 155.007 24.2081 155.449 24.2149C156.017 24.2228 156.725 24.2327 157.641 24.2327C159.772 24.2327 160.675 25.0633 160.675 27.0113C160.675 29.3078 158.511 29.79 156.695 29.79C155.65 29.79 154.86 29.7945 154.319 29.8023Z" fill="#4A4A49"/>
<path d="M118.597 22.2935H117.855C117.722 22.2935 117.594 22.3459 117.5 22.4395C117.406 22.5331 117.353 22.6601 117.353 22.7924V28.9593H110.038V22.7924C110.038 22.6601 109.985 22.5331 109.891 22.4395C109.797 22.3459 109.67 22.2935 109.537 22.2935H108.796C108.663 22.2935 108.535 22.3459 108.441 22.4395C108.347 22.5331 108.294 22.6601 108.294 22.7924V37.4817C108.294 37.614 108.347 37.7409 108.441 37.8345C108.535 37.9281 108.663 37.9807 108.796 37.9807H109.537C109.67 37.9807 109.797 37.9281 109.891 37.8345C109.985 37.7409 110.038 37.614 110.038 37.4817V30.6952H117.353V37.4805C117.353 37.6128 117.406 37.7398 117.5 37.8334C117.594 37.927 117.722 37.9796 117.855 37.9796H118.597C118.73 37.9796 118.857 37.927 118.951 37.8334C119.045 37.7398 119.098 37.6128 119.098 37.4805V22.7924C119.098 22.6601 119.045 22.5331 118.951 22.4395C118.857 22.3459 118.73 22.2935 118.597 22.2935Z" fill="#4A4A49"/>
<path d="M141.135 22.5253C140.239 22.5253 139.538 22.5063 138.976 22.4917C137.551 22.4561 136.959 22.4404 136.486 22.9003C136.286 23.0949 136.155 23.3487 136.111 23.6238C136.078 23.6928 136.056 23.7693 136.056 23.8471V37.4902C136.056 37.5558 136.07 37.6207 136.095 37.6812C136.12 37.7416 136.158 37.7967 136.204 37.8431C136.251 37.8895 136.306 37.9263 136.366 37.9512C136.428 37.9763 136.492 37.9892 136.558 37.9892H136.927C136.937 37.9892 137.457 37.9969 138.229 37.9969C139.043 37.9969 140.141 37.9881 141.209 37.9524C144.695 37.8408 146.463 35.2407 146.463 30.2371C146.464 26.5073 146.054 22.5253 141.135 22.5253ZM141.15 36.2153C139.903 36.2577 138.616 36.2612 137.802 36.2577V24.4141H137.815V24.2221C138.084 24.2133 138.498 24.2221 138.936 24.2356C139.507 24.25 140.219 24.2678 141.14 24.2678C143.566 24.2678 144.719 25.1611 144.719 30.2427C144.717 35.4305 142.809 36.1607 141.15 36.2153Z" fill="#4A4A49"/>
<path d="M131.303 22.9971C130.978 22.7372 130.6 22.5512 130.195 22.4525C129.522 22.2827 128.877 22.2515 127.616 22.2515C126.355 22.2515 125.677 22.3095 125.037 22.4525C124.546 22.5516 124.088 22.7691 123.701 23.0854C122.488 24.1593 122.503 26.3451 122.524 26.8542C122.515 26.8909 122.511 26.9283 122.511 26.9658V29.9722C122.5 30.0134 122.494 30.0558 122.493 30.0985V30.8375C122.494 30.8801 122.5 30.9224 122.511 30.9636V37.4609C122.511 37.5933 122.564 37.7199 122.658 37.8135C122.752 37.907 122.879 37.9597 123.012 37.9599H123.754C123.82 37.9599 123.885 37.9471 123.946 37.922C124.007 37.8968 124.062 37.8602 124.109 37.8137C124.155 37.7674 124.192 37.7124 124.217 37.6518C124.243 37.5914 124.255 37.5264 124.255 37.4609V31.3343H130.774C130.797 31.3331 130.818 31.331 130.839 31.3276V37.4798C130.839 37.6121 130.893 37.7391 130.987 37.8327C131.08 37.9263 131.208 37.9789 131.341 37.9789H132.083C132.216 37.9789 132.344 37.9263 132.437 37.8327C132.532 37.7391 132.585 37.6121 132.585 37.4798V26.9636C132.585 26.9397 132.582 26.9158 132.577 26.8922C132.605 26.4512 132.656 24.0622 131.303 22.9971ZM130.781 29.5971H124.261V26.9636H124.268C124.268 26.9636 124.05 24.2006 125.871 24.051C126.542 23.9962 128.864 23.9985 129.244 24.051C131.053 24.3 130.846 26.9636 130.846 26.9636V29.6038C130.824 29.6 130.802 29.5976 130.781 29.5971Z" fill="#4A4A49"/>
<path d="M174.887 23.0002C174.562 22.7401 174.184 22.5543 173.779 22.4554C173.113 22.2857 172.461 22.2544 171.2 22.2544C169.939 22.2544 169.261 22.3124 168.621 22.4554C168.13 22.5546 167.672 22.772 167.285 23.0883C166.072 24.1623 166.087 26.3482 166.109 26.8571C166.1 26.8939 166.095 26.9312 166.094 26.9689V29.9753C166.084 30.0165 166.077 30.0588 166.077 30.1014V30.8404C166.077 30.883 166.084 30.9253 166.094 30.9665V37.4639C166.094 37.5294 166.107 37.5943 166.133 37.6548C166.158 37.7154 166.195 37.7705 166.243 37.8167C166.289 37.8631 166.343 37.8998 166.405 37.925C166.465 37.95 166.53 37.9629 166.596 37.9629H167.339C167.405 37.9629 167.469 37.95 167.53 37.925C167.591 37.8998 167.646 37.8631 167.693 37.8167C167.74 37.7705 167.777 37.7154 167.801 37.6548C167.827 37.5943 167.841 37.5294 167.841 37.4639V31.3373H174.36C174.381 31.3361 174.402 31.3339 174.424 31.3306V37.4828C174.424 37.6152 174.477 37.7421 174.571 37.8356C174.664 37.9294 174.792 37.9818 174.924 37.9818H175.672C175.804 37.9818 175.933 37.9294 176.026 37.8356C176.121 37.7421 176.173 37.6152 176.173 37.4828V26.9666C176.173 26.9427 176.17 26.9188 176.168 26.8951C176.189 26.4543 176.24 24.0652 174.887 23.0002ZM174.365 29.6H167.846V26.9666H167.852C167.852 26.9666 167.635 24.2037 169.454 24.054C170.126 23.9993 172.449 24.0015 172.828 24.054C174.637 24.303 174.43 26.9666 174.43 26.9666V29.6069C174.409 29.6029 174.386 29.6006 174.365 29.6Z" fill="#4A4A49"/>
<path d="M86.8691 22.3775H85.057C84.6915 22.364 84.2652 22.3562 83.773 22.3562C82.9107 22.3452 82.0487 22.3977 81.1942 22.5136C80.7208 22.5716 80.2765 22.7709 79.9192 23.0852C78.8685 24.0152 78.7394 25.7802 78.7373 26.566V33.8639C78.745 34.671 78.8886 36.3856 79.9192 37.2977C80.2765 37.6121 80.7208 37.8113 81.1942 37.8694C82.0487 37.9853 82.9107 38.0379 83.773 38.0268C84.2652 38.0268 84.6915 38.0189 85.057 38.0056H86.8691C86.9348 38.0056 87.0001 37.9926 87.0608 37.9676C87.1216 37.9425 87.1768 37.9057 87.2235 37.8595C87.27 37.8131 87.3069 37.758 87.3322 37.6976C87.3573 37.6369 87.3703 37.572 87.3703 37.5065V36.7687C87.3703 36.7031 87.3573 36.6382 87.3322 36.5776C87.3069 36.5171 87.27 36.4622 87.2235 36.4157C87.1768 36.3694 87.1216 36.3326 87.0608 36.3076C87.0001 36.2825 86.9348 36.2697 86.8691 36.2697H83.449C82.8492 36.2584 82.2884 36.2395 82.0237 36.2171C80.6782 36.1055 80.5235 34.701 80.4943 33.9073C80.4877 33.7019 80.4854 33.5345 80.4842 33.4607V30.7335H86.8691C87.002 30.7335 87.1293 30.6809 87.2235 30.5873C87.3175 30.4938 87.3703 30.3668 87.3703 30.2345V29.4966C87.3703 29.3642 87.3175 29.2374 87.2235 29.1436C87.1293 29.0501 87.002 28.9976 86.8691 28.9976H80.4842V26.9222C80.4842 26.8497 80.4842 26.681 80.4943 26.4757C80.5235 25.6819 80.675 24.2763 82.0237 24.1659C82.2884 24.1446 82.8492 24.1257 83.449 24.1144H86.8691C87.002 24.1144 87.1293 24.062 87.2235 23.9684C87.3175 23.8749 87.3703 23.7479 87.3703 23.6156V22.8787C87.3705 22.813 87.3578 22.7478 87.3327 22.6871C87.3077 22.6263 87.2708 22.5709 87.2244 22.5243C87.1777 22.4778 87.1224 22.4408 87.0613 22.4157C87.0004 22.3905 86.9351 22.3775 86.8691 22.3775Z" fill="#4A4A49"/>
<path d="M195.442 36.2771H192.021C191.422 36.2659 190.86 36.2469 190.595 36.2247C189.251 36.1131 189.095 34.7086 189.066 33.9149C189.066 33.743 189.059 33.5957 189.059 33.5095V22.7924C189.059 22.6601 189.005 22.5331 188.911 22.4395C188.816 22.3459 188.69 22.2935 188.555 22.2935H187.814C187.682 22.2935 187.554 22.3459 187.461 22.4395C187.366 22.5331 187.312 22.6601 187.312 22.7924V34.0443C187.313 34.0928 187.322 34.141 187.337 34.1872C187.389 35.1216 187.615 36.6624 188.494 37.3053C188.848 37.5644 189.24 37.8032 189.77 37.8768C190.624 37.9927 191.485 38.0454 192.348 38.0344C192.84 38.0344 193.267 38.0264 193.633 38.0132H195.447C195.579 38.0132 195.706 37.9605 195.8 37.8668C195.894 37.7733 195.947 37.6464 195.947 37.514V36.7761C195.947 36.7103 195.934 36.6452 195.907 36.5844C195.884 36.5236 195.846 36.4684 195.799 36.4222C195.753 36.3757 195.696 36.339 195.635 36.3142C195.574 36.2892 195.508 36.2766 195.442 36.2771Z" fill="#4A4A49"/>
</g>
<defs>
<clipPath id="clip0_700_4158">
<rect width="196" height="38.7006" fill="white" transform="translate(0 0.122314)"/>
</clipPath>
</defs>
</svg>
