<svg width="129" height="62" viewBox="0 0 129 62" fill="none" xmlns="http://www.w3.org/2000/svg">
<g clip-path="url(#clip0_700_4063)">
<path d="M40.4033 19.6116H48.5076V22.1817H44.6524V40.24H40.4033V19.6116ZM53.3124 32.496L54.0406 22.1817H54.2845L55.0128 32.496H53.3124ZM48.6069 40.24H52.7672L53.1607 34.7616H55.1643L55.5596 40.24H59.7181L57.5022 19.6116H50.8228L48.6069 40.24ZM65.8034 33.0202V36.909C65.8034 37.4332 66.2215 37.5854 66.4654 37.5854C66.866 37.5854 67.1448 37.2641 67.1448 36.909V32.1073C67.1448 31.4646 67.0228 30.7545 65.4375 30.7545H63.7128V28.4889H65.5072C66.7093 28.4889 67.1448 28.2183 67.1448 26.9501V22.8581C67.1448 22.503 66.866 22.1817 66.4652 22.1817C66.2215 22.1817 65.8034 22.3169 65.8034 22.8581V26.2229H61.5525V23.2978C61.5525 21.8605 61.7267 19.6116 64.7055 19.6116H68.2247C71.2037 19.6116 71.3954 21.8605 71.3954 23.2978V26.5948C71.3954 28.8437 69.7752 29.4524 68.5035 29.4016V29.6046C71.3605 29.537 71.3954 31.6672 71.3954 32.3945V36.554C71.3954 38.0081 71.2037 40.24 68.2247 40.24H64.7055C61.7267 40.24 61.5525 38.0079 61.5525 36.5539V33.0202H65.8034ZM74.183 19.6116H84.0259V40.24H79.7751V22.1817H78.4337V40.24H74.183V19.6116ZM91.0641 30.9573V22.1819H91.6216C92.0745 22.1819 92.4055 22.5536 92.4055 23.2133V29.9258C92.4055 30.5854 92.0745 30.9572 91.6215 30.9572L91.0641 30.9573ZM86.8133 40.24H91.0641V33.223H93.5028C96.4646 33.223 96.6562 30.9911 96.6562 29.5368V23.2978C96.6562 21.8605 96.4646 19.6116 93.503 19.6116H86.8133V40.24ZM105.036 36.909C105.036 37.2641 104.757 37.5854 104.356 37.5854C104.112 37.5854 103.694 37.4332 103.694 36.909V22.8581C103.694 22.3169 104.112 22.1817 104.356 22.1817C104.757 22.1817 105.036 22.503 105.036 22.8581V36.909ZM99.4436 36.554C99.4436 38.0081 99.6351 40.24 102.597 40.24H106.133C109.095 40.24 109.287 38.0079 109.287 36.5539V23.2978C109.287 21.8605 109.095 19.6116 106.133 19.6116H102.597C99.6353 19.6116 99.4436 21.8605 99.4436 23.2978V36.554ZM123.119 19.6116H128.659V40.24H124.408V27.3051H124.251L122.056 40.24H118.659L116.481 27.3051H116.325V40.24H112.074V19.6116H117.596L120.366 34.1191L123.119 19.6116ZM34.8947 12.0029C33.5934 6.47382 30.332 1.97624 29.8826 1.24902C29.1718 2.28035 26.5709 6.25407 25.2486 10.6502C23.8044 15.5705 23.5918 19.9329 24.0903 24.2107C24.585 28.5055 26.4541 32.9187 26.4541 32.9187C27.4472 35.2182 28.9349 37.7036 29.9036 38.9212C31.3233 37.1289 34.5864 31.7857 35.6037 24.8195C36.17 20.9305 36.1944 17.532 34.8947 12.0029ZM29.8826 37.5347C29.2433 36.368 28.2502 34.1528 28.1561 30.7035C28.1317 27.3896 29.5028 24.5319 29.9036 23.9403C30.2607 24.5321 31.4418 27.0175 31.5829 30.4162C31.6787 33.7303 30.5429 36.3509 29.8826 37.5347ZM34.5167 21.3869C34.4679 23.5006 34.2083 25.7325 33.8773 27.0684C33.9958 24.7688 33.7119 21.5393 33.1682 19.003C32.6247 16.4836 31.0864 12.2566 29.8584 10.312C28.7242 12.172 27.3269 15.8241 26.5953 18.9861C25.8601 22.1479 25.8393 25.9862 25.8393 27.136C25.644 26.172 25.1563 22.706 25.2939 19.2397C25.409 16.3822 26.0987 13.4233 26.4768 12.0705C27.9192 7.55599 29.5516 4.66462 29.8582 4.20799C30.165 4.66462 32.2205 8.23237 33.2867 11.969C34.3478 15.7059 34.562 19.2902 34.5167 21.3869Z" fill="#4A4A49"/>
<path d="M32.0902 40.2063H22.1967V46.6485C22.2056 46.6485 22.2125 46.6316 22.2211 46.6316C24.5521 44.3659 28.3326 44.3659 30.6653 46.6316C32.9962 48.8805 32.9962 52.5495 30.6653 54.8153C30.6548 54.8321 30.6442 54.8321 30.6339 54.849C30.6217 54.849 30.6095 54.866 30.599 54.8829C28.2733 57.1149 25.2351 58.2308 22.1967 58.2308C19.1447 58.2308 16.0924 57.1149 13.765 54.849C9.66047 50.8755 9.17442 44.7039 12.3033 40.2063C12.7328 39.5876 13.2223 39.0101 13.765 38.4817C16.0924 36.216 19.1447 35.1 22.1967 35.1V19.6118C10.4689 19.6118 0.962158 28.8269 0.962158 40.2063C0.962158 51.5858 10.4689 60.8178 22.1967 60.8178C28.3116 60.8178 33.8202 58.2984 37.6946 54.2911V40.2063H32.0902ZM128.659 46.267H40.4037V60.8178H128.659V46.267ZM121.028 56.425H122.147V54.2286H121.028V56.425ZM121.028 52.5814H122.722L123.856 53.1306L124.136 53.6796L124.416 54.7778V55.3268C124.387 59.2606 121.779 57.8206 119.039 58.0724V49.0124H121.028V52.5814ZM106.31 49.0124V50.6596H104.895V58.0724H102.641V50.6596H101.227V49.0124H106.31ZM85.6688 55.6014H85.9487L86.5086 55.3268V51.4832H85.6688V55.6014ZM83.4 51.4834H82.5454V55.3268L83.1199 55.6014H83.4V51.4834ZM85.6688 49.0124V49.836H87.0832L87.923 50.385L88.4975 50.9342L88.7774 52.0324V55.0524L88.4977 56.1506L87.923 56.6996L87.0832 57.2486H85.6688V58.0722H83.4V57.2486H81.9856L81.1312 56.6996L80.5713 56.1506L80.2914 55.0524V52.0324L80.5711 50.9342L81.1312 50.385L81.9856 49.836H83.4V49.0124H85.6688ZM67.2764 49.0124V50.6596H65.5792V52.5814H67.2764V54.2286H65.5792V56.425H67.5593V58.0722H63.3162V49.0124H67.2764ZM46.9097 52.5814H48.0412V49.0124H50.0213V58.0724H48.0412V54.2286H46.9097V58.0724H44.6467V49.0124H46.9097V52.5814Z" fill="#4A4A49"/>
</g>
<defs>
<clipPath id="clip0_700_4063">
<rect width="127.697" height="60.8788" fill="white" transform="translate(0.961182 0.594238)"/>
</clipPath>
</defs>
</svg>
