<svg width="124" height="70" viewBox="0 0 124 70" fill="none" xmlns="http://www.w3.org/2000/svg">
<path d="M3.29517 35.0309C3.29517 16.5998 30.5424 2.87524 61.9945 2.87524C93.4466 2.87524 120.708 16.5998 120.708 35.0309C120.708 53.4676 93.4466 67.1584 61.9945 67.1584C30.5424 67.1584 3.29517 53.4676 3.29517 35.0309Z" fill="#E7E7E7"/>
<path fill-rule="evenodd" clip-rule="evenodd" d="M61.9943 1.35596C95.2544 1.35596 122.249 16.4445 122.249 35.0303C122.249 53.6189 95.2544 68.7018 61.9943 68.7018C28.7481 68.7018 1.75317 53.6189 1.75317 35.0303C1.75317 16.4445 28.7481 1.35596 61.9943 1.35596ZM61.9943 4.39336C30.4301 4.39336 4.79466 18.146 4.79466 35.0303C4.79466 51.9216 30.4301 65.6419 61.9943 65.6419C93.5584 65.6419 119.194 51.9216 119.194 35.0303C119.194 18.146 93.5584 4.39336 61.9943 4.39336ZM51.4121 38.2631H39.5545C39.6947 41.1909 41.3346 42.5478 43.7874 42.5478C45.6095 42.5478 46.8569 41.5185 47.1793 40.4821H51.0617C50.0666 44.0243 47.1793 45.664 43.6192 45.664C38.5734 45.664 35.4338 42.1808 35.4338 37.2057C35.4338 32.3866 38.7556 28.7164 43.6192 28.7164C49.0855 28.7164 51.7205 33.3189 51.4121 38.2631ZM43.5071 31.751C41.0402 31.751 39.7788 33.3977 39.5826 35.5042H47.2774C46.983 33.2557 46.044 31.751 43.5071 31.751ZM102.753 38.2631H90.8954C91.0215 41.1909 92.6755 42.5478 95.1142 42.5478C96.9503 42.5478 98.1978 41.5185 98.5201 40.4821H102.403C101.407 44.0243 98.5201 45.664 94.9601 45.664C89.9003 45.664 86.7747 42.1808 86.7747 37.2057C86.7747 32.3866 90.0965 28.7164 94.9601 28.7164C100.426 28.7164 103.061 33.3189 102.753 38.2631ZM94.8339 31.751C92.3811 31.751 91.1197 33.3977 90.9094 35.5042H98.6183C98.3239 33.2557 97.3848 31.751 94.8339 31.751ZM14.69 45.2281H19.0911V35.6504H28.594V45.2281H32.995V22.9834H28.594V32.0913H19.0911V22.9834H14.69V45.2281ZM53.8369 45.2281H57.9857V36.5321C57.9857 33.2669 59.135 31.9296 61.5177 31.9296C63.5641 31.9296 64.4891 33.236 64.4891 35.8782V45.2281H68.6239V35.3396C68.6239 31.3601 67.4465 28.7164 62.7511 28.7164C60.901 28.7164 58.9668 29.5883 57.8595 31.391H57.7614V29.1524H53.8369V45.2281ZM72.1559 45.2281H76.2906V36.5223L82.4017 45.2281H87.5456L80.8178 36.2073L86.7747 29.1524H81.841L76.2906 36.0835V22.9834H72.1559V45.2281ZM105.178 45.2281H109.313V22.9834H105.178V45.2281Z" fill="#4A4A49"/>
</svg>
