<svg width="196" height="118" viewBox="0 0 196 118" fill="none" xmlns="http://www.w3.org/2000/svg">
<path d="M58.6364 47.6489H15.4558V91.6957H58.6364V47.6489Z" fill="#4A4A49"/>
<path d="M51.6626 52.037C50.6702 52.037 49.9187 52.7086 49.5443 53.5156L44.1073 62.6462C43.7303 63.4907 43.4551 64.4394 43.4551 65.0673C43.4551 65.6285 43.5306 66.1243 43.7322 66.5812L49.6136 80.9134H26.7748C25.9527 80.9134 25.2742 80.0711 25.2742 79.2934V54.6054C25.1014 51.2303 20.3459 51.2322 20.2412 54.7114L20.3451 80.9134C20.3451 83.762 22.504 86.0442 25.2742 86.0442H56.4127L48.8229 66.2337C48.6134 65.4962 48.5201 64.8273 49.0306 63.9481L54.0521 55.6186C54.1227 55.4449 54.2252 54.7105 54.2252 54.4994C54.1257 52.9869 52.9638 51.9702 51.6626 52.037ZM39.3341 52.0488C38.1127 52.0572 36.8927 52.9179 36.8927 54.6054V72.2717C36.8927 74.8371 33.5104 74.6259 33.5104 72.2717V54.6054C33.5104 51.2303 28.616 51.2303 28.616 54.6054V72.4131C28.616 76.4856 31.5971 79.1933 35.1554 79.1933C38.8105 79.1933 41.7813 76.4856 41.7813 72.4131V54.6054C41.7813 52.8845 40.5555 52.0405 39.3341 52.0488Z" fill="#E7E7E7"/>
<path d="M67.0954 52.825V64.4787C67.0954 67.3914 66.8048 69.0108 64.4797 69.0108C64.0451 69.0108 63.7545 69.0108 63.3198 68.8505V73.8663C64.1891 74.1923 64.7704 74.1923 65.4982 74.1923C72.0335 74.1923 72.3241 69.1738 72.3241 66.2584V57.8434H76.0996V73.8663H81.3257V52.825H67.0954Z" fill="#4A4A49"/>
<path d="M83.0696 52.825L90.1861 68.0408L87.573 73.8663H93.2364L101.659 52.825H95.996L92.9457 61.7262L89.3142 52.825H83.0696Z" fill="#4A4A49"/>
<path d="M103.256 73.8663H108.485V64.802L113.858 73.8663H120.537L113.132 63.0223L120.393 52.825H114.148L108.485 61.7262V52.825H103.256V73.8663Z" fill="#4A4A49"/>
<path d="M129.107 74.5154C136.077 74.5154 139.271 69.0106 139.271 63.3454C139.271 57.8432 136.077 52.3384 129.107 52.3384C122.281 52.3384 119.087 57.8432 119.087 63.3454C119.087 69.0106 122.281 74.5154 129.107 74.5154ZM129.107 69.4969C126.782 69.4969 124.46 67.3912 124.46 63.3454C124.46 59.2996 126.782 57.3569 129.107 57.3569C131.576 57.3569 133.899 59.2996 133.899 63.3454C133.899 67.3912 131.576 69.4969 129.107 69.4969Z" fill="#4A4A49"/>
<path d="M141.887 52.8249V73.8662H146.969L154.23 61.2425V73.8662H159.314V52.8249H154.23L146.969 65.4513V52.8249H141.887ZM150.745 51.6918C152.923 51.6918 155.101 50.8821 156.12 48.453L153.07 47.1597C152.632 48.7791 151.326 48.9394 150.745 48.9394C150.31 48.9394 148.857 48.7791 148.566 47.1597L145.519 48.453C146.388 50.8821 148.713 51.6918 150.745 51.6918Z" fill="#4A4A49"/>
<path d="M164.833 52.825V64.4787C164.833 67.3914 164.54 69.0108 162.218 69.0108C161.783 69.0108 161.492 69.0108 161.055 68.8505V73.8663C161.927 74.1923 162.508 74.1923 163.234 74.1923C169.769 74.1923 170.059 69.1738 170.059 66.2584V57.8434H173.835V73.8663H179.064V52.825H164.833Z" fill="#4A4A49"/>
<path d="M63.3621 85.6748H64.0978V81.7707H68.3944V85.6748H69.1301V78.0215H68.3944V81.156H64.0978V78.0215H63.3621V85.6748Z" fill="#4A4A49"/>
<path d="M71.0024 85.6748H75.032V85.0602H71.7382V81.6958H74.9011V81.0812H71.7382V78.6388H75.032V78.0215H71.0024V85.6748Z" fill="#4A4A49"/>
<path d="M79.8814 85.675H80.6093V84.6222H80.9156C83.3401 84.6222 84.3429 83.1578 84.3429 81.6239C84.3429 79.8281 83.0416 78.639 80.9156 78.639H80.6093V77.7197H79.8814V78.639H79.5855C77.4464 78.639 76.1477 79.8281 76.1477 81.6239C76.1477 83.1578 77.1505 84.6222 79.5855 84.6222H79.8814V85.675ZM80.6093 79.2536C83.0416 79.2857 83.5758 80.4454 83.5758 81.6239C83.5758 83.4624 82.3792 83.9407 80.6093 84.0049V79.2536ZM79.8814 84.0049C78.1114 83.9407 76.9149 83.4624 76.9149 81.6239C76.9149 80.4454 77.4464 79.2857 79.8814 79.2536V84.0049Z" fill="#4A4A49"/>
<path d="M87.0001 85.6748H87.707V78.6388H89.7021V78.0215H85.0076V78.6388H87.0001V85.6748Z" fill="#4A4A49"/>
<path d="M90.5708 85.6748H91.3982L93.3933 82.3131H94.0269V85.6748H94.7653V78.0215H93.0346C90.7645 78.0215 90.4373 79.558 90.4373 80.2368C90.4373 81.5302 91.4296 82.3131 92.5973 82.2704L90.5708 85.6748ZM94.0269 81.6958H92.9639C92.3617 81.6958 91.1651 81.6237 91.1651 80.162C91.1651 78.743 92.4324 78.6388 93.0346 78.6388H94.0269V81.6958Z" fill="#4A4A49"/>
<path d="M96.6482 85.6748H97.3839V81.7707H101.681V85.6748H102.416V78.0215H101.681V81.156H97.3839V78.0215H96.6482V85.6748Z" fill="#4A4A49"/>
<path d="M103.49 85.6748H104.228L105.26 83.1896H108.42L109.454 85.6748H110.19L106.826 77.8237L103.49 85.6748ZM105.527 82.5857L106.826 79.4538L108.156 82.5857H105.527Z" fill="#4A4A49"/>
<path d="M111.041 85.6748H111.869L113.864 82.3131H114.497V85.6748H115.233V78.0215H113.505C111.235 78.0215 110.908 79.558 110.908 80.2368C110.908 81.5302 111.9 82.3131 113.065 82.2704L111.041 85.6748ZM114.497 81.6958H113.434C112.83 81.6958 111.633 81.6237 111.633 80.162C111.633 78.743 112.903 78.6388 113.505 78.6388H114.497V81.6958Z" fill="#4A4A49"/>
<path d="M119.603 85.6748H120.339V81.9684L123.703 85.6748H124.664L121.032 81.7279L124.604 78.0215H123.703L120.339 81.5916V78.0215H119.603V85.6748Z" fill="#4A4A49"/>
<path d="M129.411 85.9153C131.642 85.9153 133.472 84.2772 133.472 81.8642C133.472 79.4538 131.642 77.8237 129.411 77.8237C127.212 77.8237 125.382 79.4538 125.382 81.8642C125.382 84.2772 127.212 85.9153 129.411 85.9153ZM129.411 85.2686C127.581 85.2686 126.149 83.8684 126.149 81.8642C126.149 79.86 127.581 78.4303 129.411 78.4303C131.244 78.4303 132.705 79.86 132.705 81.8642C132.705 83.8684 131.244 85.2686 129.411 85.2686Z" fill="#4A4A49"/>
<path d="M134.485 85.675H135.192L135.885 80.0259L138.648 86.0198L141.379 80.0259L142.117 85.675H142.779L141.748 77.7197L138.648 84.558L135.516 77.7197L134.485 85.675Z" fill="#4A4A49"/>
<path d="M144.163 78.0215V85.6748H144.899V78.6388H149.195V85.6748H149.931V78.0215H144.163Z" fill="#4A4A49"/>
<path d="M151.006 85.6748H151.742L152.773 83.1896H155.936L156.968 85.6748H157.704L154.339 77.8237L151.006 85.6748ZM153.041 82.5857L154.339 79.4538L155.669 82.5857H153.041Z" fill="#4A4A49"/>
<path d="M158.748 85.6748H159.484V81.7707H163.78V85.6748H164.519V78.0215H163.78V81.156H159.484V78.0215H158.748V85.6748Z" fill="#4A4A49"/>
<path d="M166.389 78.0217V86.0198L171.526 79.6197V85.675H172.251V77.7197L167.127 84.077V78.0217H166.389Z" fill="#4A4A49"/>
<path d="M173.908 85.6748H174.736L176.731 82.3131H177.365V85.6748H178.103V78.0215H176.375C174.102 78.0215 173.775 79.558 173.775 80.2368C173.775 81.5302 174.767 82.3131 175.935 82.2704L173.908 85.6748ZM177.365 81.6958H176.302C175.699 81.6958 174.503 81.6237 174.503 80.162C174.503 78.743 175.77 78.6388 176.375 78.6388H177.365V81.6958Z" fill="#4A4A49"/>
</svg>
