<svg width="196" height="50" viewBox="0 0 196 50" fill="none" xmlns="http://www.w3.org/2000/svg">
<path d="M61.4844 15.1433V35.5175H66.0533V19.2328H76.9593V35.5175H81.5649V15.1433H61.4844ZM89.5594 25.349C89.5594 21.1488 92.5437 18.6061 96.3753 18.6061C100.208 18.6061 103.191 21.1488 103.191 25.349C103.191 29.5491 100.208 32.0914 96.3753 32.0914C92.5437 32.0914 89.5594 29.5492 89.5594 25.349ZM107.796 25.349C107.796 18.9378 102.565 14.6641 96.3753 14.6641C90.1861 14.6641 84.9544 18.9378 84.9544 25.349C84.9544 31.7602 90.1861 36.0339 96.3753 36.0339C102.565 36.0339 107.796 31.7601 107.796 25.349ZM116.16 15.1433L113.434 29.733C113.213 30.8381 112.512 31.3172 111.444 31.3172H109.234V35.5175H111.665C115.018 35.5175 117.265 33.9331 117.928 30.3225L119.992 19.2686H127.802V35.517H132.408V15.1428L116.16 15.1433ZM136.829 15.1433V35.5175H141.361V26.8964H144.456C145.155 32.7544 149.834 36.0339 155.509 36.0339C161.661 36.0339 166.635 32.1651 166.635 25.349C166.635 18.5331 161.662 14.6641 155.509 14.6641C150.168 14.6641 145.709 17.5751 144.64 22.7696H141.361V15.1438L136.829 15.1433ZM148.951 25.349C148.951 21.1488 151.199 18.6061 155.509 18.6061C159.821 18.6061 162.068 21.1488 162.068 25.349C162.068 29.5491 159.821 32.0914 155.509 32.0914C151.2 32.0914 148.951 29.5492 148.951 25.349ZM191.1 20.1173C189 16.5429 185.538 14.6641 180.785 14.6641C174.373 14.6641 169.399 18.7543 169.399 25.349C169.399 31.9439 174.263 36.0339 180.785 36.0339C185.538 36.0339 189 34.155 191.1 30.5812L187.526 28.5177C185.979 30.7285 183.953 31.9442 180.71 31.9442C176.731 31.9442 173.968 29.2914 173.968 25.3492C173.968 21.3332 176.621 18.7548 180.71 18.7548C183.953 18.7548 185.979 19.9705 187.526 22.1808L191.1 20.1179" fill="#4A4A49"/>
<path d="M28.6049 6.2771L26.1967 20.7463C26.1399 21.0906 25.7691 21.2456 25.4454 21.1197L18.2077 18.3233C17.3116 17.9771 17.0121 17.3041 17.1352 16.5605L18.6766 7.30097C18.8009 6.55891 19.3016 6.01888 20.2625 5.98154L28.0153 5.67989C28.3626 5.6671 28.6626 5.93337 28.6049 6.2771ZM7.82651 16.6946L20.8581 23.4277C21.1674 23.5877 21.2017 23.9881 20.9829 24.2577L16.099 30.2876C15.4945 31.0339 14.7627 31.1126 14.0932 30.7669L5.75342 26.4583C5.08452 26.1121 4.7255 25.4697 4.98427 24.5441L7.07745 17.0726C7.17104 16.7371 7.51713 16.5346 7.82651 16.6946ZM11.313 39.6173L21.7578 29.319C22.0064 29.0741 22.3971 29.1661 22.5863 29.4582L26.8024 35.9708C27.3245 36.7777 27.1721 37.4984 26.6361 38.0277L19.9515 44.6177C19.415 45.1465 18.6929 45.2887 17.8931 44.7549L11.4403 40.4467C11.1509 40.2539 11.0654 39.8622 11.313 39.6173ZM34.3141 43.353L27.6706 30.2749C27.5127 29.964 27.7191 29.6204 28.0543 29.5288L35.5395 27.4878C36.4667 27.2352 37.1069 27.5987 37.448 28.2708L41.6989 36.6395C42.04 37.3116 41.9566 38.0428 41.2059 38.6432L35.1421 43.4841C34.87 43.701 34.471 43.6634 34.3141 43.353ZM44.8918 22.8174L30.3858 24.9956C30.0412 25.0466 29.7798 24.7424 29.7987 24.3956L30.2237 16.6477C30.2764 15.6888 30.8235 15.1959 31.5687 15.0839L40.8508 13.6908C41.5959 13.5783 42.2638 13.8887 42.5962 14.7903L45.2775 22.0717C45.3972 22.398 45.2366 22.7658 44.8918 22.8174Z" fill="#4A4A49"/>
</svg>
