<svg width="196" height="44" viewBox="0 0 196 44" fill="none" xmlns="http://www.w3.org/2000/svg">
<path d="M3.36163 38.4033L28.7035 32.3688C28.9193 32.3161 29.5353 32.1864 30.0707 32.2184C30.498 32.2415 30.7542 32.2599 31.1499 32.4252C31.6877 32.6447 32.0956 33.0916 32.3271 33.3378L41.5478 43.0878H41.6566L0.612549 43.1155L3.36163 38.4033ZM44.0419 43.0864L26.1432 24.1563C25.9928 23.9971 25.5687 23.5278 25.3274 23.0488C25.1353 22.6669 25.026 22.4375 24.9686 22.0137C24.8913 21.4367 25.0751 20.8597 25.1695 20.5363L29.0038 7.67617L28.9501 7.58179L49.496 43.1145L44.0419 43.0864Z" fill="#4A4A49"/>
<path d="M27.6668 5.47983L20.2212 30.4456C20.1587 30.6554 19.9665 31.2565 19.6712 31.7061C19.436 32.0626 19.2901 32.2734 18.9521 32.5355C18.49 32.8883 17.8998 33.0206 17.5715 33.0977L4.51897 36.2105L4.46387 36.3022L24.9632 0.744873L27.6668 5.47983Z" fill="#4A4A49"/>
<path d="M57.5769 13.1539H63.1703C67.0671 13.1539 68.863 15.5561 68.863 18.4019C68.863 21.201 66.9666 23.5015 62.8224 23.5015H60.1482V31.0317H57.5781L57.5769 13.1539ZM60.1482 21.2035H63.0698C64.9686 21.2035 66.2181 20.0752 66.2181 18.3038C66.2181 16.9808 65.4929 15.4533 63.1715 15.4533H60.1482V21.2035ZM94.1668 28.7348H102.234V31.033H91.5955V13.1539H94.1668V28.7348ZM103.225 13.1551L108.043 19.3255L112.884 13.1551H115.982L109.341 21.5942V31.033H106.769V21.5686L100.125 13.1551H103.225ZM120.717 13.1551L126.635 20.4978L132.578 13.1551H134.976V31.033H132.402V17.1254H132.353L126.835 24.0418H126.436L120.913 17.1254H120.867V31.033H118.295V13.1551H120.717ZM182.572 31.033H179.952L177.554 25.7653H169.962L167.69 31.033H165.071L172.761 13.0571H174.556L182.572 31.033ZM170.964 23.4673H176.502L173.636 16.9735L170.964 23.4673ZM187.322 28.7348H195.387V31.033H184.752V13.1539H187.322V28.7348ZM149.626 13.1857V15.4789H141.381V20.7H149.444V22.9981H141.381V28.7703H149.937V31.0635H138.8V13.1857H149.626ZM166.394 13.1857V15.4789H160.362V31.0635H157.794V15.4789H151.763V13.1857H166.394ZM79.6063 13.0278C85.2438 13.0278 88.8012 17.2334 88.8012 22.2167C88.8012 27.0445 85.3406 31.3994 79.5549 31.3994C73.9639 31.3994 70.4272 27.069 70.4272 22.2167C70.4272 17.264 74.0619 13.0278 79.6063 13.0278ZM79.6063 29.0486C83.4504 29.0486 86.2667 26.1221 86.2667 22.218C86.2667 18.2881 83.4504 15.3848 79.6063 15.3848C75.7818 15.3848 72.9643 18.2881 72.9643 22.218C72.9643 26.1221 75.7818 29.0486 79.6063 29.0486ZM92.9945 35.2264H93.5861V42.7013H92.9945V35.2264ZM94.9974 35.2355H95.545L101.158 41.7576V35.2355H101.739V42.7009H101.257L95.589 36.1445V42.7009H94.9974V35.2355ZM102.447 35.2264H108.62V35.7176H105.829V42.7002H105.236V35.7176H102.447V35.2264ZM109.405 35.2355H113.486V35.7281H109.996V38.695H113.397V39.1887H109.996V42.2071H113.573V42.7009H109.405V35.2355ZM116.582 35.2355C118.868 35.2355 119.141 36.4287 119.141 37.1735C119.141 38.0813 118.562 38.7281 117.752 38.9681C118.025 39.1325 118.409 39.593 118.562 39.8319C118.562 39.8319 120.268 42.4583 120.431 42.6996H119.754L118.352 40.5117C117.718 39.5267 117.378 39.12 116.525 39.12H115.355V42.6996H114.763V35.2355H116.582ZM115.356 38.6289H116.602C117.992 38.6289 118.518 37.9943 118.518 37.1735C118.518 36.2107 117.881 35.7281 116.34 35.7281H115.356V38.6289ZM121.033 35.2355H121.58L127.194 41.7576V35.2355H127.774V42.7009H127.29L121.623 36.1445V42.7009H121.033V35.2355ZM131.907 35.1804H132.246L135.692 42.7009H135.091L133.909 40.1173H130.264L129.082 42.7009H128.481L131.907 35.1804ZM132.08 36.125L130.463 39.6236H133.678L132.08 36.125ZM135.778 35.2258H141.952V35.7171H139.159V42.6996H138.567V35.7171H135.778V35.2258ZM142.735 35.2247H143.327V42.6996H142.735V35.2247ZM152.452 38.9352C152.452 41.1145 150.744 42.7977 148.512 42.7977C146.312 42.7977 144.561 41.1366 144.561 38.9683C144.561 36.7915 146.268 35.1389 148.512 35.1389C150.711 35.1389 152.452 36.767 152.452 38.9352ZM151.827 38.9352C151.827 37.1295 150.372 35.6644 148.512 35.6644C146.607 35.6644 145.185 37.1723 145.185 39.0135C145.185 40.829 146.639 42.2733 148.489 42.2733C150.428 42.2733 151.827 40.7752 151.827 38.9352ZM153.74 35.2357H154.287L159.899 41.7576V35.2357H160.482V42.7009H159.998L154.331 36.1446V42.7009H153.74V35.2357ZM164.615 35.1806H164.952L168.399 42.7009H167.798L166.615 40.1173H162.971L161.789 42.7009H161.187L164.615 35.1806ZM164.789 36.125L163.171 39.6238H166.386L164.789 36.125ZM169.185 35.2259H169.777V42.2072H173.466V42.6996H169.185V35.2259ZM178.373 35.2351H180.51C181.676 35.2351 182.849 35.7166 182.849 37.2258C182.849 38.7032 181.676 39.209 180.51 39.209H178.964V42.6979H178.373V35.2351ZM178.965 35.7264V38.7043H180.356C181.361 38.7275 182.227 38.3984 182.227 37.2271C182.227 36.0572 181.361 35.7264 180.356 35.7264H178.965ZM183.953 35.2241H184.544V42.2055H188.231V42.6979H183.953V35.2241ZM192.75 42.2716C193.714 42.2716 194.558 41.9211 195.387 41.5035V42.1074C194.545 42.5339 193.702 42.796 192.75 42.796C190.508 42.796 188.78 41.1985 188.78 38.9996C188.78 36.8534 190.453 35.1359 192.685 35.1359C193.78 35.1359 194.557 35.4202 195.313 35.7607V36.3841C194.524 35.9813 193.834 35.6639 192.773 35.6639C190.771 35.6639 189.402 37.0836 189.402 38.9787C189.401 40.8714 190.816 42.2716 192.75 42.2716Z" fill="#4A4A49"/>
</svg>
