<svg width="135" height="86" viewBox="0 0 135 86" fill="none" xmlns="http://www.w3.org/2000/svg">
<g clip-path="url(#clip0_700_4069)">
<path fill-rule="evenodd" clip-rule="evenodd" d="M67.6932 13.1811L68.0581 13.0801C49.9075 18.707 35.5467 28.3469 35.2512 35.427C34.9351 43.0057 50.8528 44.783 70.7955 39.3999C90.7382 34.0168 107.166 23.5045 107.481 15.9266C107.644 12.0001 103.444 9.63228 96.5869 9.00903C104.968 9.38298 110.218 11.8234 110.218 16.1799C110.218 24.4835 91.1757 36.6062 67.6932 43.256C44.2107 49.9059 25.168 48.5591 25.168 40.2557C25.168 31.9523 44.2107 19.8294 67.6932 13.1818" fill="#4A4A49"/>
<path fill-rule="evenodd" clip-rule="evenodd" d="M34.3938 56.841L93.3459 0.306641L88.0023 44.7485L78.2547 33.5991L34.3938 56.841Z" fill="#4A4A49"/>
<path d="M11.0307 75.718C11.0307 78.1068 9.31026 80.4128 6.33199 80.4128H3.31005V85.1081H0.624023V71.0227H5.65917C9.33097 71.0227 11.0307 72.9924 11.0307 75.718ZM8.34495 75.718C8.34495 74.3967 7.2968 73.7057 5.99558 73.7057H3.31005V77.7299H5.99558C7.29754 77.7299 8.34495 76.8915 8.34495 75.718Z" fill="#4A4A49"/>
<path d="M27.5694 78.0635C27.5699 79.5231 27.1371 80.9501 26.3257 82.1639C25.5143 83.3778 24.3608 84.324 23.011 84.8829C21.6613 85.4418 20.1759 85.5883 18.7428 85.3038C17.3097 85.0194 15.9932 84.3168 14.9599 83.2848C13.9266 82.2529 13.2228 80.9381 12.9375 79.5066C12.6523 78.0751 12.7984 76.5912 13.3575 75.2427C13.9165 73.8942 14.8633 72.7415 16.0782 71.9306C17.293 71.1196 18.7213 70.6868 20.1824 70.6868C22.1402 70.6899 24.0169 71.4681 25.4015 72.8507C26.786 74.2334 27.5656 76.1078 27.5694 78.0635ZM24.8834 78.0635C24.8831 77.135 24.6072 76.2274 24.0906 75.4555C23.574 74.6836 22.8399 74.082 21.9811 73.7268C21.1223 73.3716 20.1774 73.2788 19.2657 73.46C18.3541 73.6413 17.5168 74.0885 16.8595 74.745C16.2023 75.4016 15.7547 76.2381 15.5733 77.1488C15.3919 78.0595 15.4849 79.0034 15.8405 79.8613C16.1961 80.7192 16.7984 81.4525 17.5711 81.9685C18.3439 82.4845 19.2524 82.7601 20.1819 82.7603C20.7997 82.7616 21.4117 82.641 21.9827 82.4054C22.5537 82.1698 23.0725 81.8239 23.5093 81.3875C23.9462 80.9511 24.2924 80.4328 24.5282 79.8624C24.764 79.292 24.8847 78.6807 24.8834 78.0635Z" fill="#4A4A49"/>
<path d="M40.4746 81.3146L41.502 83.7473C40.2262 84.8359 38.6054 85.4375 36.9276 85.4452C32.7936 85.4452 29.4158 82.1323 29.4158 78.066C29.4158 73.9997 32.7936 70.6892 36.9276 70.6892C38.5013 70.6892 40.3069 71.2756 41.502 72.3657L40.4736 74.7974C39.5378 73.8822 38.2796 73.3705 36.97 73.3727C34.2842 73.3727 32.1018 75.4668 32.1018 78.066C32.1018 80.6652 34.2842 82.7628 36.97 82.7628C37.6215 82.7686 38.2676 82.6434 38.8697 82.3946C39.4717 82.1458 40.0175 81.7785 40.4746 81.3146Z" fill="#4A4A49"/>
<path d="M56.3927 85.1081H52.9932L47.6623 78.9457V85.1081H44.9771V71.0227H47.6623V76.8501L52.6576 71.0227H56.0573L50.0122 77.7505L56.3927 85.1081Z" fill="#4A4A49"/>
<path d="M71.7237 78.0635C71.7242 79.5232 71.2914 80.9502 70.4799 82.1641C69.6685 83.3779 68.5148 84.3242 67.165 84.883C65.8152 85.4419 64.3297 85.5883 62.8966 85.3037C61.4634 85.0191 60.147 84.3164 59.1137 83.2843C58.0804 82.2522 57.3767 80.9373 57.0916 79.5057C56.8066 78.074 56.9529 76.5902 57.5122 75.2416C58.0715 73.8931 59.0185 72.7406 60.2336 71.9298C61.4486 71.1191 62.877 70.6865 64.3382 70.6868C66.2958 70.6899 68.1724 71.4681 69.5567 72.8508C70.9411 74.2335 71.7203 76.108 71.7237 78.0635ZM69.0385 78.0635C69.0382 77.135 68.7623 76.2273 68.2456 75.4554C67.729 74.6834 66.9948 74.0819 66.1359 73.7267C65.277 73.3716 64.332 73.2788 63.4203 73.4601C62.5087 73.6415 61.6713 74.0888 61.0141 74.7455C60.3569 75.4022 59.9094 76.2388 59.7282 77.1496C59.547 78.0603 59.6401 79.0043 59.9959 79.8622C60.3517 80.7201 60.9542 81.4533 61.7271 81.9691C62.5 82.485 63.4087 82.7603 64.3382 82.7603C64.9558 82.7614 65.5676 82.6405 66.1384 82.4048C66.7091 82.1691 67.2277 81.8232 67.6643 81.3868C68.101 80.9504 68.447 80.4322 68.6827 79.862C68.9184 79.2917 69.039 78.6805 69.0377 78.0635H69.0385Z" fill="#4A4A49"/>
<path d="M84.6281 81.3146L85.6566 83.7463C84.3809 84.8348 82.7603 85.4364 81.0826 85.4443C76.9486 85.4443 73.5708 82.1313 73.5708 78.065C73.5708 73.9987 76.9486 70.6882 81.0826 70.6882C82.6566 70.6882 84.4602 71.2746 85.6566 72.3648L84.6281 74.7964C83.6924 73.8813 82.4345 73.3697 81.125 73.3717C78.4392 73.3717 76.2563 75.4658 76.2563 78.065C76.2563 80.6642 78.4392 82.7618 81.125 82.7618C81.7762 82.7675 82.4219 82.6424 83.0238 82.3937C83.6256 82.1451 84.1712 81.7781 84.6281 81.3146Z" fill="#4A4A49"/>
<path d="M104.618 85.1081H101.764L100.589 75.8855L96.8971 85.1081H95.5545L91.861 75.8855L90.6858 85.1081H87.8315L89.8463 71.0227H92.5318L96.2253 80.0783L99.9188 71.0227H102.605L104.618 85.1081Z" fill="#4A4A49"/>
<path d="M120.828 78.0633C120.828 79.5229 120.395 80.9498 119.584 82.1637C118.772 83.3775 117.619 84.3237 116.269 84.8826C114.919 85.4415 113.434 85.588 112.001 85.3036C110.568 85.0191 109.251 84.3165 108.218 83.2846C107.185 82.2527 106.481 80.9378 106.196 79.5063C105.91 78.0748 106.056 76.591 106.616 75.2424C107.175 73.8939 108.121 72.7413 109.336 71.9303C110.551 71.1194 111.979 70.6865 113.44 70.6865C115.398 70.6892 117.275 71.4672 118.66 72.85C120.045 74.2327 120.824 76.1075 120.828 78.0633ZM118.142 78.0633C118.141 77.1347 117.866 76.2271 117.349 75.4551C116.832 74.6832 116.098 74.0816 115.239 73.7265C114.38 73.3713 113.435 73.2786 112.524 73.4599C111.612 73.6412 110.775 74.0885 110.117 74.7452C109.46 75.4019 109.013 76.2386 108.831 77.1493C108.65 78.0601 108.743 79.0041 109.099 79.8619C109.455 80.7198 110.057 81.453 110.83 81.9689C111.603 82.4848 112.512 82.7601 113.441 82.7601C114.059 82.7612 114.671 82.6405 115.242 82.4049C115.813 82.1692 116.332 81.8233 116.768 81.3869C117.205 80.9505 117.551 80.4323 117.787 79.8619C118.023 79.2916 118.143 78.6803 118.142 78.0633H118.142Z" fill="#4A4A49"/>
<path d="M133.733 81.3151L134.762 83.7468C133.486 84.8353 131.865 85.4369 130.187 85.4448C126.054 85.4448 122.675 82.1318 122.675 78.0655C122.675 73.9992 126.053 70.6887 130.187 70.6887C131.762 70.6887 133.565 71.2751 134.762 72.3653L133.733 74.7969C132.797 73.8817 131.539 73.3701 130.23 73.3722C127.544 73.3722 125.362 75.4663 125.362 78.0655C125.362 80.6647 127.544 82.7623 130.23 82.7623C130.881 82.768 131.527 82.6428 132.128 82.3942C132.73 82.1456 133.276 81.7786 133.733 81.3151Z" fill="#4A4A49"/>
</g>
<defs>
<clipPath id="clip0_700_4069">
<rect width="134.137" height="85.1375" fill="white" transform="translate(0.624512 0.307373)"/>
</clipPath>
</defs>
</svg>
