<svg width="92" height="42" viewBox="0 0 92 42" fill="none" xmlns="http://www.w3.org/2000/svg">
<g clip-path="url(#clip0_700_4086)">
<path d="M64.916 4.21813V5.70306H77.655C78.5043 5.70306 79.7782 5.70306 80.6146 6.55233C81.451 7.40159 81.4638 8.67549 81.4638 9.51188V22.2509C81.4638 23.1001 81.4638 24.374 80.6146 25.2104C79.7653 26.0597 78.4914 26.0597 77.655 26.0597H71.5043C70.444 26.0597 69.062 26.0597 68.5447 24.8913C68.0146 23.7229 68.7568 22.6626 69.394 21.8031L77.6807 10.7626H64.9418L59.8462 17.5567C58.9918 18.6942 58.2532 19.6799 58.2532 20.9538C58.2532 22.2277 58.9403 23.1439 59.8462 24.3509L61.1201 26.0494C62.394 27.7479 63.6679 29.4464 65.3664 30.2957C67.0649 31.145 69.0723 31.145 71.8517 31.145H77.3591C80.5502 31.145 85.3113 31.145 88.5024 27.9538C91.6936 24.7626 91.6936 20.1045 91.6936 18.406V13.3104C91.6936 11.6119 91.6936 6.9538 88.5024 3.76262C85.3113 0.571443 80.5502 0.571443 77.3591 0.571443L68.5576 0.568612C67.7083 0.568355 66.648 0.568612 65.8039 1.41788C64.9546 2.26714 64.9546 3.32744 64.9546 4.17155" fill="#4A4A49"/>
<path d="M49.7322 10.8054H62.3425L47.1586 31.2392H34.5483L49.7322 10.8054Z" fill="#4A4A49"/>
<path d="M0.0627441 14.4084C0.0627441 13.5591 0.0627441 12.4988 0.912009 11.6547C1.76127 10.8106 2.82157 10.8054 3.66569 10.8054H25.0002C27.7539 10.8054 29.787 10.8054 31.4855 11.6547C33.1841 12.504 34.4451 14.2025 35.7319 15.901L37.0058 17.5995C37.9091 18.8039 38.5988 19.7227 38.5988 20.9966C38.5988 22.2705 37.8602 23.2562 37.0058 24.3937L31.9102 31.1878H19.1712L27.458 20.1473C28.0936 19.2981 28.8374 18.2378 28.3072 17.0591C27.7771 15.8907 26.3977 15.8907 25.3477 15.8907H15.3624V41.3687H5.1712V15.8907H0.0756118V14.4032" fill="#4A4A49"/>
</g>
<defs>
<clipPath id="clip0_700_4086">
<rect width="91.875" height="41.1765" fill="white" transform="translate(0.0622559 0.357422)"/>
</clipPath>
</defs>
</svg>
