<svg width="172" height="55" viewBox="0 0 172 55" fill="none" xmlns="http://www.w3.org/2000/svg">
<g clip-path="url(#clip0_700_4207)">
<path d="M11.3615 46.4375C4.07647 46.4375 0.119629 41.162 0.119629 34.5519C0.119629 27.9418 4.77714 22.3965 12.4245 22.3965C14.4545 22.3965 16.2157 22.6639 17.7467 23.466V27.7732C15.7166 26.5712 14.0898 26.3351 12.5924 26.3351C7.40463 26.3351 5.4898 30.1773 5.4898 34.2171C5.4898 38.7242 7.90134 42.2966 12.1245 42.2966C13.989 42.2966 15.4887 41.7787 17.2835 40.8103L18.5769 44.3008C15.8846 46.0039 13.5883 46.4375 11.3591 46.4375M93.277 46.4375C87.8876 46.4375 85.1282 42.4652 85.1282 37.7245C85.1282 32.4152 88.7875 28.9078 93.6753 28.9078C95.8373 28.9078 96.9675 29.3414 97.8649 29.8762V33.6847C96.6676 32.8151 95.7029 32.514 94.3736 32.514C91.6141 32.514 89.8361 34.5519 89.8361 37.4908C89.8361 40.1286 91.2134 42.6989 94.3064 42.6989C95.1702 42.6989 96.3148 42.3231 97.5434 41.6896L98.6952 44.8356C97.2986 45.7703 94.9711 46.4375 93.2746 46.4375M108.262 33.0487V46.1051H103.473V33.0487H98.8175V29.2426H113.52L112.481 33.0487H108.265H108.262ZM131.423 31.2131C131.423 37.0885 131.19 40.1623 130.127 41.5643C129.594 42.2653 128.764 42.735 127.898 42.8651L129.227 46.4375C130.324 46.4038 132.022 45.9365 133.186 44.7682C134.717 43.265 135.214 41.3619 135.447 39.3577C135.646 37.6546 135.78 35.6528 135.78 33.8822V33.0463H139.526V46.1027H144.315V29.2402H131.423V31.2107V31.2131ZM77.1161 28.9078C75.2541 28.9078 73.8239 29.8112 72.593 30.7795L72.0603 29.2426H68.0362V54.3195L72.8257 52.8501V45.7366C73.6919 46.2039 74.8221 46.4375 76.0531 46.4375C81.0082 46.4375 84.0004 42.1978 84.0004 37.1897C84.0004 31.8467 80.9746 28.9078 77.1161 28.9078ZM74.8893 42.9663C74.0231 42.9663 73.3584 42.6652 72.8257 42.299V34.3183C73.392 33.451 74.8893 32.4152 76.1515 32.4152C78.0807 32.4152 79.2109 33.651 79.2109 37.1247C79.2109 39.9961 78.1479 42.9663 74.8893 42.9663ZM120.401 28.9078C118.139 28.9078 115.948 29.2595 113.649 30.753L115.101 33.663C116.229 33.0247 117.68 32.5284 119.379 32.5284C121.078 32.5284 122.525 33.2656 122.525 35.0385V35.3252L119.622 35.436C115.384 35.5781 112.521 37.4234 112.521 40.9717C112.521 44.3105 114.921 46.4375 118.103 46.4375C120.262 46.4375 121.745 45.6233 122.839 44.6284L123.583 46.1051H127.331V35.1541C127.331 30.7169 124.857 28.9078 120.401 28.9078ZM122.525 41.9305C122.067 42.2846 121.109 42.7109 119.838 42.7109C118.208 42.7109 117.292 41.8943 117.292 40.62C117.292 39.3457 118.28 38.6326 120.332 38.5604L122.525 38.4905V41.9305ZM153.618 34.7181H151.156V28.5079L146.367 29.7967V46.1051H152.488C156.944 46.1051 161.102 44.9007 161.102 40.2611C161.102 36.3225 157.743 34.7181 153.618 34.7181ZM152.819 42.7784H151.156V38.0714H152.754C154.448 38.0714 156.313 38.3387 156.313 40.3406C156.313 42.3424 154.715 42.7784 152.819 42.7784ZM46.5196 36.9223V36.7874C48.0816 36.455 49.3798 35.4191 49.3798 33.215C49.3798 30.5844 47.1794 29.6257 45.0174 29.3342C44.3552 29.2451 42.9034 29.2426 42.0948 29.2426H35.2489V46.1051H40.9982C41.6341 46.1051 42.5819 46.1027 43.321 46.081C46.3444 45.9365 50.0781 44.8525 50.0781 40.9283C50.0781 38.5242 48.7799 37.3222 46.5196 36.9223ZM40.132 32.4537H42.0948C44.0552 32.4537 44.7895 33.056 44.7895 34.0918C44.7895 35.3926 43.5921 35.7925 41.5957 35.7925H40.132V32.4537ZM41.994 42.9061H40.0312V38.7651H41.7613C44.0552 38.7651 45.2862 39.2999 45.2862 40.8031C45.2862 42.405 43.6569 42.9061 41.994 42.9061ZM33.6724 37.5245C33.6724 32.314 30.4786 28.9078 25.8883 28.9078C20.8661 28.9078 18.0394 32.9813 18.0394 37.7245C18.0394 42.1641 20.5013 46.4375 26.4882 46.4375C28.5158 46.4375 30.7762 45.9726 33.1061 44.5008L32.0407 41.4631C30.1451 42.3665 28.9141 42.6652 27.2848 42.6652C25.0557 42.6652 22.9273 41.2632 22.8265 38.9916H33.6724V37.5245ZM22.7281 35.6889C22.7281 34.152 23.8271 32.4152 25.7539 32.4152C27.7863 32.4152 28.6814 34.0846 28.7821 35.6889H22.7281ZM66.6661 37.5245C66.6661 32.314 63.4723 28.9078 58.882 28.9078C53.8597 28.9078 51.0331 32.9813 51.0331 37.7245C51.0331 42.1641 53.495 46.4375 59.4819 46.4375C61.5095 46.4375 63.7722 45.9726 66.0998 44.5008L65.0344 41.4631C63.1412 42.3665 61.9078 42.6652 60.2785 42.6652C58.0517 42.6652 55.9234 41.2632 55.8226 38.9916H66.6661V37.5245ZM55.7218 35.6889C55.7218 34.152 56.8208 32.4152 58.7476 32.4152C60.7776 32.4152 61.6751 34.0846 61.7758 35.6889H55.7218Z" fill="#4A4A49"/>
<path d="M169.635 17.3306C169.362 17.5209 169.081 17.6702 168.795 17.7618C167.848 18.0629 166.679 17.7859 165.63 17.3523C164.882 17.0415 164.097 16.6392 163.274 16.1309C163.704 15.0782 164.107 13.8762 164.45 12.5465C164.983 10.482 165.237 8.66327 165.29 7.06615C165.323 6.07849 165.275 5.17514 165.167 4.3537C165.018 3.22391 164.673 2.07486 163.939 1.39795C163.706 1.18837 163.423 1.01252 163.106 0.867986C164.606 0.704179 165.938 0.692135 167.113 0.778856C168.349 0.884848 169.606 1.19078 170.341 1.91346C171.075 2.63614 171.399 3.896 171.528 5.13178C171.648 6.31216 171.658 7.64911 171.519 9.16191C171.377 10.653 171.089 12.3104 170.617 14.1484C170.321 15.2854 169.983 16.3718 169.638 17.3306H169.635ZM151.526 16.3959C151.497 16.0635 151.509 15.7431 151.574 15.4492C151.787 14.4736 152.61 13.5992 153.51 12.9006C154.153 12.4067 154.89 11.9249 155.742 11.4624C156.435 12.3634 157.27 13.3125 158.247 14.2761C159.761 15.772 161.203 16.9018 162.554 17.7449C163.389 18.2676 164.191 18.6772 164.954 18.9951C166.002 19.4287 167.166 19.7058 168.119 19.4047C168.416 19.3059 168.709 19.1493 168.992 18.947C168.383 20.3321 167.728 21.498 167.065 22.476C166.355 23.4974 165.465 24.4393 164.474 24.7139C163.483 24.991 162.235 24.6441 161.105 24.1382C160.027 23.654 158.868 22.9915 157.633 22.1147C156.419 21.2475 155.13 20.1683 153.781 18.8362C152.946 18.0123 152.179 17.174 151.526 16.3959ZM161.362 1.11611C161.664 1.25823 161.933 1.42927 162.153 1.63161C162.888 2.30611 163.231 3.45999 163.384 4.58977C163.49 5.39435 163.536 6.27843 163.509 7.24923C162.384 7.40099 161.148 7.65152 159.828 8.02008C157.781 8.58859 156.085 9.27754 154.681 10.0315C153.813 10.4965 153.057 10.9879 152.404 11.4938C151.504 12.1875 150.684 13.062 150.468 14.04C150.403 14.3483 150.391 14.6808 150.427 15.0276C149.537 13.8063 148.858 12.6524 148.346 11.5877C147.819 10.4603 147.454 9.21491 147.711 8.21521C147.967 7.2155 148.891 6.30252 149.892 5.57502C150.849 4.87884 151.999 4.20194 153.374 3.56839C154.729 2.94689 156.306 2.36634 158.127 1.86046C159.255 1.5473 160.363 1.29677 161.362 1.12092V1.11611Z" fill="#4A4A49"/>
</g>
<defs>
<clipPath id="clip0_700_4207">
<rect width="171.5" height="53.5938" fill="white" transform="translate(0.120117 0.725342)"/>
</clipPath>
</defs>
</svg>
