<svg width="184" height="22" viewBox="0 0 184 22" fill="none" xmlns="http://www.w3.org/2000/svg">
<path d="M3.23982 15.0986L8.49761 0.510986C2.73908 1.90633 -0.640928 7.61454 0.610927 13.3227C1.98797 18.9041 7.7465 22.5827 13.2547 21.3142C16.3843 20.5531 18.888 18.5236 20.3902 15.7329C14.131 18.143 6.99539 18.143 3.23982 15.0986Z" fill="#4A4A49"/>
<path d="M16.259 12.3076C18.0116 12.4345 19.7642 12.3076 21.3916 11.5465C21.3916 11.2928 21.3916 11.0391 21.3916 10.7854C21.3916 8.50215 20.6405 6.34571 19.3887 4.56982L16.259 12.3076Z" fill="#4A4A49"/>
<path d="M12.6286 13.1958L17.2605 2.28673C16.7598 1.90618 16.3842 1.65248 15.8835 1.52563L11.0012 13.83C13.2546 14.8448 17.5109 14.0837 21.2664 12.9421C21.3916 12.8152 21.3916 12.5615 21.3916 12.3078C18.6375 13.0689 14.6316 13.83 12.6286 13.1958Z" fill="#4A4A49"/>
<path d="M7.99668 14.0833L13.2545 0.383581C12.7537 0.256732 12.253 0.256732 11.7522 0.129883L6.1189 14.7175C9.24853 16.874 15.1323 16.4934 20.7656 14.7175C20.8908 14.4638 21.016 14.2101 21.016 13.8296C17.7611 15.2249 9.87446 15.986 7.99668 14.0833Z" fill="#4A4A49"/>
<path d="M97.63 11.4196H99.8834V4.95031C99.8834 4.56977 99.7582 4.31607 99.633 3.93552C99.633 3.68182 99.3826 3.42812 99.2574 3.17442C99.1323 2.92073 98.8819 2.79388 98.5063 2.66703C98.256 2.41333 98.0056 2.41333 97.63 2.41333C97.1293 2.41333 96.6286 2.66703 96.253 2.92073C95.8774 3.17442 95.6271 3.68182 95.3767 4.06237L93.2485 9.39003L91.2456 4.31607C91.1204 4.06237 90.87 3.80867 90.7448 3.55497C90.6196 3.30127 90.3693 3.17442 90.2441 2.92073C90.1189 2.79388 89.8685 2.66703 89.6182 2.54018C89.1174 2.41333 88.4915 2.41333 87.8656 2.54018C87.6152 2.66703 87.3648 2.79388 87.2396 3.04758C86.7389 3.42812 86.4885 4.06237 86.4885 4.69661V11.4196H88.7419V4.95031L90.87 9.64373C90.87 9.89743 91.1204 10.1511 91.2456 10.4048C91.4959 10.6585 91.6211 10.9122 91.7463 11.0391C91.9967 11.1659 92.2471 11.4196 92.4974 11.5465C92.7478 11.6733 92.9982 11.6733 93.2485 11.6733C93.4989 11.6733 93.8745 11.6733 94.1248 11.5465C94.3752 11.4196 94.5004 11.2928 94.6256 11.1659C94.876 10.9122 95.0011 10.6585 95.1263 10.4048C95.2515 10.1511 95.3767 9.89743 95.5019 9.51688L97.63 4.69661V11.4196Z" fill="#4A4A49"/>
<path d="M113.654 11.5465V9.13633H103.263V8.12154H113.654V5.83826H103.263V4.82346H113.654V2.41333H104.265C103.764 2.41333 103.389 2.41333 103.013 2.54018C102.637 2.66703 102.262 2.92073 102.011 3.17442C101.761 3.42812 101.511 3.68182 101.26 4.06237C101.135 4.56977 101.01 4.82346 101.01 5.33086V8.50209C101.01 9.00948 101.135 9.39003 101.26 9.77058C101.511 10.1511 101.761 10.4048 102.011 10.6585C102.262 10.9122 102.637 11.1659 103.013 11.2928C103.263 11.4196 103.764 11.5465 104.14 11.5465H113.654Z" fill="#4A4A49"/>
<path d="M85.3618 11.5465V9.13633H74.9714V8.12154H85.3618V5.83826H74.9714V4.82346H85.3618V2.41333H75.9728C75.4721 2.41333 75.0965 2.41333 74.5958 2.54018C74.3454 2.66703 73.9699 2.92073 73.5943 3.17442C73.3439 3.42812 73.0936 3.68182 72.9684 4.06237C72.718 4.56977 72.718 4.82346 72.718 5.33086V8.50209C72.718 9.00948 72.718 9.39003 72.9684 9.77058C73.0936 10.1511 73.3439 10.4048 73.5943 10.6585C73.9699 10.9122 74.3454 11.1659 74.5958 11.2928C74.9714 11.4196 75.3469 11.5465 75.8477 11.5465H85.3618Z" fill="#4A4A49"/>
<path d="M46.4288 11.2928C46.8044 11.4196 47.1799 11.5465 47.6807 11.5465H57.0696V9.13633H46.8044V8.12154H57.1948V5.83826H46.8044V4.82346H57.1948V2.41333H47.6807C47.1799 2.41333 46.8044 2.41333 46.4288 2.54018C46.0533 2.66703 45.6777 2.92073 45.4273 3.17442C45.0518 3.42812 44.9266 3.68182 44.8014 4.06237C44.551 4.56977 44.551 4.82346 44.551 5.33086V8.50209C44.551 9.00948 44.551 9.39003 44.8014 9.77058C44.9266 10.1511 45.177 10.4048 45.4273 10.6585C45.8029 10.9122 46.1784 11.1659 46.4288 11.2928Z" fill="#4A4A49"/>
<path d="M43.2997 2.41333H40.9212V9.26318H38.1671V2.41333H35.6634V9.26318H33.0345V2.41333H30.656V11.5465H43.2997V2.41333Z" fill="#4A4A49"/>
<path d="M60.7001 4.82346H69.0875V5.83826H60.7001V4.82346ZM60.7001 8.12154H68.5867C68.9623 8.12154 69.3379 7.99469 69.5882 7.86784C70.3393 7.61414 70.9653 6.9799 71.2156 6.34565C71.466 5.96511 71.466 5.58456 71.466 5.20401C71.466 4.82346 71.466 4.44292 71.2156 4.06237C71.0905 3.68182 70.8401 3.42812 70.5897 3.17442C70.2142 2.92073 69.8386 2.79388 69.5882 2.66703C69.0875 2.41333 68.8371 2.41333 68.3364 2.41333H58.3215V11.5465H60.7001V8.12154Z" fill="#4A4A49"/>
<path d="M145.2 2.66703C144.825 2.66703 144.449 2.92073 144.074 3.17442C143.823 3.42812 143.573 3.80867 143.448 4.18922C143.323 4.56977 143.198 4.95031 143.198 5.33086V8.62894C143.198 9.00948 143.323 9.51688 143.448 9.89743C143.573 10.1511 143.823 10.5317 144.074 10.7854C144.449 11.0391 144.825 11.1659 145.2 11.4196C145.451 11.5465 145.952 11.6733 146.327 11.6733H155.716V9.26318H145.451V8.12154H155.716V5.83826H145.451V4.82346H155.716V2.41333H146.327C145.952 2.41333 145.576 2.41333 145.2 2.66703Z" fill="#4A4A49"/>
<path d="M139.692 9.26318H131.305V8.12154H139.692V9.26318ZM141.069 6.7262C140.819 6.34565 140.443 6.09195 140.193 6.09195C139.817 5.83826 139.317 5.83826 139.066 5.83826H131.18V2.41333H128.801V11.4196H138.816C139.191 11.4196 139.567 11.4196 139.943 11.2928C140.318 11.1659 140.694 10.9122 140.944 10.6585C141.32 10.4048 141.445 10.1511 141.695 9.89743C141.946 9.51688 141.946 9.00948 141.946 8.75579C141.946 8.24839 141.946 7.99469 141.695 7.61414C141.57 7.2336 141.32 6.9799 141.069 6.7262Z" fill="#4A4A49"/>
<path d="M114.906 4.82346H120.164V11.4196H122.417V4.82346H127.675V2.41333H114.906V4.82346Z" fill="#4A4A49"/>
<path d="M167.483 5.71141H159.346V4.82346H167.483V5.71141ZM167.483 9.13633H159.346V8.12154H167.483V9.13633ZM169.361 6.9799C169.611 6.34565 169.862 5.83826 169.862 5.20401C169.862 4.82346 169.736 4.31607 169.611 3.93552C169.361 3.68182 169.111 3.42812 168.86 3.17442C168.61 2.92073 168.234 2.66703 167.859 2.66703C167.483 2.54018 166.982 2.41333 166.607 2.41333H156.968V11.5465H166.982C167.483 11.5465 167.859 11.4196 168.109 11.2928C168.485 11.1659 168.86 10.9122 169.111 10.6585C169.361 10.4048 169.611 10.1511 169.736 9.77058C169.862 9.39003 169.987 9.00948 169.987 8.62894C169.987 8.37524 169.862 7.99469 169.736 7.74099C169.611 7.48729 169.486 7.2336 169.361 6.9799Z" fill="#4A4A49"/>
<path d="M181.504 9.26318H173.617V4.82346H181.504V9.26318ZM183.131 3.30127C182.756 3.04758 182.505 2.79388 182.13 2.66703C181.754 2.54018 181.504 2.41333 181.003 2.41333H174.368C173.993 2.41333 173.617 2.54018 173.241 2.66703C172.866 2.66703 172.49 2.92073 172.24 3.17442C171.99 3.42812 171.739 3.68182 171.489 3.93552C171.239 4.31607 171.239 4.69661 171.239 5.07716V8.50209C171.239 9.00948 171.239 9.39003 171.489 9.64373C171.614 10.0243 171.739 10.4048 171.99 10.6585C172.24 10.9122 172.616 11.0391 172.991 11.1659C173.367 11.4196 173.742 11.4196 174.118 11.4196H181.003C181.379 11.4196 181.754 11.4196 182.13 11.1659C182.505 11.0391 182.756 10.9122 183.131 10.6585C183.382 10.4048 183.632 10.1511 183.632 9.77058C183.882 9.39003 183.882 9.00948 183.882 8.75579V5.33086C183.882 5.07716 183.882 4.56977 183.632 4.31607C183.507 3.93552 183.382 3.55497 183.131 3.30127Z" fill="#4A4A49"/>
<path d="M58.4465 18.0155H54.3153V15.859H58.4465V18.0155ZM59.5731 16.1127C59.5731 15.9859 59.5731 15.7322 59.4479 15.6053C59.3228 15.4785 59.3228 15.2248 59.0724 15.2248C58.9472 15.0979 58.822 14.9711 58.5716 14.9711C58.4465 14.8442 58.3213 14.8442 58.0709 14.8442H54.8161C54.5657 14.8442 54.4405 14.8442 54.1901 14.9711C54.065 14.9711 53.8146 15.0979 53.8146 15.2248C53.5642 15.2248 53.5642 15.4785 53.439 15.6053C53.3138 15.7322 53.3138 15.9859 53.3138 16.1127V18.0155H53.0635V19.1571H60.0739V18.0155H59.5731V16.1127Z" fill="#4A4A49"/>
<path d="M38.9178 14.7173C38.7926 14.8442 38.5422 14.971 38.417 14.971C38.2918 15.0979 38.1667 15.2247 38.0415 15.4784C38.0415 15.6053 37.9163 15.859 38.0415 15.9858V17.6349C38.0415 17.8885 38.0415 18.1422 38.1667 18.2691C38.2918 18.3959 38.2918 18.6496 38.5422 18.6496C38.6674 18.9033 38.7926 18.9033 39.043 19.0302C39.1681 19.157 39.4185 19.157 39.5437 19.157H44.3008V17.8885H39.1681V17.3812H44.3008V16.2395H39.1681V15.7321H44.3008V14.4636H39.5437C39.2933 14.7173 39.043 14.7173 38.9178 14.7173Z" fill="#4A4A49"/>
<path d="M154.338 18.1422H150.332V15.8589H154.338V18.1422ZM155.09 15.2247C154.964 14.971 154.839 14.971 154.589 14.8441C154.464 14.7173 154.338 14.7173 154.088 14.7173H150.833C150.708 14.7173 150.458 14.7173 150.207 14.8441C150.082 14.971 149.957 14.971 149.707 15.0978C149.581 15.2247 149.456 15.3515 149.331 15.4784C149.331 15.7321 149.206 15.8589 149.206 15.9858V17.7617C149.206 17.8885 149.206 18.1422 149.331 18.3959C149.331 18.5228 149.456 18.6496 149.581 18.7765C149.832 18.9033 149.957 19.0302 150.082 19.157C150.207 19.157 150.458 19.157 150.708 19.157H154.088C154.338 19.157 154.464 19.157 154.589 19.157C154.839 19.0302 154.964 18.9033 155.09 18.9033C155.215 18.7765 155.34 18.6496 155.465 18.3959C155.465 18.2691 155.465 18.1422 155.465 17.8885V16.2395C155.465 15.9858 155.465 15.8589 155.465 15.7321C155.34 15.4784 155.215 15.2247 155.09 15.2247Z" fill="#4A4A49"/>
<path d="M52.4373 14.7174H50.9351L49.6833 15.9859L49.5581 16.1128C49.5581 16.2396 49.5581 16.2396 49.4329 16.2396C49.3077 16.3665 49.3077 16.3665 49.3077 16.4933C49.3077 16.4933 49.1825 16.4933 49.1825 16.6202V14.7174H47.9307V16.4933C47.9307 16.4933 47.8055 16.4933 47.8055 16.3665C47.8055 16.2396 47.6803 16.2396 47.6803 16.2396C47.6803 16.1128 47.6803 16.1128 47.6803 15.9859H47.5551L46.4284 14.5906H44.801L46.804 16.8739L44.801 19.1571H46.3033L47.5551 17.7618C47.6803 17.635 47.6803 17.635 47.6803 17.635C47.8055 17.5081 47.8055 17.5081 47.8055 17.5081L47.9307 17.3813H48.0558V19.1571H49.3077V17.2544V17.3813H49.4329C49.4329 17.3813 49.5581 17.5081 49.5581 17.635C49.5581 17.635 49.5581 17.7618 49.6833 17.8887L50.9351 19.1571H52.3122L50.4344 17.0007L52.4373 14.7174Z" fill="#4A4A49"/>
<path d="M147.329 16.4932H143.197V15.8589H147.329V16.4932ZM148.08 15.0978C147.829 14.971 147.704 14.8441 147.579 14.8441C147.329 14.7173 147.078 14.7173 146.953 14.7173H141.946V19.2839H143.072V17.6348H146.953C147.203 17.6348 147.454 17.6348 147.579 17.508C147.829 17.3811 147.954 17.3811 148.08 17.1274C148.33 17.0006 148.33 16.8737 148.455 16.7469C148.58 16.4932 148.58 16.3663 148.58 16.1126C148.58 15.9858 148.58 15.7321 148.33 15.4784C148.33 15.3515 148.205 15.2247 148.08 15.0978Z" fill="#4A4A49"/>
<path d="M168.36 18.1422H164.354V15.8589H168.36V18.1422ZM169.111 15.2247C168.86 14.971 168.86 14.971 168.61 14.8441C168.485 14.7173 168.36 14.7173 168.109 14.7173H164.854C164.604 14.7173 164.354 14.7173 164.229 14.8441C164.103 14.971 163.853 14.971 163.728 15.0978C163.603 15.2247 163.477 15.3515 163.352 15.4784C163.352 15.7321 163.227 15.8589 163.227 15.9858V17.7617C163.227 17.8885 163.227 18.1422 163.352 18.3959C163.352 18.5228 163.477 18.6496 163.603 18.7765C163.853 18.9033 163.853 19.0302 164.103 19.157C164.229 19.157 164.354 19.157 164.604 19.157H168.109C168.36 19.157 168.485 19.157 168.61 19.157C168.86 19.0302 168.986 18.9033 169.111 18.9033C169.236 18.7765 169.361 18.6496 169.361 18.3959C169.486 18.2691 169.486 18.1422 169.486 17.8885V16.2395C169.486 15.9858 169.486 15.8589 169.361 15.7321C169.361 15.4784 169.111 15.2247 169.111 15.2247Z" fill="#4A4A49"/>
<path d="M156.092 19.2839H157.218V15.8589H161.349V19.2839H162.476V14.7173H156.092V19.2839Z" fill="#4A4A49"/>
<path d="M175.495 16.4932H171.239V15.8589H175.495V16.4932ZM176.246 15.0978C175.996 14.971 175.871 14.8441 175.745 14.8441C175.495 14.7173 175.245 14.7173 175.119 14.7173H170.112V19.2839H171.239V17.6348H175.119C175.37 17.6348 175.62 17.6348 175.745 17.508C175.996 17.3811 176.121 17.3811 176.246 17.1274C176.497 17.0006 176.497 16.8737 176.622 16.7469C176.747 16.4932 176.747 16.3663 176.747 16.1126C176.747 15.9858 176.747 15.7321 176.497 15.4784C176.497 15.3515 176.371 15.2247 176.246 15.0978Z" fill="#4A4A49"/>
<path d="M37.0398 15.0978C36.9146 14.971 36.7894 14.971 36.6642 14.8441C36.5391 14.7173 36.4139 14.7173 36.2887 14.7173C36.0383 14.7173 35.7879 14.8441 35.6628 14.971C35.4124 15.2247 35.2872 15.3515 35.162 15.6052L34.0353 18.2691L33.0339 15.7321C33.0339 15.4784 33.0339 15.4784 32.9087 15.3515C32.7835 15.2247 32.7835 15.0978 32.6583 14.971C32.5331 14.971 32.4079 14.8441 32.2827 14.8441C32.0324 14.7173 31.6568 14.7173 31.4064 14.8441C31.0309 14.971 30.7805 15.4784 30.7805 15.8589V19.2839H31.9072V15.9858L32.9087 18.2691C33.0339 18.3959 33.0339 18.5228 33.0339 18.6496C33.159 18.7765 33.2842 18.9033 33.2842 19.0302C33.4094 19.157 33.5346 19.157 33.6598 19.2839C33.785 19.4107 33.9102 19.4107 34.0353 19.4107C34.2857 19.4107 34.2857 19.4107 34.5361 19.2839C34.5361 19.157 34.6613 19.157 34.7865 19.157C34.7865 19.0302 34.9116 18.9033 35.0368 18.7765C35.162 18.6496 35.162 18.5228 35.2872 18.3959L36.4139 15.9858V19.2839H37.2902V15.9858C37.2902 15.8589 37.2902 15.7321 37.165 15.4784C37.165 15.3515 37.165 15.2247 37.0398 15.0978Z" fill="#4A4A49"/>
<path d="M177.248 15.8589H179.876V19.157H181.003V15.8589H183.632V14.7173H177.248V15.8589Z" fill="#4A4A49"/>
<path d="M86.8637 16.4932H82.7326V15.8589H86.8637V16.4932ZM87.4896 15.0978C87.3644 14.971 87.2392 14.8441 86.9889 14.8441C86.8637 14.7173 86.6133 14.7173 86.4881 14.7173H81.4807V19.2839H82.6074V17.6348H86.4881C86.7385 17.6348 86.9889 17.6348 87.1141 17.508C87.4896 17.3811 87.74 17.1274 87.8652 16.7469C87.9904 16.4932 87.9904 16.3663 87.9904 16.1126C87.9904 15.9858 87.8652 15.7321 87.74 15.4784C87.74 15.3515 87.74 15.2247 87.4896 15.0978Z" fill="#4A4A49"/>
<path d="M93.8745 18.1422H89.8686V15.8589H93.8745V18.1422ZM94.6257 15.2247C94.3753 14.971 94.3753 14.971 94.1249 14.8441C93.9997 14.7173 93.8745 14.7173 93.6242 14.7173H90.3694C90.119 14.7173 89.8686 14.7173 89.7434 14.8441C89.6182 14.971 89.3679 14.971 89.2427 15.0978C89.1175 15.2247 88.9923 15.3515 88.8671 15.4784C88.8671 15.7321 88.7419 15.8589 88.7419 15.9858V17.7617C88.7419 17.8885 88.7419 18.1422 88.8671 18.3959C88.8671 18.5228 88.9923 18.6496 89.1175 18.7765C89.3679 18.9033 89.3679 19.0302 89.6182 19.157C89.7434 19.157 89.8686 19.157 90.119 19.157H93.6242C93.8745 19.157 93.9997 19.157 94.1249 19.157C94.3753 19.0302 94.5005 18.9033 94.6257 18.9033C94.7508 18.7765 94.876 18.6496 94.876 18.3959C95.0012 18.2691 95.0012 18.1422 95.0012 17.8885V16.2395C95.0012 15.9858 95.0012 15.8589 94.876 15.7321C94.7508 15.4784 94.6257 15.2247 94.6257 15.2247Z" fill="#4A4A49"/>
<path d="M123.543 14.8443C123.418 14.7174 123.293 14.7174 123.168 14.7174C123.042 14.5906 122.917 14.5906 122.792 14.5906C122.416 14.5906 122.041 14.7174 121.791 14.9711L118.786 18.1424V14.7174H117.659V18.0155C117.659 18.1424 117.659 18.396 117.785 18.5229C117.785 18.6497 117.785 18.7766 118.035 18.9034C118.035 19.0303 118.285 19.1571 118.285 19.1571C118.536 19.284 118.661 19.284 118.786 19.284C119.036 19.284 119.162 19.284 119.412 19.1571C119.537 19.1571 119.662 19.0303 119.788 18.9034L122.792 15.8591V19.284H123.919V15.7322C123.919 15.6054 123.919 15.4785 123.794 15.2248C123.668 15.098 123.543 14.9711 123.543 14.8443Z" fill="#4A4A49"/>
<path d="M101.01 18.0155H97.0037V15.859H101.01V18.0155ZM102.136 16.1127C102.136 15.9859 102.136 15.7322 102.011 15.6053C102.011 15.4785 101.886 15.2248 101.761 15.2248C101.51 15.0979 101.385 14.9711 101.135 14.9711C101.01 14.8442 100.885 14.8442 100.634 14.8442H97.3793C97.2541 14.8442 97.0037 14.8442 96.7534 14.9711C96.6282 14.9711 96.503 15.0979 96.3778 15.2248C96.1275 15.2248 96.1275 15.4785 96.0023 15.6053C95.8771 15.7322 95.8771 15.9859 95.8771 16.1127V18.0155H95.6267V19.1571H102.637V18.0155H102.136V16.1127Z" fill="#4A4A49"/>
<path d="M115.907 14.7173H117.034V19.157H115.907V14.7173Z" fill="#4A4A49"/>
<path d="M65.958 16.3663H61.7017V14.7173H60.7002V16.1126C60.7002 16.2395 60.7002 16.4932 60.7002 16.7469C60.8254 16.8737 60.9506 17.1274 61.0758 17.1274C61.2009 17.2543 61.4513 17.3811 61.5765 17.3811C61.7017 17.508 61.9521 17.508 62.2024 17.508H66.0832V18.0154H60.9506V19.157H65.8328C65.958 19.157 66.2084 19.157 66.3335 19.157C66.4587 19.0302 66.7091 18.9033 66.7091 18.7765C66.9595 18.6496 66.9595 18.5228 67.0847 18.3959C67.2098 18.1422 67.2098 18.0154 67.2098 17.7617V14.7173H65.958V16.3663Z" fill="#4A4A49"/>
<path d="M108.521 16.3663H104.39V14.7173H103.138V19.157H104.39V17.508H108.521V19.157H109.648V14.7173H108.521V16.3663Z" fill="#4A4A49"/>
<path d="M72.9682 16.3663H68.8371V14.7173H67.7104V19.157H68.8371V17.508H72.9682V19.157H74.2201V14.7173H72.9682V16.3663Z" fill="#4A4A49"/>
<path d="M140.944 15.0978C140.693 14.971 140.568 14.8441 140.443 14.8441C140.193 14.7173 139.942 14.7173 139.817 14.7173H135.06V15.9858H140.193V16.4932H135.06V17.6348H140.193V18.1422H135.06V19.4107H139.817C139.942 19.4107 140.193 19.4107 140.443 19.2839C140.568 19.157 140.693 19.157 140.944 18.9033C141.069 18.7765 141.194 18.6496 141.194 18.5228C141.319 18.3959 141.445 18.1422 141.445 17.8885V16.1126C141.445 15.9858 141.445 15.7321 141.319 15.4784C141.194 15.3515 141.069 15.2247 140.944 15.0978Z" fill="#4A4A49"/>
<path d="M114.154 18.1422H111.4V17.508H114.154V18.1422ZM114.905 16.7469C114.655 16.62 114.655 16.4932 114.405 16.4932C114.154 16.3663 114.029 16.3663 113.779 16.3663H111.275V14.7173H110.148V19.157H113.528C113.779 19.157 114.029 19.157 114.154 19.157C114.405 19.0302 114.53 18.9033 114.655 18.9033C114.905 18.7765 114.905 18.6496 115.03 18.3959C115.156 18.2691 115.156 18.1422 115.156 17.8885C115.156 17.6348 115.156 17.3811 115.156 17.2543C115.156 17.1274 115.03 17.0006 114.905 16.7469Z" fill="#4A4A49"/>
<path d="M77.2244 16.8737L77.7252 15.9858L78.2259 16.8737H77.2244ZM78.8518 15.3515C78.7266 15.2247 78.6015 15.0978 78.6015 14.971C78.4763 14.971 78.3511 14.8441 78.2259 14.7173C77.9755 14.7173 77.9755 14.7173 77.7252 14.7173C77.6 14.7173 77.4748 14.7173 77.3496 14.7173C77.2244 14.8441 77.0992 14.971 76.974 14.971C76.974 15.0978 76.8489 15.2247 76.7237 15.3515C76.7237 15.4784 76.5985 15.6052 76.4733 15.7321L74.7207 19.157H75.9726L76.5985 18.0154H78.8518L79.4778 19.157H80.7296L78.977 15.7321C78.977 15.7321 78.8518 15.4784 78.8518 15.3515Z" fill="#4A4A49"/>
<path d="M130.929 16.8737L131.43 15.9858L131.931 16.8737H130.929ZM132.432 15.3515C132.306 15.2247 132.306 15.0978 132.181 14.971C132.056 14.971 132.056 14.8441 131.806 14.7173C131.681 14.7173 131.555 14.7173 131.43 14.7173C131.18 14.7173 131.18 14.7173 130.929 14.7173C130.929 14.8441 130.679 14.971 130.679 14.971C130.554 15.0978 130.429 15.2247 130.429 15.3515C130.304 15.4784 130.178 15.6052 130.178 15.7321L128.301 19.157H129.678L130.178 18.0154H132.432L133.058 19.157H134.309L132.557 15.7321C132.557 15.7321 132.557 15.4784 132.432 15.3515Z" fill="#4A4A49"/>
<path d="M119.036 12.8149H122.541V13.8297H119.036V12.8149Z" fill="#4A4A49"/>
</svg>
