<svg width="151" height="51" viewBox="0 0 151 51" fill="none" xmlns="http://www.w3.org/2000/svg">
<g clip-path="url(#clip0_700_4212)">
<path d="M37.4557 24.2389C37.4557 24.2389 38.0298 17.7286 38.0882 17.0912C38.1052 16.7206 38.0474 16.3504 37.9183 16.0026C37.7892 15.6549 37.5914 15.3366 37.3366 15.0669C37.0819 14.7972 36.7755 14.5816 36.4357 14.4328C36.0958 14.284 35.7295 14.2052 35.3585 14.201H18.9271C18.1696 14.1485 17.4219 14.3962 16.8455 14.8906C16.2692 15.385 15.9105 16.0864 15.8472 16.8431C15.7742 17.607 14.4118 33.3475 14.3291 34.2525C14.2805 34.6379 14.3136 35.0292 14.4263 35.401C14.5389 35.7728 14.7284 36.1167 14.9827 36.4104C15.2369 36.7041 15.5501 36.941 15.9019 37.1058C16.2537 37.2705 16.6363 37.3593 17.0247 37.3665H33.3588C35.5288 37.3665 36.3706 36.2182 36.5555 34.4471C36.6674 33.3864 37.2026 26.9783 37.2026 26.9783H27.3253L26.902 31.9316H24.401L25.4763 19.636H27.9773L27.5783 24.2389H37.4557Z" fill="#4A4A49"/>
<path d="M52.6953 16.1829C52.3449 17.195 49.4693 26.1916 49.4693 26.1916L50.749 14.1929H40.8765L38.8086 37.3681H46.2482C48.1166 37.3681 48.754 36.3074 49.0655 35.4559C49.4401 34.4438 52.1795 26.8728 52.1795 26.8728L51.1723 37.3681H61.0496L63.0835 14.2026H55.3325C54.7367 14.1983 54.1559 14.3897 53.6795 14.7475C53.203 15.1052 52.8572 15.6096 52.6953 16.1829Z" fill="#4A4A49"/>
<path d="M102.726 14.2007L101.802 24.7641H99.2961L100.221 14.2007H90.3481C90.3481 14.2007 89.3993 25.3918 89.2972 26.4671C89.1804 27.7565 89.9102 29.5811 92.0949 29.5811H101.384L101.179 31.9312H88.8203L88.3337 37.3662H107.986C109.319 37.3662 110.604 36.4952 110.779 34.6366C110.891 33.4445 112.589 14.2007 112.589 14.2007H102.726Z" fill="#4A4A49"/>
<path d="M128.495 14.2051H115.085L113.061 37.3657H122.933L123.561 30.1986H133.156C134.854 30.1986 135.978 29.3325 136.163 27.3473C136.231 26.5736 137.015 17.796 137.063 17.0223C137.185 15.3096 135.822 14.2051 134.144 14.2051H128.495ZM123.984 25.3961L124.471 19.6498H126.947L126.461 25.3961H123.984Z" fill="#4A4A49"/>
<path d="M74.7959 21.9809L75.0052 19.6356H87.3737L87.8603 14.2007H65.5998L63.5757 37.3613H83.2817C84.537 37.3613 85.8946 36.6217 86.0697 34.6852C86.2011 33.2255 86.8093 26.3454 86.9212 25.0949C87.0672 23.426 86.0065 21.9809 83.9288 21.9809H74.7959ZM76.3919 32.5443H73.8715L74.358 26.8028H76.8736L76.3919 32.5443Z" fill="#4A4A49"/>
</g>
<defs>
<clipPath id="clip0_700_4212">
<rect width="150.062" height="50.3403" fill="white" transform="translate(0.663086 0.610352)"/>
</clipPath>
</defs>
</svg>
