<svg width="124" height="31" viewBox="0 0 124 31" fill="none" xmlns="http://www.w3.org/2000/svg">
<path fill-rule="evenodd" clip-rule="evenodd" d="M104.476 8.97397L93.7196 29.9711H85.7439C89.0951 23.4429 92.2686 17.2517 95.6198 10.7241C96.0229 10.1348 95.7495 10.3587 96.464 9.60787C96.8852 9.19729 97.7574 9.04828 98.2164 8.97377L104.476 8.97397ZM79.5765 20.1722C78.826 20.1853 77.8999 20.3411 77.1415 20.5383C76.383 20.7375 75.7004 20.9965 75.0857 21.3153C74.5667 21.5961 74.1356 21.9229 73.7763 22.3034C73.429 22.6779 73.1616 23.0883 72.974 23.5305C72.7504 24.0624 72.7484 24.4907 72.97 24.8254C73.1915 25.1601 73.7105 25.2756 74.1955 25.2756C75.1376 25.2756 76.1395 24.8274 77.0696 23.9349C77.9997 23.0345 79.5765 20.1722 79.5765 20.1722ZM75.1216 9.44531C75.7323 9.00963 76.9059 8.90584 76.9977 8.90584L84.3148 8.91222C85.5623 8.91301 86.6181 9.02138 87.4704 9.23255C89.2108 9.66325 90.1569 10.5896 90.3625 12.2988C90.4703 13.1925 90.2747 14.2484 89.7637 15.4614C89.642 15.7544 89.4863 16.2652 89.2188 16.7015C88.9534 17.1379 83.7121 27.0905 82.0674 29.9711H74.451C74.451 29.9711 76.1974 26.7637 76.3111 26.5725L76.0776 26.5625C76.0776 26.5625 72.6027 30.2639 68.1299 30.2978C67.1958 30.3058 66.4473 30.1623 65.8784 29.8894C65.3176 29.6165 64.8965 29.1882 64.625 28.6005C64.3635 28.0686 64.2538 27.4351 64.2857 26.692C64.3156 25.9569 64.5072 25.1601 64.8645 24.3074C65.1938 23.5245 65.629 22.7815 66.1619 22.0782C66.6948 21.385 67.3155 20.7495 68.0201 20.1779C68.6648 19.6666 69.3733 19.2171 70.1637 18.8145C70.9501 18.4195 71.8223 18.0653 72.7784 17.7581C73.8721 17.4105 75.1775 17.1176 76.7004 16.8728C78.2233 16.6268 79.836 16.4636 81.5365 16.3817C82.0794 15.5138 82.1532 15.354 82.1532 14.7683C82.1552 14.3567 81.6562 13.9314 81.0136 13.9314C80.5365 13.9314 72.2255 14.1786 72.2614 14.1089L73.8162 11.0932C73.9679 10.799 74.6585 9.77541 75.1216 9.44531ZM89.3086 1.75666C89.5641 0.982979 88.9873 0.43042 88.3785 0.43042L43.7556 0.53674C42.4183 0.533752 40.5422 1.22528 39.5941 2.86236L28.1954 23.7838C27.4668 25.1225 25.6985 26.0966 24.0299 26.0966L20.5635 26.0927C19.5187 26.0986 18.6411 24.9591 19.2827 23.7838L30.7082 2.79263C31.2052 1.87924 30.6184 0.552279 29.3969 0.543115C28.874 0.539031 20.5947 0.543015 19.3466 0.543015C17.8912 0.543015 16.3603 1.24674 15.3785 2.96147C14.633 4.26373 1.24396 27.0404 1.24396 27.0404C0.396567 28.4369 1.53564 29.9708 2.87443 29.9828L29.8514 29.9808C31.6936 29.9788 33.2684 29.0425 34.0608 27.6958L45.4196 6.77242C46.4016 4.96994 47.4654 4.41373 49.6051 4.41373L52.553 4.41652C53.6368 4.41652 54.523 5.52973 53.8424 6.77202L42.769 27.0779C42.0744 28.3508 43.0065 29.9625 44.4356 29.9704L53.8584 29.9625C55.5809 29.9665 57.4091 28.9485 58.1456 27.5978L69.4426 6.778C70.6182 4.61932 71.4964 4.41493 73.5941 4.41493L86.9289 4.37429C87.8251 4.40716 88.1464 3.77785 88.334 3.51249L89.308 1.75607M99.8705 1.16566C100.07 0.845422 100.501 0.446994 101.276 0.446994C102.05 0.446994 106.345 0.462932 106.822 0.458449C107.321 0.453718 108.09 1.00031 107.655 1.89651C107.387 2.44889 105.942 5.41721 105.766 5.71583C105.589 6.01346 105.168 6.4334 104.569 6.4334C103.972 6.4334 99.2378 6.43579 98.9503 6.43579C97.9843 6.43579 97.7229 5.48614 97.9504 5.03014C98.3735 4.18627 99.8705 1.16566 99.8705 1.16566ZM105.894 29.982H97.7907C97.7907 29.982 106.307 12.6791 107.343 10.6207C108.122 9.07358 109.08 8.98214 109.976 8.98214H114.984C114.984 8.98214 112.383 14.175 112.269 14.3669L112.501 14.376C112.501 14.376 116.022 8.80125 120.754 8.65583C122.628 8.59806 124.778 10.9163 121.133 13.9645C118.588 13.4565 113.654 14.5553 111.098 19.2831C110.365 20.6389 105.894 29.982 105.894 29.982Z" fill="#4A4A49"/>
</svg>
