<svg width="194" height="30" viewBox="0 0 194 30" fill="none" xmlns="http://www.w3.org/2000/svg">
<path d="M181.028 15.144C181.028 13.938 182.686 12.964 184.857 12.964C187.123 12.964 189.434 14.0308 190.999 15.7702L193.825 12.3379C191.139 9.97231 188.407 8.74317 184.998 8.74317C180.747 8.74317 176.357 10.6912 176.357 15.144C176.357 20.6172 181.121 21.0114 184.998 21.3361C187.169 21.4985 189.084 21.6608 189.084 23.0755C189.084 24.6061 186.889 25.3019 184.951 25.3019C182.709 25.3019 180.28 24.351 178.506 22.2406L175.493 25.4178C177.898 28.3399 181.378 29.6155 184.787 29.6155C189.061 29.6155 193.755 27.5978 193.755 22.9827C193.755 17.7647 188.944 17.2544 185.255 16.8834C182.943 16.6514 181.028 16.4427 181.028 15.144ZM159.544 16.4427C160.314 14.5178 161.972 13.4047 164.424 13.4047C166.899 13.4047 168.371 14.5874 169.001 16.4427H159.544ZM164.658 8.74317C158.82 8.74317 154.126 13.2655 154.126 19.2025C154.126 24.7916 158.282 29.6155 164.401 29.6155C168.09 29.6155 171.08 27.8529 173.205 24.838L169.982 22.1246C168.838 23.864 166.783 24.8844 164.331 24.8844C161.832 24.8844 159.24 23.0291 159.03 20.2925H174.279V18.6691C174.232 12.9408 170.309 8.74317 164.658 8.74317ZM104.922 8.74317C99.0843 8.74317 94.3902 13.2655 94.3902 19.2025C94.3902 24.7916 98.5472 29.6155 104.665 29.6155C108.355 29.6155 111.344 27.8529 113.469 24.838L110.247 22.1246C109.102 23.864 107.047 24.8844 104.595 24.8844C102.097 24.8844 99.5046 23.0291 99.2944 20.2925H114.543V18.6691C114.52 12.9408 110.574 8.74317 104.922 8.74317ZM147.073 28.8965H151.744V9.4621H147.073V28.8965ZM149.408 0C147.517 0 145.906 1.57701 145.906 3.5483C145.906 5.49637 147.47 6.93423 149.502 6.93423C151.487 6.93423 152.935 5.54275 152.935 3.61786C152.911 1.64659 151.324 0 149.408 0ZM81.7098 8.71999C79.5148 8.71999 77.53 9.36933 75.8485 10.5057V0.231914H71.178V19.2025C71.178 24.9772 75.9186 29.6155 81.6866 29.6155C87.5014 29.6155 92.2652 25.0004 92.2652 19.1561C92.242 13.3351 87.5715 8.71999 81.7098 8.71999ZM57.4234 9.04466C52.216 9.57805 47.9658 14.0308 47.9658 19.3416C47.9658 24.954 52.7996 29.6618 58.4511 29.6618C64.0791 29.6618 68.9362 24.954 68.9362 19.3416C68.9362 16.9529 68.072 14.7497 66.6711 13.0104L56.3026 0.255107H50.2544L57.4234 9.04466ZM21.2273 20.5244L16.9538 9.4621H13.6845L9.38766 20.5244L5.09081 9.4621H0L7.51945 28.9429H10.7888L15.2958 17.3472L19.8495 28.9429H23.1189L30.615 9.4621H25.5475L21.2273 20.5244ZM121.666 13.8917V9.4621H116.996V28.8965H121.666V20.6868C121.666 16.6978 125.963 14.2627 130.236 14.2627V9.4621H129.769C126.15 9.4621 123.534 10.7608 121.666 13.8917ZM136.495 13.8917V9.4621H131.824V28.8965H136.495V20.6868C136.495 16.6978 140.791 14.2627 145.065 14.2627V9.4621H144.598C141.002 9.4621 138.386 10.7608 136.495 13.8917ZM40.8901 28.8965H45.5606V0.255107H40.8901V28.8965ZM58.4744 24.9772C55.2516 24.9772 52.6363 22.4029 52.6363 19.2025C52.6363 15.9789 55.2516 13.4047 58.4511 13.4047C61.6968 13.4047 64.3357 15.9789 64.3357 19.2025C64.3357 22.4029 61.6968 24.9772 58.4744 24.9772ZM81.6866 24.9772C78.5106 24.9772 75.8485 22.4493 75.8485 19.1793C75.8485 16.0021 78.3473 13.4047 81.7098 13.4047C85.0727 13.4047 87.5715 16.0021 87.5715 19.1561C87.5715 22.4493 84.9094 24.9772 81.6866 24.9772ZM32.7866 28.8965H37.4572V9.4621H32.7866V28.8965ZM35.0753 0C33.1837 0 31.5958 1.57702 31.5958 3.57147C31.5958 5.58914 33.2537 6.95743 35.0753 6.95743C37.1069 6.95743 38.6483 5.28765 38.6483 3.4787C38.6247 1.64659 37.0136 0 35.0753 0ZM99.808 16.4427C100.602 14.5178 102.237 13.4047 104.665 13.4047C107.164 13.4047 108.682 14.5874 109.312 16.4427H99.808Z" fill="#4E4E4D"/>
</svg>
