<svg width="170" height="32" viewBox="0 0 170 32" fill="none" xmlns="http://www.w3.org/2000/svg">
<g clip-path="url(#clip0_1376_589)">
<path d="M29.6577 19.7785C29.3993 20.4295 29.1856 21.0755 28.8179 21.6768C29.0266 21.6967 29.0713 21.5327 29.1856 21.473C29.3148 21.4084 29.4291 21.3041 29.5484 21.2246C29.8714 21.0407 30.2193 20.9115 30.582 20.8767C30.9547 20.8419 31.3324 20.8668 31.725 20.8668C31.6008 21.3389 31.3473 21.7513 31.0094 22.0644C30.5423 22.5017 30.0155 22.8744 29.3546 22.9887C28.7235 23.0931 28.2464 23.0931 28.0426 23.0036C27.5904 23.5602 27.2426 24.1913 26.7158 24.7032C26.7705 24.6833 26.8202 24.6634 26.8748 24.6436C27.1829 24.5243 27.491 24.405 27.8041 24.2907C27.8687 24.2659 27.9433 24.2808 28.0128 24.2758C28.1072 24.2758 28.2066 24.2808 28.3011 24.2758C28.7682 24.241 29.2105 24.3355 29.6428 24.4895C29.6627 24.4994 29.6925 24.4895 29.7124 24.4895C29.7323 24.4895 29.7521 24.5044 29.777 24.5193V24.6535C29.3198 25.3144 28.6837 25.7219 27.9184 25.9157C27.1531 26.1096 26.3978 25.9953 25.6971 25.6871C25.1206 26.199 24.5292 26.6313 23.8733 27.0687C23.9776 27.0687 24.0373 27.0836 24.0919 27.0687C24.5292 26.9245 24.9815 27.014 25.4237 27.009C25.5927 27.009 25.7716 27.0885 25.9356 27.1482C26.3182 27.2823 26.676 27.4712 26.9841 27.7395C25.9157 28.7384 24.077 28.8726 22.8048 27.7942C22.7055 27.7992 22.616 27.8041 22.5067 27.8538C21.9352 28.147 21.3538 28.4104 20.7326 28.5794C20.6729 28.5943 20.6183 28.644 20.5437 28.6937C20.8121 28.7831 21.0854 28.6887 21.3538 28.7781C21.6022 28.8626 21.8656 28.9223 22.1091 29.0316C22.3427 29.1359 22.5713 29.2652 22.7551 29.459C22.9539 29.6627 23.1577 29.8615 23.3813 30.0901C23.1328 30.2243 22.9191 30.3485 22.6607 30.3733C22.5166 30.3882 22.3725 30.428 22.2234 30.4379C22.0694 30.4479 21.9153 30.4379 21.7563 30.4379C21.3637 30.4479 20.991 30.3336 20.6382 30.1944C20.4096 30.1 20.176 29.9658 19.9872 29.777C19.8381 29.6329 19.6641 29.5136 19.5151 29.3645C19.4008 29.2552 19.3163 29.1161 19.2268 28.9968C18.6852 29.1558 18.1435 29.1956 17.5819 29.3099C17.7509 29.7174 17.9298 30.11 18.0739 30.5075C18.223 30.915 18.3423 31.3275 18.4764 31.7548C18.3522 31.8244 18.218 31.7747 18.0938 31.7847C17.9646 31.7946 17.8354 31.7847 17.7062 31.7847C17.6217 31.397 17.4478 31.0492 17.3186 30.6814C17.1943 30.3286 17.0651 29.9758 16.8862 29.6428C16.7073 29.3049 16.5334 28.957 16.3545 28.6142C15.9669 28.9024 15.0923 31.0691 14.9432 31.7698H14.1481C14.2872 31.3374 14.4065 30.915 14.5556 30.5025C14.6997 30.1 14.8786 29.7124 15.0475 29.3049C14.481 29.2055 13.9493 29.1111 13.3778 29.0067C13.3082 29.1012 13.2188 29.2353 13.1144 29.3596C12.8013 29.7472 12.041 30.2243 11.554 30.3485C11.3403 30.4032 10.411 30.5025 10.2321 30.4131C10.0681 30.3336 9.8793 30.428 9.75009 30.2839C9.57616 30.3087 9.46683 30.1547 9.28793 30.1199C9.95384 29.1608 10.8632 28.7036 12.0261 28.6937C11.9963 28.6539 11.9814 28.6191 11.9565 28.6092C11.2956 28.3607 10.6297 28.1222 10.0085 27.7793C9.96378 27.7544 9.8942 27.7793 9.83954 27.7793C9.20345 28.3259 8.45306 28.5744 7.65298 28.5496C6.9175 28.5297 6.23172 28.2514 5.64532 27.7495C5.82919 27.5507 6.05282 27.4364 6.28141 27.3221C6.51001 27.2078 6.75351 27.1333 6.99204 27.0438C7.25045 26.9494 7.52874 27.0736 7.77225 26.9295C7.85176 27.0438 7.98096 26.9742 8.09029 26.9891C8.19465 26.9991 8.3338 26.9544 8.40337 27.0041C8.52263 27.0935 8.61705 27.0388 8.78602 27.0736C8.09526 26.6363 7.51384 26.1841 6.92744 25.6822C6.19693 26.0151 5.42667 26.0847 4.62658 25.8959C4.46259 25.8313 4.28866 25.7567 4.10976 25.7021C3.91098 25.6424 3.77184 25.4884 3.59294 25.389C3.42398 25.2946 3.25998 25.1654 3.14569 25.0113C3.03636 24.8622 2.85746 24.7429 2.83758 24.5243C3.8911 24.1267 4.90487 24.1615 5.9584 24.7579C5.81428 24.4746 5.6006 24.3504 5.47636 24.1566C5.34219 23.9528 5.16825 23.764 5.02911 23.5503C4.8999 23.3515 4.73094 23.1776 4.58186 22.9937C3.79669 23.1726 3.03139 23.0185 2.34064 22.6111C1.66479 22.2135 1.15294 21.647 0.914402 20.8717C1.97787 20.7127 2.86243 20.9264 3.81159 21.7215C3.76687 21.6172 3.74699 21.5724 3.72711 21.5277C3.51343 21.0556 3.25005 20.6034 3.13078 20.0915C3.10593 19.9772 3.02145 19.8779 2.95685 19.7636C1.93811 19.5797 1.44613 19.4157 0.631144 18.4963C0.347885 18.1733 -0.104335 17.259 0.00499246 16.7471C0.536724 16.7471 0.988944 16.9807 1.43619 17.2341C1.87848 17.4875 2.2164 17.8553 2.52947 18.2628C2.34064 17.6068 2.33567 16.9409 2.18161 16.2651C1.9232 16.1806 1.66976 16.0365 1.41632 15.8675C1.07342 15.6339 0.810044 15.3308 0.566541 15.0028C0.357824 14.7245 0.248496 14.3916 0.139168 14.0686C0.0745648 13.8797 0.0646259 13.666 0.054687 13.4573C0.0397786 13.1989 0.054687 12.9355 0.054687 12.6572C0.586418 12.7368 0.954158 13.0449 1.31196 13.3828C1.6797 13.7257 1.94308 14.1232 2.07725 14.6003H2.20149C2.20149 14.3816 2.22137 14.153 2.19652 13.9344C2.17167 13.7058 2.29591 13.502 2.27106 13.2834C2.24125 13.0548 2.36051 12.8511 2.3456 12.6324C2.33567 12.6225 2.3307 12.6125 2.32076 12.6075C2.00271 12.4386 1.77412 12.1603 1.5654 11.887C1.3865 11.6534 1.25729 11.3751 1.13306 11.1018C1.05852 10.9328 0.988944 10.739 0.993914 10.5552C0.998883 10.2968 0.859738 10.0433 0.919372 9.79981C0.998883 9.47182 1.01379 9.1339 1.143 8.82082C1.17778 8.74131 1.23742 8.66677 1.28214 8.59223C1.70455 8.84567 2.00271 9.20347 2.24622 9.61097C2.48475 10.0036 2.56923 10.4558 2.71831 10.9527C2.92206 10.2769 3.14072 9.69048 3.39913 9.10905C2.3456 7.97602 2.36548 6.04787 3.39913 4.92477C3.61778 5.04404 3.70723 5.28754 3.82153 5.47638C3.93583 5.67516 4.03522 5.90872 4.07 6.16217C4.09982 6.39076 4.20915 6.61439 4.20418 6.85789C4.19921 7.09642 4.24394 7.33993 4.16939 7.5884C4.53216 7.06661 4.89493 6.54481 5.26267 6.01308C5.20304 5.85406 5.09371 5.67019 5.07383 5.48135C5.04899 5.2776 4.94463 5.0838 4.98935 4.86514C5.00923 4.75084 4.99929 4.62661 4.98935 4.50734C4.96451 4.09984 5.0788 3.72714 5.2428 3.3594C5.44157 2.92208 5.69999 2.52453 5.98324 2.27109C6.09257 2.1717 6.21681 2.09219 6.34104 2.00274C6.50007 2.02261 6.53982 2.17667 6.5597 2.27605C6.66406 2.73821 6.7883 3.21031 6.69884 3.68241C6.64418 3.97561 6.65412 4.28371 6.43049 4.62661C6.5597 4.57194 6.61436 4.562 6.64915 4.53219C6.76345 4.42783 6.86284 4.30856 6.9821 4.2042C7.23555 3.98555 7.49396 3.77186 7.78219 3.52836C7.78219 3.41903 7.80206 3.26498 7.78219 3.11589C7.75237 2.90221 7.85673 2.7084 7.8617 2.49968C7.8617 2.29593 7.94618 2.10709 8.00084 1.91328C8.08532 1.60518 8.27416 1.35671 8.44312 1.09333C8.78105 0.561594 9.30284 0.268396 9.84948 4.55203e-05C9.88426 -0.0198323 9.93893 4.55203e-05 9.98862 4.55203e-05C10.0582 0.834914 10.0184 1.63003 9.45689 2.39035C9.57119 2.3506 9.61591 2.33569 9.66064 2.31581C9.90911 2.19157 10.1526 2.0574 10.4011 1.93813C10.5005 1.88844 10.6098 1.86856 10.739 1.8288C10.908 1.45113 11.226 1.16787 11.5292 0.884608C11.8522 0.586441 12.2646 0.427418 12.6771 0.288274C12.8162 0.243549 12.9554 0.203793 13.1144 0.208763C13.2585 0.208763 13.4076 0.178946 13.5517 0.13919C13.7008 0.0994346 13.8151 0.208763 13.9542 0.218701C14.0884 0.223671 14.2325 0.164037 14.3617 0.278335C14.4015 0.313121 14.5009 0.283304 14.5953 0.283304C14.5953 0.342938 14.6003 0.397602 14.6003 0.422449C14.4959 0.571533 14.3667 0.695769 14.327 0.839883C14.2922 0.95418 14.1182 0.894547 14.1431 1.05357C14.1481 1.09333 14.0089 1.15793 13.9344 1.21259C13.9046 1.23247 13.8747 1.25235 13.8549 1.27719C13.5368 1.63996 13.0995 1.79402 12.6672 1.95801C12.5429 2.0077 12.4137 2.06734 12.2845 2.06237C11.9665 2.06237 11.713 2.26115 11.4099 2.29096C11.3751 2.29096 11.3403 2.35557 11.2856 2.41023C11.7577 2.46489 12.2249 2.37544 12.6721 2.53447C13.0896 2.68355 13.4672 2.89227 13.8052 3.1954C13.4175 3.50351 12.9902 3.73707 12.4883 3.86131C12.0062 3.98058 11.5192 3.9607 11.0521 3.911C10.5551 3.86131 10.088 3.64265 9.70039 3.29479C9.66561 3.26498 9.63579 3.23019 9.60598 3.20037C8.95995 3.58302 8.37355 4.02033 7.80206 4.47752C7.92133 4.58685 8.0406 4.46758 8.11017 4.42286C8.35367 4.25887 8.62202 4.2539 8.89037 4.22408C9.18357 4.19426 9.48671 4.21911 9.78488 4.21911C9.99359 4.21911 10.1824 4.28868 10.3713 4.36322C10.5054 4.41789 10.6496 4.44771 10.7738 4.51728C11.0074 4.65145 11.231 4.80551 11.4646 4.96453C11.2161 5.19312 10.9477 5.34718 10.6595 5.48135C10.2222 5.6851 9.76997 5.80437 9.28793 5.79443C9.19848 5.79443 9.10903 5.76958 9.01461 5.76461C8.48785 5.73479 8.02072 5.53602 7.56353 5.29251C7.47408 5.24282 7.40451 5.15337 7.32003 5.07883C7.17591 5.07883 7.04174 5.11361 6.98707 5.2776C6.9821 5.29748 6.95726 5.31239 6.93738 5.3273C6.66406 5.52608 6.47025 5.7994 6.23669 6.03793C6.04288 6.23671 5.88386 6.47027 5.74471 6.73365C5.78447 6.71875 5.82919 6.71378 5.85901 6.6939C6.17705 6.46033 6.51995 6.27646 6.9175 6.22677C7.08646 6.07769 7.32003 6.20689 7.50887 6.09756C7.58838 6.04787 7.75237 6.04787 7.88158 6.12738C7.95115 6.17211 8.06048 6.14229 8.15489 6.1572C8.47294 6.20689 8.79595 6.26156 9.08915 6.46033C8.94504 6.63426 8.8208 6.81317 8.67172 6.96225C8.51766 7.1163 8.34373 7.25545 8.15986 7.37471C7.98593 7.48901 7.79709 7.60828 7.59832 7.653C7.39954 7.69773 7.22561 7.82196 7.01689 7.80706C6.79823 7.79712 6.59449 7.92135 6.36589 7.8816C6.15221 7.84184 5.92858 7.84681 5.71489 7.80209C5.51115 7.75736 5.31237 7.67785 5.09371 7.60828C4.65143 8.22946 4.32842 8.93512 4.01534 9.65569C4.50235 9.09911 5.11359 8.75125 5.79937 8.51769C6.25159 8.54253 6.70878 8.29903 7.15603 8.5475C6.9672 9.27801 6.45534 9.74514 5.88386 10.1675C5.51612 10.4359 5.0788 10.5303 4.6564 10.6645C4.54707 10.6993 4.41787 10.6695 4.2986 10.6695H3.65754C3.61282 10.749 3.56809 10.8136 3.53827 10.8831C3.5184 10.9229 3.50846 10.9676 3.49852 11.0124C3.34446 11.6733 3.12581 12.3243 3.08605 13.02C3.34446 12.4734 3.74202 12.041 4.20915 11.6783C4.68125 11.3155 5.2428 11.1664 5.85901 11.0869C5.80434 11.559 5.70496 11.9963 5.49127 12.3988C5.37697 12.5678 5.27261 12.7417 5.14341 12.9007C4.99929 13.0747 4.86015 13.2635 4.67131 13.3778C4.51726 13.4722 4.40793 13.6263 4.22406 13.6809C4.0551 13.7306 3.89607 13.8151 3.74202 13.8996C3.60288 13.9791 3.45876 14.0288 3.29477 14.0387C3.1755 14.0487 3.05624 14.0934 2.92206 14.1282C2.92206 14.7693 2.92206 15.4103 2.92206 16.0514C2.92206 16.1706 2.98169 16.2849 3.02145 16.4241C3.22023 15.4501 3.73208 14.4761 5.10862 13.8748C5.12353 13.9145 5.14838 13.9741 5.16825 14.0288C5.21795 14.491 5.23286 14.9879 5.06886 15.47C4.90487 15.942 4.65143 16.3595 4.32842 16.7372C4.0054 17.1148 3.55318 17.3236 3.13078 17.5571C3.32459 18.2578 3.46373 18.9535 3.75196 19.6691C3.77681 19.3262 3.77184 19.038 3.82153 18.7597C3.87123 18.4914 3.92092 18.2131 4.06007 17.9646C4.19921 17.7211 4.3632 17.4925 4.50732 17.254C4.66634 16.9856 4.96948 16.9161 5.1285 16.6328C5.19807 16.7173 5.2577 16.757 5.27758 16.8167C5.45151 17.2937 5.54593 18.0491 5.49624 18.5162C5.47139 18.7398 5.14341 19.7139 4.97941 19.8729C4.72597 20.1214 4.58186 20.4841 4.22406 20.6481C4.13461 20.8469 4.26878 21.0258 4.37314 21.1649C4.5918 21.4532 4.69616 21.806 4.91481 22.0893C5.04402 22.2533 5.1285 22.452 5.2577 22.6309C5.17322 22.0644 5.07383 21.5128 5.19807 20.9363C5.31734 20.3847 5.52605 19.8977 5.89379 19.4555C6.10251 19.5598 6.18699 19.7536 6.28141 19.9275C6.41559 20.1711 6.52988 20.4146 6.57958 20.7028C6.63424 21.0059 6.72369 21.2991 6.70878 21.6122C6.70381 21.7513 6.72866 21.9004 6.68891 22.0346C6.56964 22.4272 6.51995 22.8396 6.28141 23.1875C6.18202 23.3366 6.07766 23.4807 5.97331 23.6397C6.45037 24.1317 6.90756 24.6088 7.3896 25.1057C7.40948 25.0312 7.43432 24.9815 7.42439 24.9715C7.20076 24.7579 7.17094 24.4547 7.07155 24.1864C6.92744 23.7938 6.87278 23.3714 6.93241 22.9589C6.98707 22.6011 7.12125 22.2533 7.23058 21.8507C7.47408 22.1091 7.80206 22.1986 7.9263 22.5117C8.13005 22.6458 8.18471 22.8844 8.31889 23.0682C8.463 23.2621 8.49779 23.5155 8.56736 23.7491C8.60711 23.8783 8.63693 24.0174 8.63693 24.1466C8.63693 24.2758 8.68166 24.3901 8.71147 24.5094C8.72638 24.5839 8.71147 24.6734 8.69657 24.7529C8.68663 24.8175 8.64687 24.8821 8.64687 24.9467C8.64687 25.2449 8.56736 25.5232 8.44312 25.7965C8.42325 25.8362 8.42822 25.8859 8.42325 25.9356C9.00964 26.358 9.61591 26.7407 10.2719 27.0537C10.0483 26.8053 9.8296 26.5618 9.64573 26.2934C9.56622 26.1742 9.50659 26.04 9.45192 25.9108C9.38732 25.7567 9.33265 25.6027 9.28296 25.4436C9.24817 25.3244 9.21339 25.2001 9.21339 25.0809C9.20345 24.7231 9.21339 24.3702 9.21339 23.9727C9.51156 24.0969 9.77494 24.2112 10.0234 24.3901C10.2719 24.574 10.5005 24.7678 10.6843 25.0063C10.8682 25.2449 11.0372 25.4884 11.1564 25.7766C11.2757 26.0599 11.3453 26.3481 11.39 26.6462C11.4397 26.9593 11.4298 27.2823 11.4447 27.6203C12.1354 27.9085 12.8659 28.152 13.6362 28.2812C12.538 27.7147 11.9267 26.8251 11.7727 25.5828C12.0957 25.5281 12.369 25.6524 12.6423 25.7468C13.5617 26.0648 14.1878 26.7109 14.5605 27.5954C14.6748 27.8687 14.7295 28.1719 14.8189 28.475C15.0078 28.5843 15.2314 28.5794 15.465 28.5794C15.9768 28.5794 16.4936 28.5794 17.0055 28.5794C17.2689 28.5794 17.5422 28.6142 17.8006 28.47C17.9646 27.6103 18.3125 26.8152 19.033 26.2487C19.5399 25.8511 20.1263 25.6027 20.822 25.5629C20.7773 26.1642 20.5934 26.686 20.2605 27.1631C19.9226 27.6401 19.5151 28.0278 18.9237 28.2564C19.2368 28.3657 19.4604 28.147 19.7188 28.1172C19.9772 28.0874 20.2257 27.9632 20.4742 27.8737C20.7226 27.7843 20.9711 27.6898 21.2196 27.6004C21.0954 27.0587 21.1699 26.5518 21.3239 26.0648C21.473 25.5927 21.7364 25.1703 22.0992 24.8076C22.4669 24.4398 22.8694 24.1516 23.3863 23.9777C23.4012 24.564 23.431 25.1306 23.2422 25.6822C23.0583 26.2139 22.7253 26.6512 22.3377 27.0587C22.9887 26.7605 23.585 26.3729 24.1863 25.9456C24.1764 25.9108 24.1714 25.8462 24.1516 25.7816C24.0721 25.5132 23.9627 25.2498 23.9677 24.9616C23.9677 24.897 23.9279 24.8324 23.923 24.7678C23.918 24.6535 23.923 24.5442 23.923 24.4299C23.923 24.3653 23.9578 24.3007 23.9627 24.2311C24.0124 23.7789 24.0969 23.3465 24.3752 22.9689C24.4448 22.8695 24.5044 22.7601 24.5491 22.6508C24.5938 22.5415 24.6883 22.4719 24.7628 22.3924C24.9268 22.2036 25.1355 22.0594 25.3343 21.8905C25.7716 22.8198 25.866 23.8286 25.1703 25.061C25.7965 24.7181 26.1195 24.1069 26.6363 23.6596C26.4773 23.4012 26.3033 23.1577 26.1741 22.8844C26.04 22.6061 26.0648 22.293 25.9058 22.0296C25.9306 21.7315 25.8909 21.4333 25.9555 21.1252C26.0201 20.832 26.0499 20.5289 26.1741 20.2456C26.2934 19.9623 26.4375 19.699 26.676 19.4604C26.7456 19.5201 26.8351 19.5697 26.8798 19.6393C27.1283 20.0468 27.337 20.4692 27.4215 20.9562C27.4761 21.2594 27.4811 21.5625 27.4712 21.8607C27.4662 22.0594 27.4314 22.2632 27.3469 22.452C27.327 22.4968 27.3469 22.5614 27.3469 22.6806C27.4811 22.4818 27.6004 22.3377 27.6898 22.1787C27.824 21.9402 27.9433 21.6867 28.0725 21.4432C28.147 21.3041 28.2563 21.1848 28.3209 21.0457C28.3756 20.9264 28.4899 20.8121 28.3756 20.6382C27.655 20.1412 27.2823 19.371 27.1432 18.5113C27.0438 17.895 27.1183 17.259 27.4413 16.6825C28.0625 17.0999 28.2712 17.3981 28.5495 17.9696C28.803 18.4864 28.9073 19.048 28.8626 19.6344C29.1459 18.9684 29.3248 18.2777 29.4689 17.5522C28.7533 17.249 28.1669 16.762 27.7991 16.0514C27.501 15.47 27.3718 15.1469 27.4115 14.0238C27.4463 13.9841 27.4811 13.9394 27.5159 13.9046C28.798 14.4065 29.5086 15.6141 29.608 16.4092C29.6428 16.2203 29.6975 16.0315 29.7024 15.8377C29.7174 15.2761 29.7024 14.7196 29.7024 14.158C29.4391 14.0238 29.1359 14.0437 28.8676 13.9195C28.4004 13.7008 27.9631 13.4524 27.6103 13.0697C27.4314 12.8759 27.342 12.6125 27.1283 12.4436C27.0786 12.1354 26.8699 11.877 26.84 11.559C26.8251 11.4198 26.7854 11.2807 26.7506 11.0968C27.3767 11.1913 27.9234 11.3354 28.4054 11.7031C28.8875 12.0708 29.29 12.4883 29.5633 13.0399C29.5385 12.8411 29.5235 12.6374 29.4888 12.4386C29.454 12.2398 29.3943 12.046 29.3496 11.8522C29.3049 11.6584 29.28 11.4497 29.2005 11.2708C29.121 11.0869 29.1757 10.8533 28.9371 10.6844C28.8129 10.6844 28.634 10.6744 28.4601 10.6844C27.8339 10.7291 27.2823 10.5154 26.7705 10.1825C26.3083 9.88429 25.9257 9.50661 25.6523 9.02457C25.5778 8.8904 25.538 8.73634 25.4734 8.57235C25.7915 8.45308 26.1046 8.40836 26.4325 8.51769C26.4971 8.53757 26.5717 8.53757 26.6413 8.53757C26.8301 8.5326 26.9941 8.58726 27.1581 8.67174C28.0128 9.08918 27.9085 8.98979 28.6439 9.73023C28.6191 9.63085 28.6092 9.58115 28.5893 9.53643C28.4154 9.18856 28.2116 8.85561 28.0675 8.49781C27.9681 8.25431 27.7743 8.07541 27.6749 7.83687C27.6451 7.7673 27.5954 7.7027 27.5606 7.63312C27.2724 7.68779 27.004 7.78221 26.7257 7.83687C26.5071 7.87663 26.2884 7.90147 26.0747 7.88657C25.8511 7.87166 25.6275 7.82196 25.4039 7.77724C25.056 7.7027 24.7131 7.56852 24.4348 7.35981C24.1764 7.166 23.8584 7.002 23.7143 6.67402C23.6844 6.60445 23.6049 6.55475 23.5254 6.48021C23.6496 6.42058 23.759 6.36094 23.8733 6.32616C24.1217 6.24665 24.3702 6.16217 24.6386 6.17707C24.733 6.17707 24.8523 6.08763 24.9268 6.11744C25.1504 6.21683 25.389 6.14229 25.6076 6.20192C25.8213 6.26156 26.04 6.31125 26.2387 6.4007C26.4226 6.48021 26.5866 6.60445 26.7556 6.70881C26.7903 6.72868 26.8301 6.74856 26.9146 6.79329C26.8699 6.68396 26.8549 6.60942 26.8152 6.55972C26.6413 6.35598 26.4624 6.1572 26.2884 5.95345C26.1741 5.82424 26.0598 5.69007 25.9455 5.56583C25.8362 5.44657 25.6871 5.36208 25.6026 5.20803C25.5679 5.1484 25.4486 5.13349 25.3591 5.0987C25.2051 5.20306 25.056 5.30245 24.9069 5.40184C24.6634 5.55589 24.3851 5.6354 24.1118 5.73479C24.0919 5.74473 24.0721 5.75964 24.0522 5.75964C23.7888 5.78449 23.5254 5.80934 23.2571 5.83418C22.9887 5.85903 22.3924 5.6851 22.0495 5.55092C21.7265 5.42669 21.4581 5.23288 21.16 5.00428C21.4233 4.84526 21.6619 4.69121 21.9103 4.54709C22.1489 4.40795 22.4222 4.33341 22.6905 4.26881C22.9042 4.21911 23.1428 4.24396 23.3664 4.26384C23.585 4.28371 23.8087 4.18929 24.0224 4.32347C24.0919 4.36819 24.2062 4.32844 24.251 4.32844C24.4746 4.40298 24.6088 4.56697 24.8771 4.53219C24.2559 4.07003 23.6844 3.62775 23.0682 3.26498C22.8197 3.41903 22.5812 3.58799 22.3228 3.72217C22.0197 3.87622 21.6967 3.97561 21.3538 3.97064C21.1997 3.97064 21.0407 3.9607 20.8866 3.97064C20.3002 4.01039 19.7685 3.8464 19.2765 3.5383C19.1225 3.44388 18.9734 3.33952 18.8144 3.24013C19.9921 2.4152 19.848 2.55931 21.2494 2.44005C21.2494 2.4152 21.2544 2.39532 21.2643 2.34563C20.9512 2.29593 20.668 2.15182 20.345 2.09219C19.7834 1.98783 19.2765 1.72941 18.8193 1.36168C18.5261 1.12811 18.3174 0.839883 18.0988 0.551655C18.054 0.496991 18.0491 0.41251 18.0242 0.352877C18.3224 0.23361 18.6156 0.293243 18.8839 0.178946C18.9436 0.154099 19.0281 0.164037 19.0976 0.178946C19.5499 0.248518 20.0021 0.303182 20.4294 0.511899C20.9811 0.785219 21.5674 1.26726 21.8457 1.79402C22.2632 2.00273 22.6756 2.20648 23.0881 2.41023C22.6061 1.67475 22.5713 0.874669 22.6359 0.0298622C22.7601 0.0547095 22.9142 0.0447706 23.0136 0.114343C23.3962 0.392632 23.8236 0.611288 24.1019 1.03369C24.3156 1.35174 24.5392 1.65487 24.6485 2.02758C24.6883 2.16673 24.738 2.3009 24.7628 2.44502C24.7976 2.62392 24.8224 2.80779 24.8324 2.98669C24.8423 3.16559 24.8324 3.34449 24.8324 3.52339C24.8324 3.54327 24.8423 3.56811 24.8423 3.56811C24.9964 3.70229 25.1206 3.85137 25.2747 3.93585C25.4337 4.0253 25.538 4.15948 25.6722 4.27377C25.8114 4.38807 25.9008 4.56697 26.1443 4.64151C25.7915 3.71223 25.8362 2.83263 26.2139 1.98783C26.6661 2.26115 27.0189 2.64876 27.2575 3.11092C27.4861 3.55817 27.6501 4.04021 27.6351 4.56697C27.6202 5.0838 27.5855 5.59068 27.337 6.06278C27.7296 6.50009 28.0277 7.01194 28.3408 7.50392C28.3607 7.53374 28.4054 7.54864 28.5048 7.60828C28.465 7.48404 28.4452 7.42938 28.4154 7.32502C28.3806 6.91255 28.4154 6.44543 28.5744 6.01308C28.7086 5.64037 28.8676 5.2627 29.1657 4.97447C29.3745 5.01422 29.4192 5.20803 29.5086 5.34221C29.7074 5.6354 29.8118 5.9783 29.9112 6.32119C30.0255 6.71378 30.0304 7.12127 29.9658 7.50889C29.8664 8.11516 29.6627 8.70156 29.2105 9.16372C29.454 9.7352 29.6975 10.3117 29.8714 10.9428C29.9161 10.8732 29.9708 10.8285 29.9807 10.7688C30.0354 10.3663 30.1696 9.98865 30.3783 9.64575C30.6168 9.2482 30.905 8.8904 31.3125 8.63695C31.4865 8.77113 31.5163 8.98482 31.556 9.17365C31.5908 9.33765 31.6703 9.49667 31.6455 9.68054C31.6306 9.76999 31.725 9.88429 31.7051 9.96877C31.6057 10.3166 31.6455 10.6844 31.5163 11.0322C31.397 11.3602 31.2579 11.6783 31.0591 11.9466C30.8554 12.2249 30.6019 12.4833 30.2739 12.697C30.2839 12.7566 30.3037 12.8461 30.3187 12.9306C30.3286 12.9753 30.3485 13.015 30.3485 13.0598C30.3336 13.4921 30.4777 13.9195 30.418 14.3568C30.4031 14.491 30.4727 14.5953 30.5224 14.7196C30.8355 13.671 31.571 13.0449 32.5599 12.6374C32.5996 13.4524 32.5798 14.2276 32.1176 14.9283C31.8294 15.3706 31.8095 15.5644 30.3683 16.3843C30.4031 16.5583 30.2044 17.8255 30.0602 18.3174C30.1248 18.2876 30.1894 18.2777 30.2044 18.2479C30.2739 18.0988 30.3932 17.9944 30.4926 17.8702C30.592 17.741 30.7261 17.6565 30.8404 17.5522C31.1684 17.2391 31.566 17.0701 31.9834 16.926C32.1872 16.8564 32.3909 16.7819 32.6295 16.8018C32.6891 17.0701 32.6046 17.3186 32.5052 17.5621C32.3859 17.8603 32.2866 18.1634 32.0778 18.4268C31.8095 18.7647 31.5262 19.0778 31.1535 19.3113C30.8852 19.4753 30.6168 19.6244 30.3037 19.684C30.2739 19.689 30.2491 19.7288 30.2193 19.7337C30.0404 19.7636 29.8565 19.7884 29.6577 19.8133V19.7785ZM6.34601 2.15679H6.32117V2.22636H6.34601V2.15679ZM4.29363 14.7345V14.7096H4.22406V14.7345H4.29363Z" fill="#4A4A49"/>
<path d="M14.9233 13.6163H10.3961V12.687H17.085C17.085 12.687 17.1098 12.7019 17.1098 12.7118C17.1098 12.7168 17.0999 12.7268 17.0899 12.7367C15.3457 14.481 13.5964 16.2302 11.8521 17.9745C11.8422 17.9844 11.8372 17.9894 11.8273 17.9993C11.8173 18.0093 11.8124 18.0143 11.8024 18.0242C11.7925 18.0341 11.7875 18.0391 11.7776 18.049C11.7677 18.059 11.7577 18.0639 11.7527 18.0739C11.7478 18.0838 11.7428 18.0938 11.7428 18.1037C11.7428 18.1136 11.7428 18.1285 11.7428 18.1435C11.8223 18.2627 11.877 18.1534 11.9466 18.0987C11.9962 18.1285 12.041 18.1584 12.0956 18.1932C12.1205 18.1832 12.1503 18.1683 12.2099 18.1435C12.2894 18.1782 12.4037 18.2428 12.4932 18.1285C12.682 18.2528 12.8858 18.1733 13.0796 18.1882C13.2933 18.2031 13.507 18.1882 13.7256 18.1882H14.3319C14.5356 18.1882 14.7394 18.1981 14.9382 18.1882C15.1469 18.1733 15.3506 18.2081 15.5643 18.1484C15.7333 18.1037 15.942 18.1782 16.106 18.1981C18.1534 16.1507 20.1859 14.1182 22.2184 12.0857C22.2433 12.1105 22.2532 12.1205 22.2582 12.1304C22.2631 12.1404 22.2681 12.1503 22.2681 12.1602C22.2681 12.5528 22.2681 12.9454 22.2681 13.3231C20.3648 15.2264 18.4665 17.1247 16.5483 19.0429H10.3911V18.1435C11.8819 16.6526 13.3827 15.1518 14.9233 13.6113V13.6163Z" fill="#4A4A49"/>
<path d="M22.2632 9.96875V11.4C20.171 13.4921 18.0789 15.5842 15.9818 17.6813H14.7344C16.9955 15.4103 19.2368 13.1591 21.478 10.908C21.4829 10.903 21.478 10.8831 21.478 10.8732C21.478 10.8633 21.468 10.8533 21.4631 10.8434C21.4581 10.8334 21.4482 10.8235 21.4382 10.8235C17.7658 10.8235 14.0884 10.8235 10.3862 10.8235C10.3862 10.6844 10.3812 10.5502 10.3762 10.411C10.3762 10.2719 10.3762 10.1278 10.3762 9.97869H22.2582L22.2632 9.96875Z" fill="#4A4A49"/>
<path d="M18.2478 12.2546H10.3911V11.3303H20.3598C18.2627 13.4274 16.1507 15.5394 14.0138 17.6763H12.8261C14.6251 15.8774 16.4141 14.0884 18.2528 12.2497L18.2478 12.2546Z" fill="#4A4A49"/>
<path d="M10.4856 20.4842L10.3862 20.3848V19.55H16.4042C16.4738 19.55 16.5484 19.5599 16.6179 19.55C16.7322 19.5251 16.8515 19.5301 16.9012 19.3761C16.926 19.2965 17.0304 19.2369 17.095 19.1723C18.561 17.7063 20.0319 16.2354 21.5029 14.7694C21.5973 14.6749 21.7613 14.6203 21.816 14.511C21.8806 14.3768 21.9949 14.2973 22.0843 14.1929C22.1191 14.1532 22.1738 14.1283 22.2483 14.0786V15.311C22.1241 15.3607 22.0992 15.5347 21.9601 15.6241C21.816 15.7185 21.7066 15.8726 21.5725 15.9869C21.4532 16.0863 21.3886 16.2254 21.2544 16.3198C21.1103 16.4192 20.9761 16.5534 20.8767 16.6975C20.7823 16.8267 20.6382 16.8913 20.5438 17.0156C20.4444 17.1448 20.3649 17.3088 20.2357 17.3833C20.0767 17.4727 19.9574 17.597 19.8481 17.7262C19.7437 17.8455 19.6543 17.9598 19.5201 18.0542C19.376 18.1536 19.2319 18.2828 19.1474 18.4319C19.0629 18.5809 18.8989 18.6157 18.8095 18.7499C18.72 18.8791 18.5659 18.9686 18.5113 19.1276C18.3224 19.1673 18.2479 19.3512 18.1137 19.4605C17.9945 19.5599 17.9199 19.6941 17.7907 19.7885C17.6565 19.8929 17.5025 19.9972 17.4578 20.1811C17.2838 20.2209 17.2093 20.3898 17.0751 20.4842H10.4956H10.4856Z" fill="#4A4A49"/>
<path d="M17.726 21.8408H10.4557C10.4308 21.7811 10.3811 21.7215 10.3811 21.6619C10.3712 21.4233 10.3811 21.1848 10.3811 20.9264H17.3235C17.5123 20.7226 17.6564 20.5587 17.8105 20.4046C19.192 19.0181 20.5735 17.6366 21.96 16.2551C22.0395 16.1756 22.0941 16.0563 22.2233 16.0464C22.2382 16.0613 22.2531 16.0663 22.2531 16.0762C22.2531 16.4539 22.2531 16.8365 22.2531 17.249C22.0395 17.4627 21.8059 17.6962 21.5723 17.9298C20.4492 19.0529 19.3311 20.176 18.208 21.2941C18.0639 21.4333 17.9645 21.6122 17.7856 21.7265C17.7558 21.7463 17.7508 21.806 17.7309 21.8507L17.726 21.8408Z" fill="#4A4A49"/>
<path d="M54.2167 16.1359H50.8425C50.3654 14.5854 49.8883 13.0151 49.3665 11.3255C49.0237 11.897 48.7553 12.3392 48.4571 12.8362V16.116H45.227C45.227 15.1917 45.2121 14.2674 45.232 13.348C45.2419 12.9157 45.1276 12.5678 44.8543 12.2349C44.6654 12.0063 44.5511 11.7181 44.3375 11.3454C43.8902 12.9952 43.2889 14.496 42.8218 16.0962H39.4326C39.5022 15.7831 39.5072 15.4551 39.6413 15.1967C40.0687 14.3817 41.7533 10.0235 42.2751 8.71155C42.3596 8.50283 42.3248 8.35872 42.2155 8.15C41.321 6.38584 39.363 2.44507 39.363 2.44507H42.8267C43.6914 4.17941 44.3027 5.73982 45.1127 7.46918C45.1425 7.44434 45.1674 7.4344 45.1872 7.41452C45.2021 7.39464 45.222 7.36483 45.222 7.33998C45.222 5.71994 45.222 4.0999 45.222 2.45004H48.4472V7.41949C48.487 7.42943 48.5267 7.4344 48.5665 7.44434C49.2771 5.78951 49.9877 4.13468 50.7083 2.44507L54.1621 2.51464C54.1223 2.66869 51.5183 7.73754 51.4438 8.19969C51.4189 8.35872 51.3593 8.54259 51.409 8.6867C51.7519 9.65574 53.5359 14.332 54.1969 15.6489C54.2615 15.7781 54.2068 15.9719 54.2068 16.1309L54.2167 16.1359Z" fill="#4A4A49"/>
<path d="M129.529 2.27597C128.47 4.3532 127.437 6.38073 126.408 8.40827C126.761 9.26302 129.285 15.4897 129.509 16.0016C129.499 16.0264 129.494 16.0563 129.479 16.0761C129.464 16.101 129.434 16.1308 129.414 16.1308C128.272 16.1308 127.129 16.1308 125.976 16.1308C125.499 14.5654 125.026 12.9951 124.525 11.3353C124.033 11.8372 123.958 12.4882 123.551 13V16.106C122.537 16.106 120.35 16.1855 120.266 16.101C120.266 15.0176 120.31 13.7007 120.31 12.7317C120.027 12.2546 119.794 11.867 119.515 11.3999L117.955 16.1109H114.491C115.51 13.5417 116.509 11.0222 117.533 8.42815C116.544 6.45031 115.515 4.39792 114.476 2.31572C115.694 2.51947 116.862 2.36045 118.099 2.43499C118.805 4.07988 119.52 5.75955 120.251 7.46904C120.286 7.46904 120.365 7.45413 120.499 7.43426C120.44 7.08143 120.301 2.97169 120.301 2.45487C121.359 2.37535 122.427 2.44493 123.551 2.41014V7.44917C123.595 7.4591 123.64 7.46904 123.69 7.47898C124.44 5.72973 125.19 3.98049 125.916 2.29087C126.557 2.53935 127.183 2.4002 127.785 2.40517C128.351 2.41014 128.927 2.52941 129.519 2.271L129.529 2.27597Z" fill="#4A4A49"/>
<path d="M73.5678 5.69018C73.5678 6.46541 73.7467 15.0874 73.7467 16.0912H70.7004V2.42028H75.1183C75.1779 2.48488 75.0686 2.38052 75.1183 2.43518C75.1183 2.43518 76.8029 11.6833 76.9421 11.8026C77.0564 11.405 78.2739 2.74329 78.5224 2.42028H82.9154V16.1161H79.884L79.9237 5.86411C79.2777 9.27315 78.6267 12.6822 77.9757 16.1211H75.7345C75.4015 15.4999 73.8312 6.40578 73.692 5.71005C73.6473 5.71005 73.6076 5.70011 73.5628 5.69515L73.5678 5.69018Z" fill="#4A4A49"/>
<path d="M133.579 2.29102C134.702 2.54943 135.711 2.32083 136.724 2.45004C136.724 3.757 136.183 10.5105 136.322 10.7093C137.192 7.96613 138.066 5.22299 138.946 2.44507H142.091V16.1011H139.07C139.07 14.7544 138.961 13.3679 139.1 12.0113C139.234 10.7441 139.309 9.46194 139.542 8.19473C138.886 9.46194 138.548 10.8385 138.076 12.1653C137.609 13.4773 137.192 14.8041 136.754 16.1111H133.474V6.21191C133.474 5.55098 133.46 4.89004 133.474 4.2291C133.489 3.58804 133.385 2.93704 133.569 2.29598L133.579 2.29102Z" fill="#4A4A49"/>
<path d="M152.607 16.1011V10.3862H150.47V16.106H147.056V2.42017H150.415V7.44925C150.788 7.45919 151.141 7.46913 151.489 7.46913C151.847 7.46913 152.2 7.46913 152.587 7.46913V2.42017H155.847V16.1011H152.612H152.607Z" fill="#4A4A49"/>
<path d="M166.134 13.4672H163.575C163.425 14.3865 163.321 15.1618 163.167 16.1358H159.847C160.011 15.2214 162.715 2.94187 162.74 2.66358C162.809 2.59401 162.894 2.50953 162.978 2.42505H166.82C167.013 3.25495 169.682 15.7482 169.781 16.1358H166.601C166.432 15.2264 166.283 14.2722 166.134 13.4672ZM164.772 5.1334C164.782 5.80925 164.066 10.5004 163.982 10.8781H165.637C165.453 8.93006 165.15 7.03173 164.772 5.1334Z" fill="#4A4A49"/>
<path d="M58.4407 2.31082C58.8929 2.35058 59.3153 2.41021 59.7377 2.41518C61.482 2.42512 63.2263 2.42512 64.9705 2.41518C65.2488 2.41518 65.5271 2.34561 65.9942 2.28101C65.9942 2.28101 65.9942 4.13461 65.9346 4.94463H61.6857V7.62814H65.7806V10.1675H61.6758C61.6758 11.2757 61.6758 12.3193 61.6758 13.3629C61.7404 13.4275 65.224 13.4325 65.9495 13.4325V16.1209H58.4407V2.31082Z" fill="#4A4A49"/>
<path d="M93.4158 16.1009C93.4158 14.1877 93.4158 12.2993 93.4158 10.3562C92.0989 10.5451 90.6031 11.0222 89.3409 10.3761C88.2923 9.83942 87.8103 8.64676 87.8202 7.51869C87.8351 5.83902 87.8252 4.15934 87.8252 2.44985H91.1945C91.1945 2.44985 91.2094 2.45482 91.2243 2.47967C91.2392 2.49954 91.2541 2.52936 91.2541 2.55918C91.2541 4.23885 91.2541 5.91356 91.2541 7.58826C91.7014 7.92122 93.222 7.956 93.4059 7.43918V2.31567C94.4743 2.5393 95.5328 2.34052 96.5814 2.44488C96.7106 3.21018 96.7603 13.0745 96.641 16.1059H93.4208L93.4158 16.1009Z" fill="#4A4A49"/>
<path d="M102.639 15.9222V13.6263H103.951C104.07 13.507 104.155 13.4226 104.259 13.3182C104.135 12.8163 104.036 12.2895 103.876 11.7826C103.549 10.7142 103.25 9.63087 102.957 8.5525C102.738 7.74745 102.525 6.93246 102.242 6.14729C101.963 5.38199 101.874 4.57197 101.551 3.81661C101.377 3.40912 101.317 2.95193 101.203 2.49474C101.198 2.50468 101.208 2.47983 101.228 2.45995C101.248 2.44008 101.277 2.4202 101.302 2.4202C102.381 2.4202 103.459 2.4202 104.537 2.4202C104.766 2.99665 105.765 9.34762 105.899 10.1179C105.969 10.1875 106.053 10.2719 106.167 10.3862C106.441 7.67788 107.146 5.08382 107.673 2.42517H108.886C109.278 2.42517 109.671 2.45001 110.058 2.4202C110.377 2.39535 110.69 2.31087 111.077 2.23633C111.077 2.40529 111.132 2.59413 111.067 2.72333C110.63 3.61287 110.496 4.59185 110.222 5.53108C109.994 6.31128 109.765 7.09148 109.562 7.87169C109.363 8.63201 109.159 9.38737 108.945 10.1427C108.667 11.1118 108.389 12.0808 108.15 13.0598C107.996 13.6909 107.713 14.2624 107.44 14.8389C107.082 15.5942 106.441 15.9371 105.656 16.1558C105.104 16.3098 104.562 16.3496 104.011 16.3048C103.539 16.2701 103.052 16.2104 102.644 15.9272L102.639 15.9222Z" fill="#4A4A49"/>
<path d="M71.595 26.4328C71.764 26.4526 71.8633 26.4626 71.9876 26.4775V29.2653C71.9429 29.3101 71.8832 29.3697 71.8087 29.4442C71.4708 29.3945 71.103 29.5188 70.7353 29.3498C70.7303 29.3548 70.6806 29.3995 70.611 29.4691C70.5166 29.4045 70.4172 29.3349 70.3178 29.2604C70.3675 29.2057 70.4073 29.156 70.452 29.1113C70.1489 28.9871 70.3228 28.1323 70.3228 27.9037H67.8729V29.2306C67.7834 29.32 67.7337 29.3697 67.689 29.4144C67.2119 29.1908 66.6951 29.3896 66.1882 29.2802V26.4974C66.6206 26.4576 66.6156 26.0153 66.7895 25.742C66.9187 25.5333 66.8989 25.2301 66.9486 24.9668C67.2119 23.5455 67.0082 22.1093 67.0976 20.6135H71.6V26.4328H71.595ZM68.7574 22.0547C68.7475 23.5604 68.9065 25.0363 68.2058 26.4228H69.9054V22.0547H68.7574Z" fill="#4A4A49"/>
<path d="M100.189 22.0595H99.0015V24.3256C99.0015 24.6287 98.9866 24.9319 99.0015 25.235C99.0512 26.1047 98.8176 26.8948 98.3903 27.67C97.7542 28.0825 97.0883 28.0328 96.4224 27.7645V26.4625C96.6957 26.7109 96.9193 26.532 97.2175 26.3382C97.2374 26.1991 97.3268 25.9556 97.3069 25.722C97.2274 24.5641 97.4759 23.4261 97.4411 22.2732C97.4262 21.8558 97.3467 21.4433 97.3218 21.0309C97.3119 20.9017 97.3914 20.7625 97.4262 20.6333H101.963V27.8738H100.194V22.0595H100.189Z" fill="#4A4A49"/>
<path d="M59.1763 20.6284H60.7913C60.851 20.6881 60.8957 20.7328 60.9702 20.8073C60.9404 21.0608 61.0647 23.0933 60.7963 23.3268H62.0933C62.2126 22.2783 62.1728 21.1303 62.0138 20.8123C62.0735 20.7527 62.1381 20.6881 62.1927 20.6334H63.8177V27.854H62.0486C62.2424 27.3421 62.0834 25.2997 61.984 24.7879H61.01C60.9851 25.2898 60.7864 27.3322 60.9156 27.849H59.1812V20.6284H59.1763Z" fill="#4A4A49"/>
<path d="M76.937 21.8558C76.9817 21.8061 77.0463 21.7663 77.0662 21.7117C77.3843 20.8271 78.0999 20.5588 78.9496 20.4942C79.1882 20.4743 79.4267 20.4743 79.6652 20.4942C79.864 20.514 80.0628 20.5687 80.2616 20.6234C80.3957 20.6581 80.5498 20.688 80.6542 20.7675C81.2455 21.2197 81.5934 21.826 81.6083 22.5714C81.6331 23.6299 81.6133 24.6933 81.6133 25.7518C81.6133 26.0152 81.3399 26.8401 81.2555 27.1582C81.1561 27.5309 80.7983 27.5408 80.5896 27.7496C80.4653 27.8688 80.2715 27.9135 80.0578 28.0179C79.7298 28.0179 79.3422 28.0179 78.9546 28.0179C78.0651 28.0179 77.3992 27.67 77.0712 26.7954C77.0513 26.7408 76.9867 26.701 76.942 26.6513V21.8558H76.937ZM79.5808 26.7109C79.8292 26.5867 79.7895 26.383 79.7895 26.1941C79.7895 24.8375 79.7895 23.4758 79.7895 22.1142C79.6851 22.0098 79.5758 21.9055 79.4764 21.8111H79.0639C78.8353 21.9601 78.7061 22.0397 78.6366 22.0894V26.3382C78.7707 26.5122 78.8652 26.6314 78.9298 26.7159H79.5857L79.5808 26.7109Z" fill="#4A4A49"/>
<path d="M53.7296 26.4822C53.6203 26.9593 53.5209 27.4115 53.4166 27.8737H51.7468C51.7965 27.6004 51.8114 27.337 51.8909 27.0935C52.1394 26.3381 52.2338 25.548 52.4177 24.7827C52.6215 23.9379 52.7159 23.0682 53.0289 22.2532C53.0886 22.1042 53.0289 21.9103 53.0538 21.7464C53.0786 21.5873 53.1383 21.4382 53.178 21.2792C53.2277 21.0854 53.2774 20.8866 53.3371 20.6531H55.3944C55.5186 21.2295 55.623 21.8308 55.782 22.4123C55.951 23.0235 56.0106 23.6546 56.1746 24.2609C56.3336 24.8523 56.433 25.4536 56.5722 26.0449C56.7113 26.6363 56.8405 27.2326 56.9797 27.8588H55.2851C55.2205 27.4066 55.1559 26.9593 55.0863 26.4822H53.7197H53.7296ZM54.3061 22.1588C54.2812 22.1688 54.2514 22.1787 54.2266 22.1886C54.2266 22.4421 54.2912 22.7204 54.2067 22.939C54.1123 23.1875 54.1123 23.4211 54.0924 23.6646C54.0676 23.9279 54.0079 24.1864 53.9682 24.4497C53.9334 24.6833 53.9036 24.9119 53.8688 25.1455C54.3525 25.1554 54.6672 25.1107 54.813 25.0113C54.6838 24.1068 54.5595 23.2223 54.4502 22.452C54.3757 22.3029 54.3409 22.2284 54.3061 22.1539V22.1588Z" fill="#4A4A49"/>
<path d="M104.582 27.8837V20.6184C104.85 20.6184 105.124 20.6184 105.397 20.6184C105.675 20.6184 105.954 20.6184 106.252 20.6184V23.4758C106.61 23.4758 106.947 23.4758 107.285 23.4758C107.902 23.4709 108.394 23.6995 108.831 24.1368C109.124 24.43 109.04 24.8375 109.253 25.1356C109.194 25.6127 109.273 26.0848 109.149 26.5818C108.97 27.3073 108.14 27.8887 107.405 27.8887C106.48 27.8887 105.551 27.8887 104.582 27.8887V27.8837ZM107.022 26.5867C107.444 26.4327 107.464 26.0848 107.554 25.8065C107.663 25.4636 107.345 25.2102 107.241 24.8474C106.938 24.8176 106.62 24.7828 106.272 24.748C106.272 25.1158 106.272 25.4139 106.272 25.7121C106.272 26.0053 106.272 26.2985 106.272 26.5867H107.022Z" fill="#4A4A49"/>
<path d="M45.2915 20.6185C46.2407 20.6185 47.17 20.5936 48.0943 20.6284C48.4968 20.6433 48.8944 20.7825 49.1925 21.1005C49.3416 21.2595 49.4957 21.4086 49.6199 21.5328C49.923 22.2137 49.8038 22.8994 49.7988 23.5703C49.7988 23.9977 49.5752 24.3853 49.2273 24.6189C48.8447 24.8823 48.4173 25.0959 47.9104 25.0363C47.6122 25.0015 47.3091 25.0313 46.9612 25.0313V27.8739H45.2915V20.6185ZM46.9811 21.8807V23.7741C47.3339 23.7244 47.652 23.6747 47.9452 23.6299C48.1986 23.0535 48.2086 22.5416 47.9452 22.0447C47.6122 21.9851 47.3141 21.9354 46.9811 21.8757V21.8807Z" fill="#4A4A49"/>
<path d="M94.2954 27.8837H90.3695C90.2751 27.347 90.2453 22.3677 90.3297 20.6184H94.2954V22.0347H91.9895C92.0492 22.5267 91.8603 23.0137 92.1336 23.4758H94.1761V24.758H92.0044V26.5818H94.2904V27.8887L94.2954 27.8837Z" fill="#4A4A49"/>
<path d="M40.8787 27.8739H39.1941V20.6632C39.1941 20.6632 39.1941 20.6533 39.214 20.6384C39.2289 20.6284 39.2488 20.6135 39.2686 20.6135C40.4762 20.6135 41.6838 20.6135 42.9112 20.6135V22.0248C42.6031 22.0646 42.2652 22.0348 41.9273 22.0398C41.5844 22.0447 41.2415 22.0398 40.8787 22.0398V27.8689V27.8739Z" fill="#4A4A49"/>
<path d="M87.9444 22.0446H86.6921V27.8688C86.4237 27.8738 86.1752 27.8788 85.9268 27.8837C85.6684 27.8837 85.4149 27.8837 85.1167 27.8837V22.0446H83.8396V20.6582C83.8396 20.6582 83.8396 20.6482 83.8595 20.6383C83.8744 20.6283 83.8943 20.6184 83.9141 20.6184C85.2509 20.6184 86.5877 20.6184 87.9444 20.6184V22.0496V22.0446Z" fill="#4A4A49"/>
<path d="M167.992 24.6733C167.933 25.6424 168.445 26.4375 168.569 27.3072C168.261 27.2525 167.043 26.4723 166.392 25.8958C165.607 26.4226 164.822 26.9494 163.972 27.5208C164.245 26.6263 164.509 25.7617 164.792 24.8324C164.111 24.2808 163.401 23.7043 162.601 23.0583H165.334C165.662 22.1787 165.985 21.3239 166.313 20.4443C166.656 21.309 166.994 22.1489 167.346 23.0334H170C169.702 23.4807 169.324 23.6894 169.031 23.9726C168.728 24.2658 168.325 24.4597 167.992 24.6783V24.6733Z" fill="#4A4A49"/>
<path d="M121.215 25.9456C120.479 26.4327 119.754 26.9147 118.994 27.4166C119.063 26.4426 119.585 25.6226 119.575 24.743C118.894 24.1865 118.253 23.6647 117.513 23.0534H120.156C120.718 22.2434 120.733 21.2595 121.255 20.4792C121.563 21.2942 121.871 22.1142 122.209 23.0037H124.947C124.251 23.7889 123.397 24.1964 122.8 24.8474C123.019 25.6723 123.238 26.4823 123.496 27.4514C122.656 26.8948 121.955 26.4327 121.22 25.9456H121.215Z" fill="#4A4A49"/>
<path d="M150.306 23.0583C150.639 22.139 150.942 21.3041 151.275 20.3848C151.618 21.2892 151.946 22.144 152.284 23.0385H154.982C154.277 23.7093 153.606 24.1765 152.91 24.7976C153.024 25.5679 153.258 26.4326 153.596 27.3569C152.796 27.0339 152.219 26.4823 151.419 26.0549C151.196 26.0052 150.907 26.1642 150.629 26.3531C150.132 26.691 149.635 27.024 149.029 27.4314C149.228 26.5071 149.516 25.717 149.685 24.8076C149.034 24.2758 148.328 23.6944 147.548 23.0534H150.296L150.306 23.0583Z" fill="#4A4A49"/>
<path d="M133.996 27.3121C134.23 26.4573 134.463 25.5976 134.687 24.7826C134.622 24.7031 134.608 24.6783 134.588 24.6634C134.568 24.6485 134.543 24.6435 134.523 24.6286C133.922 24.1664 133.315 23.7043 132.714 23.2371C132.699 23.2272 132.714 23.1874 132.714 23.1576C132.714 23.1328 132.724 23.1079 132.739 23.0533H135.259C135.567 22.2333 135.88 21.4183 136.237 20.4741C136.685 21.3686 136.888 22.2234 137.286 23.0384H139.781C139.721 23.6049 139.184 23.6595 138.901 23.9478C138.603 24.2509 138.22 24.4596 137.838 24.7379C138.041 25.5628 138.26 26.4275 138.479 27.327C137.599 26.999 137.033 26.1343 136.103 26.0399C135.413 26.507 134.771 26.9443 134.125 27.3817C134.081 27.3568 134.041 27.327 133.996 27.3021V27.3121Z" fill="#4A4A49"/>
</g>
<defs>
<clipPath id="clip0_1376_589">
<rect width="170" height="31.8045" fill="white"/>
</clipPath>
</defs>
</svg>
