<svg width="172" height="48" viewBox="0 0 172 48" fill="none" xmlns="http://www.w3.org/2000/svg">
<g clip-path="url(#clip0_700_4105)">
<path d="M161.723 9.64785L169.581 9.60117L161.723 9.64785ZM169.581 9.60117L170.077 30.7332L163.023 30.6912L163.051 18.1166C159.697 23.785 159.415 23.8007 155.532 30.6144L147.152 30.6912L147.033 9.43323H153.584L153.598 23.0626C158.317 15.9713 157.227 17.1177 161.723 9.64785M77.308 9.63184L85.4057 24.5538L82.1475 30.5649L90.1193 30.6488L99.9068 9.58217C97.793 9.69976 95.6721 9.63444 93.5556 9.63184L89.4582 18.6658L85.4795 9.55806L77.308 9.63184ZM78.9587 16.9618L72.2666 16.9408C70.3349 11.408 64.1994 13.5351 63.7283 19.3969C63.3564 28.2769 71.784 28.5449 72.6652 22.8817L79.5461 22.8397C80.0221 35.142 53.8496 34.6473 56.8053 18.3053C57.848 12.4617 62.3917 9.16733 68.2177 9.23658C74.5474 9.13648 78.9597 11.006 78.9587 16.9618ZM111.494 24.4533L116.594 30.7089H125.654L116.498 19.8168L124.951 9.59641L116.41 9.68038L111.947 14.9045L108.129 9.59641L99.9068 9.58217C103.438 14.5535 103.437 14.5789 107.034 19.3102C103.113 24.2772 103.103 24.2729 98.1361 30.7089L106.871 30.6669L111.494 24.4533ZM134.235 8.98115C127.499 9.0462 122.682 13.2741 122.805 20.2039C122.876 26.7893 127.746 31.1797 134.235 31.4266H134.832C141.097 31.1977 146.448 27.2657 146.678 20.6789C146.77 13.4272 142.077 8.88113 134.832 8.98115H134.235ZM134.711 13.5617C138.493 13.9537 139.67 16.9121 139.728 20.2229C139.261 23.8826 137.913 26.6189 134.533 26.706C131.08 26.4469 129.694 24.4463 129.516 20.2823C129.927 16.8391 130.982 13.6796 134.711 13.5617ZM152.631 4.36548H155.376C155.999 6.03008 159.796 6.13822 160.657 4.41001L163.732 4.38032C162.67 7.20623 161.161 8.25408 158.12 8.26942C155.041 8.26942 153.229 7.34526 152.631 4.36548Z" fill="#4A4A49"/>
<path d="M23.7436 0.760254C20.7909 0.760263 17.8672 1.35743 15.1393 2.51767C12.4114 3.6779 9.93281 5.37847 7.84499 7.52229C5.75717 9.66611 4.10103 12.2112 2.97114 15.0122C1.84124 17.8132 1.25972 20.8153 1.25977 23.8471C1.25977 29.97 3.6286 35.8422 7.84514 40.1717C12.0617 44.5013 17.7805 46.9336 23.7436 46.9336C29.7067 46.9336 35.4255 44.5013 39.6421 40.1717C43.8586 35.8422 46.2274 29.97 46.2274 23.8471C46.2275 20.8153 45.646 17.8132 44.5161 15.0122C43.3862 12.2112 41.73 9.66611 39.6422 7.52229C37.5544 5.37847 35.0758 3.6779 32.3479 2.51767C29.62 1.35743 26.6963 0.760263 23.7436 0.760254ZM23.7436 3.28668C26.2986 3.28664 28.8286 3.82059 31.1891 4.85804C33.5497 5.89549 35.6945 7.41613 37.5012 9.33313C39.3079 11.2501 40.741 13.5259 41.7188 16.0306C42.6966 18.5353 43.1998 21.2199 43.1998 23.9309C43.1998 26.642 42.6966 29.3265 41.7188 31.8312C40.741 34.3359 39.3079 36.6117 37.5012 38.5287C35.6945 40.4457 33.5497 41.9664 31.1891 43.0038C28.8286 44.0413 26.2986 44.5752 23.7436 44.5752C18.5836 44.5751 13.635 42.4001 9.98629 38.5286C6.33762 34.657 4.28782 29.4061 4.28781 23.9309C4.28782 18.4558 6.33762 13.2048 9.98629 9.33328C13.635 5.46174 18.5836 3.28672 23.7436 3.28668ZM35.072 6.71727L4.61105 28.7173L20.3873 28.8011L25.9255 44.8396L35.072 6.71727ZM30.4571 13.8545L25.4222 34.1753L22.5687 25.4422H14.1775L30.4571 13.8545Z" fill="#4A4A49"/>
</g>
<defs>
<clipPath id="clip0_700_4105">
<rect width="171.5" height="46.55" fill="white" transform="translate(0.250244 0.571777)"/>
</clipPath>
</defs>
</svg>
