<svg width="590" height="56" viewBox="0 0 590 56" fill="none" xmlns="http://www.w3.org/2000/svg">
<path d="M36.063 54.3415H46.4372V1.21033H36.063V54.3415ZM98.1851 37.051L65.6049 1.21033H58.5406V54.3415H68.9148V18.8219L101.273 54.3415H108.683V1.21033H98.3086L98.1851 37.051ZM10.3743 1.21033H0V54.3415H26.7755V45.6962H10.3743V1.21033ZM120.465 54.3415H150.106V45.6962H130.913V30.8758H149.044V22.2306H130.913V9.88026H150.131V1.21033H120.49L120.465 54.3415ZM529.088 25.3923L551.319 1.33384H538.474L519.134 23.5644V1.33384H509.253V54.3415H519.134V31.3945L520.319 30.7276L538.944 54.3415H552.529L529.088 26.3803V25.3923ZM497.842 17.2905C497.842 5.77995 489.962 1.48204 479.292 1.48204H474.351H464.471V54.3415H474.351V32.7284H475.191L489.592 54.3415H502.535L486.01 32.1109C489.447 31.5021 492.545 29.6614 494.723 26.9334C496.901 24.2054 498.009 20.7771 497.842 17.2905ZM478.081 25.7381H474.253V10.0285H478.007C483.318 10.0285 487.245 12.1774 487.245 17.908C487.344 23.0457 483.491 25.6393 478.106 25.6393L478.081 25.7381ZM575.846 22.2306C566.855 19.7605 566.559 16.2283 566.559 14.5734C566.559 12.375 568.56 8.69463 574.117 8.69463C575.776 8.71902 577.411 9.1026 578.907 9.81896C580.404 10.5353 581.728 11.5675 582.787 12.8443C585.554 9.78146 588.123 6.49627 588.123 6.49627C586.308 4.37417 584.024 2.7044 581.451 1.61959C578.879 0.534773 576.088 0.0648031 573.302 0.247007C563.941 0.247007 556.012 5.36004 556.012 15.512C556.012 24.0831 563.175 27.4918 567.004 29.0974C570.832 30.7029 579.502 31.5674 579.502 38.9776C579.509 40.8676 578.777 42.6854 577.461 44.0424C576.146 45.3995 574.352 46.188 572.462 46.2396C570.009 46.2005 567.599 45.5883 565.425 44.4517C563.25 43.3152 561.372 41.6859 559.939 39.694C553.418 45.6468 553.468 45.6468 553.468 45.6468C555.325 48.7243 557.96 51.2579 561.109 52.9925C564.257 54.7271 567.807 55.6013 571.4 55.5271C583.158 55.5271 590 47.944 590 38.2366C590 28.5293 582.096 23.9596 575.846 22.2306ZM429.791 0C410.031 0 401.287 14.5487 401.287 27.7882C401.287 39.941 409.166 55.453 429.421 55.453C449.675 55.453 457.555 39.941 457.555 27.7882C457.555 15.6355 449.552 0 429.791 0ZM429.446 45.8444C416.651 45.8444 411.686 35.7172 411.686 27.7635C411.686 19.1183 417.169 9.60856 429.668 9.60856C442.166 9.60856 447.205 19.8346 447.205 27.7882C447.205 35.7419 442.265 45.8444 429.495 45.8444H429.446ZM277.66 17.2905C277.66 5.77995 269.781 1.48204 259.11 1.48204H254.17H244.29V54.3415H254.17V32.7284H255.01L269.435 54.3415H282.378L265.853 32.1109C269.286 31.4967 272.377 29.6537 274.55 26.9263C276.723 24.1989 277.829 20.7736 277.66 17.2905ZM257.9 25.7381H254.17V10.0285H257.924C263.235 10.0285 267.162 12.1774 267.162 17.908C267.162 23.0457 263.309 25.6393 257.924 25.6393L257.9 25.7381ZM284.502 9.88026H296.408V54.3415H306.288V9.88026H318.12V1.30913H284.502V9.88026ZM206.819 1.30913L184.341 54.3415H194.938L199.532 43.1274H222.059L226.703 54.3415H237.299L214.896 1.30913H206.819ZM203.015 34.5809L210.795 15.6108L218.601 34.5809H203.015ZM376.66 37.4709L364.112 1.30913H358.802L345.612 37.4709L334.052 1.30913H323.282L341.388 54.3415H349.391L350.329 52.0937L361.371 20.6251L372.115 52.0937L372.98 54.3415H380.983L400.151 1.30913H389.381L376.66 37.4709Z" fill="black"/>
</svg>
